<?xml version="1.0" encoding="UTF-8"?>
<svg id="Layer_3" xmlns="http://www.w3.org/2000/svg" version="1.1" viewBox="0 0 269.9 153.07">
  <!-- Generator: Adobe Illustrator 29.4.0, SVG Export Plug-In . SVG Version: 2.1.0 Build 152)  -->
  <defs>
    <style>
      .st0 {
        fill: #7f7f7f;
      }
    </style>
  </defs>
  <g>
    <path class="st0" d="M20.74,60.61l1.04,3.08,1.04-3.08h.92l-1.54,4.13h-.85l-1.54-4.13h.92Z"/>
    <path class="st0" d="M27.47,60.96c.25.26.38.65.38,1.15v2.64h-.78v-.58c-.16.21-.36.38-.6.5-.27.13-.59.2-.96.2-.43,0-.77-.11-1.01-.33-.26-.22-.39-.5-.39-.84,0-.46.18-.82.55-1.07.34-.24.82-.36,1.42-.38l.93-.02v-.17c0-.58-.31-.86-.94-.86-.26,0-.48.05-.64.14-.19.11-.31.28-.36.51l-.84-.07c.09-.45.31-.78.66-.99.3-.19.72-.28,1.23-.28.61,0,1.06.15,1.34.46ZM26.13,62.86c-.78.02-1.16.29-1.16.8,0,.16.06.29.2.39.13.1.3.16.52.16.36,0,.66-.11.92-.33.26-.22.39-.49.39-.81v-.24l-.87.02Z"/>
    <path class="st0" d="M29.76,58.93v5.82h-.85v-5.82h.85Z"/>
    <path class="st0" d="M34.11,61.19c.32.42.49.99.5,1.73h-3.13c.03.4.14.71.33.93.19.21.46.32.79.32.3,0,.54-.07.72-.21.14-.11.26-.3.38-.54h.85c-.1.38-.28.71-.57.97-.36.31-.82.47-1.37.47-.61,0-1.1-.19-1.45-.57-.38-.4-.58-.94-.58-1.62,0-.62.18-1.13.54-1.54.35-.42.84-.63,1.45-.63.67,0,1.19.22,1.54.69ZM31.83,61.48c-.18.18-.3.45-.34.8h2.23c-.08-.72-.46-1.08-1.13-1.08-.32,0-.57.09-.76.28Z"/>
    <path class="st0" d="M37.78,60.61v.85c-.21-.06-.41-.09-.6-.09-.26,0-.49.1-.69.31-.22.22-.32.52-.32.88v2.19h-.85v-4.13h.85v.62c.1-.22.24-.39.4-.5.19-.16.42-.23.67-.23.21,0,.39.03.54.1Z"/>
    <path class="st0" d="M39.32,59.12c.11.1.17.24.17.41s-.06.3-.18.42c-.11.1-.26.16-.42.16-.17,0-.3-.06-.42-.16-.11-.11-.17-.26-.17-.42s.06-.3.17-.41c.11-.11.25-.16.42-.16s.31.05.42.16ZM39.32,60.61v4.13h-.85v-4.13h.85Z"/>
    <path class="st0" d="M40.95,60.61l1.14,3.01,1.09-3.01h.93l-2.25,5.72h-.9l.72-1.68-1.64-4.04h.92Z"/>
    <path class="st0" d="M45.65,63.77c.11.11.18.26.18.43,0,.16-.06.3-.18.42-.12.1-.26.16-.42.16-.18,0-.31-.06-.42-.16-.12-.12-.18-.26-.18-.42,0-.18.06-.32.18-.43.1-.11.24-.17.42-.17.16,0,.3.06.42.17Z"/>
    <path class="st0" d="M50.43,62.2v2.55h-.85v-2.48c0-.7-.33-1.06-.97-1.06-.24,0-.46.08-.63.26-.19.19-.31.46-.34.79v2.49h-.85v-4.13h.85v.51c.16-.21.34-.36.55-.46.21-.11.44-.16.7-.16,1.02,0,1.54.56,1.54,1.69Z"/>
    <path class="st0" d="M54.81,61.13c.37.41.56.93.56,1.56s-.18,1.14-.55,1.54c-.38.42-.89.63-1.51.63s-1.13-.22-1.51-.63c-.37-.4-.55-.92-.55-1.54s.18-1.15.56-1.56c.38-.42.88-.62,1.5-.62s1.13.21,1.5.62ZM52.39,61.66c-.19.26-.28.61-.28,1.02s.09.75.28,1.02c.22.3.52.46.91.46s.7-.16.92-.46c.19-.27.29-.61.29-1.02s-.1-.76-.29-1.02c-.22-.31-.53-.46-.92-.46s-.7.15-.91.46Z"/>
    <path class="st0" d="M56.66,60.61l1.04,3.08,1.04-3.08h.92l-1.54,4.13h-.85l-1.54-4.13h.92Z"/>
    <path class="st0" d="M60.66,60.61l1.13,3.01,1.09-3.01h.93l-2.25,5.72h-.9l.72-1.68-1.64-4.04h.92Z"/>
    <path class="st0" d="M65.59,60.61h.94v.7h-.94v2.4c0,.11.02.19.07.25.05.05.12.08.22.08h.54v.7h-.68c-.35,0-.62-.1-.78-.28-.16-.18-.23-.42-.23-.75v-2.4h-.77v-.7h.77v-.98l.85-.35v1.33Z"/>
    <path class="st0" d="M70.51,61.8h-.82c-.06-.22-.16-.38-.3-.46-.14-.1-.37-.14-.66-.14-.26,0-.45.03-.58.11-.15.08-.22.21-.22.37,0,.14.11.26.34.37.14.06.42.14.83.25.47.11.82.25,1.05.39.33.21.5.5.5.86,0,.87-.62,1.31-1.84,1.31-1.14,0-1.74-.49-1.84-1.45h.83c.05.28.15.48.3.59.14.1.37.16.69.16.66,0,.99-.19.99-.56,0-.2-.13-.36-.37-.47-.13-.06-.41-.14-.83-.24-.49-.11-.83-.23-1.02-.36-.32-.2-.48-.48-.48-.83,0-.38.15-.67.46-.88.31-.22.72-.32,1.21-.32,1.07,0,1.66.43,1.76,1.3Z"/>
    <path class="st0" d="M72.22,58.93v3.39l1.79-1.7h1.1l-1.83,1.7,1.99,2.43h-1.09l-1.49-1.89-.47.44v1.45h-.85v-5.82h.85Z"/>
    <path class="st0" d="M76.23,60.61l1.13,3.01,1.09-3.01h.93l-2.25,5.72h-.9l.72-1.68-1.64-4.04h.92Z"/>
    <path class="st0" d="M80.38,60.61l1.13,3.01,1.09-3.01h.93l-2.25,5.72h-.9l.72-1.68-1.64-4.04h.92Z"/>
    <path class="st0" d="M89.16,59.69c.43.45.65,1.01.65,1.67,0,.56-.18,1.08-.54,1.56-.36.46-.77.7-1.22.7-.34,0-.53-.17-.58-.5-.24.34-.56.52-.94.52-.35,0-.64-.12-.86-.36-.22-.24-.33-.54-.33-.9,0-.56.18-1.06.53-1.49.34-.44.76-.66,1.24-.66.35,0,.6.18.74.56l.11-.41h.67l-.55,1.98c-.08.27-.11.45-.11.53,0,.11.06.17.18.17.23,0,.46-.15.69-.45.26-.34.4-.76.4-1.25,0-.51-.18-.95-.54-1.3-.4-.38-.94-.58-1.61-.58-.72,0-1.3.23-1.74.7-.44.46-.66,1.04-.66,1.76,0,.79.22,1.39.69,1.81.42.38,1.02.57,1.81.57.53,0,.98-.09,1.36-.26.34-.17.62-.4.82-.69h.71c-.28.5-.69.88-1.23,1.14-.5.22-1.06.34-1.66.34-1.01,0-1.8-.26-2.37-.79-.57-.53-.85-1.25-.85-2.14,0-.83.27-1.54.83-2.1.59-.61,1.37-.9,2.33-.9.86,0,1.54.26,2.03.77ZM86.43,61.35c-.24.31-.35.66-.35,1.06,0,.19.04.34.13.46.08.11.22.17.39.17.16,0,.32-.06.48-.19.18-.14.29-.3.35-.51l.16-.59c.06-.22.1-.37.1-.42,0-.13-.05-.22-.13-.3-.09-.1-.19-.14-.31-.14-.31,0-.58.15-.82.46Z"/>
    <path class="st0" d="M94.44,59.77c.34.53.5,1.23.5,2.12s-.17,1.59-.5,2.12c-.37.56-.89.85-1.56.85s-1.19-.29-1.56-.85c-.34-.53-.5-1.23-.5-2.12s.17-1.6.5-2.12c.37-.57.89-.85,1.56-.85s1.19.28,1.56.85ZM91.89,60.44c-.14.35-.21.84-.21,1.46s.06,1.1.21,1.46c.19.51.52.78.99.78s.8-.26.99-.78c.14-.36.21-.85.21-1.46s-.07-1.1-.21-1.46c-.19-.52-.53-.78-.99-.78s-.8.26-.99.78Z"/>
    <path class="st0" d="M97.8,59.04v5.71h-.87v-4.66c-.34.33-.78.57-1.31.72v-.86c.26-.06.52-.18.81-.34.29-.18.53-.36.72-.57h.66Z"/>
    <path class="st0" d="M99.88,58.93v2.3c.34-.49.75-.73,1.26-.73.59,0,1.06.22,1.4.65.31.4.47.9.47,1.51s-.16,1.15-.48,1.55c-.35.43-.82.65-1.43.65-.57,0-.99-.21-1.28-.61v.5h-.79v-5.82h.85ZM100.18,61.57c-.22.27-.33.63-.33,1.08v.07c0,.42.09.75.26,1.02.2.29.49.44.86.44.42,0,.72-.15.92-.45.16-.26.25-.61.25-1.06s-.09-.81-.26-1.05c-.2-.29-.51-.42-.93-.42-.32,0-.58.12-.77.38Z"/>
    <path class="st0" d="M104.84,59.12c.11.1.17.24.17.41s-.06.3-.18.42c-.11.1-.26.16-.42.16s-.3-.06-.42-.16c-.11-.11-.17-.26-.17-.42s.06-.3.17-.41c.11-.11.25-.16.42-.16s.31.05.42.16ZM104.84,60.61v4.13h-.85v-4.13h.85Z"/>
    <path class="st0" d="M109.62,62.2v2.55h-.85v-2.48c0-.7-.33-1.06-.97-1.06-.24,0-.46.08-.63.26-.19.19-.31.46-.34.79v2.49h-.85v-4.13h.85v.51c.16-.21.34-.36.55-.46.21-.11.44-.16.7-.16,1.02,0,1.54.56,1.54,1.69Z"/>
    <path class="st0" d="M113.79,60.96c.25.26.38.65.38,1.15v2.64h-.78v-.58c-.16.21-.36.38-.6.5-.27.13-.59.2-.96.2-.43,0-.77-.11-1.01-.33-.26-.22-.39-.5-.39-.84,0-.46.18-.82.55-1.07.34-.24.82-.36,1.42-.38l.93-.02v-.17c0-.58-.31-.86-.94-.86-.26,0-.48.05-.64.14-.19.11-.31.28-.36.51l-.84-.07c.09-.45.31-.78.66-.99.3-.19.72-.28,1.23-.28.61,0,1.06.15,1.34.46ZM112.46,62.86c-.78.02-1.16.29-1.16.8,0,.16.06.29.2.39.13.1.3.16.52.16.36,0,.66-.11.92-.33.26-.22.39-.49.39-.81v-.24l-.87.02Z"/>
    <path class="st0" d="M117.6,60.61v.85c-.21-.06-.41-.09-.6-.09-.26,0-.49.1-.69.31-.22.22-.32.52-.32.88v2.19h-.85v-4.13h.85v.62c.1-.22.24-.39.4-.5.19-.16.42-.23.67-.23.21,0,.39.03.54.1Z"/>
    <path class="st0" d="M118.6,60.61l1.14,3.01,1.09-3.01h.93l-2.25,5.72h-.9l.72-1.68-1.64-4.04h.92Z"/>
    <path class="st0" d="M123.3,63.77c.11.11.18.26.18.43,0,.16-.06.3-.18.42-.12.1-.26.16-.42.16-.18,0-.31-.06-.42-.16-.12-.12-.18-.26-.18-.42,0-.18.06-.32.18-.43.1-.11.24-.17.42-.17.16,0,.3.06.42.17Z"/>
    <path class="st0" d="M125.29,60.61v2.52c0,.35.07.61.22.77.14.16.38.25.71.25.22,0,.42-.1.62-.27.19-.18.33-.43.4-.74v-2.53h.85v4.13h-.85v-.56c-.35.45-.78.67-1.3.67-1,0-1.5-.56-1.5-1.67v-2.57h.85Z"/>
    <path class="st0" d="M132.36,61.8h-.82c-.06-.22-.16-.38-.3-.46-.14-.1-.37-.14-.66-.14-.26,0-.45.03-.58.11-.15.08-.22.21-.22.37,0,.14.11.26.34.37.14.06.42.14.83.25.47.11.82.25,1.05.39.33.21.5.5.5.86,0,.87-.62,1.31-1.84,1.31-1.14,0-1.74-.49-1.84-1.45h.83c.05.28.15.48.3.59.14.1.37.16.69.16.66,0,.99-.19.99-.56,0-.2-.13-.36-.37-.47-.13-.06-.41-.14-.83-.24-.49-.11-.83-.23-1.02-.36-.32-.2-.48-.48-.48-.83,0-.38.15-.67.46-.88.31-.22.72-.32,1.21-.32,1.07,0,1.66.43,1.76,1.3Z"/>
  </g>
  <g>
    <path class="st0" d="M22.08,71.69c-.34.54-.59,1.1-.77,1.66-.24.69-.35,1.38-.35,2.08s.11,1.38.35,2.08c.18.55.43,1.1.77,1.66h-.71c-.38-.53-.66-1.07-.86-1.63-.25-.68-.37-1.38-.37-2.1s.12-1.43.37-2.1c.2-.58.49-1.12.86-1.64h.71Z"/>
    <path class="st0" d="M26.37,73.24c.35.49.54,1.17.54,2.05,0,.93-.19,1.68-.57,2.25-.39.58-.91.87-1.57.87-1.11,0-1.73-.52-1.88-1.55h.85c.11.55.46.83,1.04.83.39,0,.7-.2.94-.58.22-.37.34-.83.34-1.38,0-.03,0-.06,0-.1h-.03c-.16.25-.37.43-.61.56-.23.11-.5.18-.79.18-.56,0-1.02-.18-1.35-.54-.33-.35-.49-.81-.49-1.37s.18-1.04.57-1.41c.38-.38.86-.56,1.42-.56.7,0,1.22.25,1.59.76ZM23.96,73.56c-.22.23-.32.53-.32.9s.1.66.32.87c.2.22.48.34.84.34s.64-.11.85-.34c.21-.22.31-.53.31-.9s-.11-.67-.32-.89c-.22-.22-.5-.34-.83-.34s-.64.11-.85.35Z"/>
    <path class="st0" d="M31.33,72.6v.7l-2.02,5.01h-.93l2.07-4.92h-2.96v-.79h3.84Z"/>
    <path class="st0" d="M34.16,72.6v5.71h-.87v-4.66c-.34.33-.78.57-1.31.72v-.86c.26-.06.52-.18.81-.34.29-.18.53-.36.72-.57h.66Z"/>
    <path class="st0" d="M35.99,71.69c.37.52.66,1.06.86,1.64.24.67.37,1.38.37,2.1s-.13,1.42-.37,2.1c-.21.56-.5,1.1-.86,1.63h-.71c.33-.55.58-1.1.77-1.66.23-.7.35-1.39.35-2.08s-.12-1.39-.35-2.08c-.18-.56-.44-1.11-.77-1.66h.71Z"/>
    <path class="st0" d="M44.02,72.6v3.77h.86v.7h-.86v1.24h-.83v-1.24h-2.78v-.82l2.81-3.65h.8ZM41.12,76.37h2.07v-2.67h-.02l-2.05,2.67Z"/>
    <path class="st0" d="M48.88,72.96c.34.32.52.73.52,1.23s-.19.94-.56,1.35c-.22.23-.62.54-1.18.92-.62.41-.98.77-1.1,1.08h2.85v.77h-3.93c0-.57.18-1.06.57-1.5.21-.25.64-.59,1.29-1.04.38-.27.66-.49.82-.66.26-.29.39-.6.39-.94s-.09-.56-.26-.72c-.18-.16-.44-.24-.78-.24-.36,0-.63.12-.82.37-.19.24-.29.58-.3,1.05h-.87c0-.64.19-1.15.55-1.54.37-.42.86-.62,1.47-.62.54,0,1,.15,1.35.47Z"/>
    <path class="st0" d="M52.35,72.6v5.71h-.87v-4.66c-.34.33-.78.57-1.31.72v-.86c.26-.06.52-.18.81-.34.29-.18.53-.36.72-.57h.66Z"/>
    <path class="st0" d="M57.55,75.88v.7h-4.04v-.7h4.04Z"/>
    <path class="st0" d="M62.14,72.6v.77h-2.73l-.17,1.65h.02c.18-.18.38-.31.61-.39.21-.09.45-.13.7-.13.54,0,.98.18,1.31.53.34.35.51.83.51,1.45s-.22,1.07-.66,1.45c-.41.33-.9.5-1.46.5-.51,0-.95-.14-1.32-.42-.41-.3-.63-.73-.67-1.25h.86c.03.32.16.57.38.73.19.14.45.22.77.22.35,0,.65-.11.89-.33.24-.22.36-.51.36-.88,0-.4-.1-.71-.31-.94-.21-.22-.5-.34-.88-.34-.26,0-.47.04-.66.14-.21.1-.36.25-.47.46h-.82l.31-3.2h3.44Z"/>
    <path class="st0" d="M66.59,72.96c.32.29.48.65.48,1.07,0,.3-.06.54-.19.74-.14.22-.36.38-.65.49v.02c.27.06.51.22.7.48.22.27.34.58.34.94,0,.5-.18.91-.55,1.23-.38.31-.9.47-1.58.47s-1.21-.16-1.58-.47c-.37-.32-.55-.73-.55-1.23,0-.36.11-.67.34-.94.19-.26.42-.42.7-.48v-.02c-.29-.11-.5-.27-.65-.49-.13-.2-.19-.45-.19-.74,0-.42.16-.78.48-1.07.35-.32.84-.48,1.45-.48s1.09.16,1.45.48ZM64.2,75.95c-.22.19-.32.44-.32.76,0,.3.1.54.33.72.22.18.53.28.94.28s.72-.1.95-.28c.21-.18.31-.42.31-.72,0-.32-.1-.57-.31-.75-.22-.21-.54-.31-.95-.31s-.74.1-.94.3ZM64.31,73.46c-.18.16-.27.37-.27.61,0,.27.07.49.22.65.18.19.48.29.89.29s.7-.1.89-.29c.14-.16.22-.38.22-.65,0-.24-.1-.45-.27-.61-.21-.19-.49-.28-.84-.28s-.63.09-.84.28Z"/>
    <path class="st0" d="M71.63,72.6v.7l-2.02,5.01h-.93l2.07-4.92h-2.96v-.79h3.84Z"/>
    <path class="st0" d="M75.91,73.33c.34.53.5,1.23.5,2.12s-.17,1.59-.5,2.12c-.37.56-.89.85-1.56.85s-1.19-.29-1.56-.85c-.34-.53-.5-1.23-.5-2.12s.17-1.6.5-2.12c.37-.57.89-.85,1.56-.85s1.19.28,1.56.85ZM73.36,74c-.14.35-.21.84-.21,1.46s.06,1.1.21,1.46c.19.51.52.78.99.78s.8-.26.99-.78c.14-.36.21-.85.21-1.46s-.07-1.1-.21-1.46c-.19-.52-.53-.78-.99-.78s-.8.26-.99.78Z"/>
  </g>
</svg>