<?xml version="1.0" encoding="UTF-8"?>
<svg id="Layer_3" xmlns="http://www.w3.org/2000/svg" version="1.1" viewBox="0 0 269.9 153.07">
  <!-- Generator: Adobe Illustrator 29.4.0, SVG Export Plug-In . SVG Version: 2.1.0 Build 152)  -->
  <defs>
    <style>
      .st0 {
        fill: #3f3f3f;
      }

      .st1 {
        fill: none;
        stroke: #7f7f7f;
        stroke-miterlimit: 10;
        stroke-width: 1.06px;
      }

      .st2 {
        fill: #bfbfbf;
      }

      .st3 {
        fill: #7f7f7f;
      }
    </style>
  </defs>
  <polygon class="st1" points="12.79 -.3 .15 11.01 -.17 152.74 256.98 153.32 269.63 142.01 269.94 .28 12.79 -.3"/>
  <g>
    <path class="st0" d="M23.38,25.37h.09c.47-2.05.99-4.06,1.49-6.14h1.67l-2.3,9.36h-1.79l-2.39-9.36h1.68l1.55,6.14Z"/>
    <path class="st0" d="M27.54,23.8c.08-1.17.86-2.21,2.45-2.21h.83c1.64,0,2.45,1.2,2.45,2.39v4.61h-3.91c-1.23,0-1.89-.97-1.89-2.11s.68-2.02,1.86-2.02h2.35v-.14c0-.66-.13-1.16-1.11-1.16h-.34c-.75,0-.99.21-1.11.65h-1.58ZM29.42,27.17h2.27v-1.4h-2.27c-.23,0-.47.23-.47.7s.24.69.47.69Z"/>
    <path class="st0" d="M34.42,19.23h1.62v9.36h-1.62v-9.36Z"/>
    <path class="st0" d="M37.18,24.08c0-1.34,1.13-2.49,2.26-2.49h1.56c1.43,0,2.25,1.33,2.25,2.43v1.77h-4.46v.37c0,.66.42.9,1.01.9h3.2v1.54h-3.56c-1.24,0-2.27-1.02-2.27-2.4v-2.13ZM38.82,24.5h2.84v-.08c0-.69-.41-1.23-1.01-1.23h-.86c-.58,0-.97.58-.97,1.23v.08Z"/>
    <path class="st0" d="M48.94,21.72h.19v1.71h-.19c-1.33,0-2.94,1.19-2.94,2.24v2.92h-1.71v-7.05h1.71v1.48c.53-.86,1.77-1.3,2.94-1.3Z"/>
    <path class="st0" d="M51.77,20.83h-1.62v-1.61h1.62v1.61ZM51.77,28.59h-1.62v-7h1.62v7Z"/>
    <path class="st0" d="M55.55,30.98h-1.52l.7-2.41-2.12-6.98h1.53l1.34,4.47,1.32-4.47h1.53l-2.78,9.38Z"/>
    <path class="st0" d="M64.38,22.46v6.13h-1.67v-9.36h1.67l3.18,6.18v-6.18h1.64v9.36h-1.64l-3.18-6.13Z"/>
    <path class="st0" d="M73.31,21.59c1.61,0,2.59,1,2.59,2.55v1.88c0,1.55-.98,2.56-2.59,2.56h-.56c-1.6,0-2.57-1.01-2.57-2.56v-1.88c0-1.55.98-2.55,2.57-2.55h.56ZM72.74,23.16c-.57,0-1.01.43-1.01,1.02v1.79c0,.59.44,1.02,1.01,1.02h.56c.58,0,1.01-.43,1.01-1.02v-1.79c0-.59-.43-1.02-1.01-1.02h-.56Z"/>
    <path class="st0" d="M80.16,28.59h-1.54l-2.12-7h1.53l1.34,4.43,1.31-4.43h1.54l-2.06,7Z"/>
    <path class="st0" d="M85.67,30.98h-1.52l.7-2.41-2.12-6.98h1.53l1.34,4.47,1.32-4.47h1.53l-2.78,9.38Z"/>
    <path class="st0" d="M88.85,21.59h1.3v-2.37h1.62v2.37h1.3v1.57h-1.3v5.42h-1.62v-5.42h-1.3v-1.57Z"/>
    <path class="st0" d="M98.69,22.94h-2.73c-.46,0-.66.4-.66.74s.25.68.59.68h1.53c1.29,0,1.94.95,1.94,2.16v.04c0,1.21-.84,2.02-1.94,2.02h-3.32v-1.36h2.86c.42,0,.85-.23.87-.71h0c0-.51-.44-.73-.87-.73h-1.23c-1.64,0-2.01-1.11-2.01-2.16,0-1.12.67-2.11,1.9-2.11h3.07v1.43Z"/>
    <path class="st0" d="M106.18,28.59h-1.82l-2.37-2.66v2.66h-1.62v-9.36h1.62v4.58l2.23-2.21h1.9l-3.37,3.23,3.41,3.76Z"/>
    <path class="st0" d="M109.36,30.98h-1.52l.7-2.41-2.12-6.98h1.53l1.34,4.47,1.32-4.47h1.53l-2.78,9.38Z"/>
    <path class="st0" d="M115.48,30.98h-1.52l.7-2.41-2.12-6.98h1.53l1.34,4.47,1.32-4.47h1.53l-2.78,9.38Z"/>
  </g>
  <g>
    <path class="st3" d="M20.74,60.61l1.04,3.08,1.04-3.08h.92l-1.54,4.13h-.85l-1.54-4.13h.92Z"/>
    <path class="st3" d="M27.47,60.96c.25.26.38.65.38,1.15v2.64h-.78v-.58c-.16.21-.36.38-.6.5-.27.13-.59.2-.96.2-.43,0-.77-.11-1.01-.33-.26-.22-.39-.5-.39-.84,0-.46.18-.82.55-1.07.34-.24.82-.36,1.42-.38l.93-.02v-.17c0-.58-.31-.86-.94-.86-.26,0-.48.05-.64.14-.19.11-.31.28-.36.51l-.84-.07c.09-.45.31-.78.66-.99.3-.19.72-.28,1.23-.28.61,0,1.06.15,1.34.46ZM26.13,62.86c-.78.02-1.16.29-1.16.8,0,.16.06.29.2.39.13.1.3.16.52.16.36,0,.66-.11.92-.33.26-.22.39-.49.39-.81v-.24l-.87.02Z"/>
    <path class="st3" d="M29.76,58.93v5.82h-.85v-5.82h.85Z"/>
    <path class="st3" d="M34.11,61.19c.32.42.49.99.5,1.73h-3.13c.03.4.14.71.33.93.19.21.46.32.79.32.3,0,.54-.07.72-.21.14-.11.26-.3.38-.54h.85c-.1.38-.28.71-.57.97-.36.31-.82.47-1.37.47-.61,0-1.1-.19-1.45-.57-.38-.4-.58-.94-.58-1.62,0-.62.18-1.13.54-1.54.35-.42.84-.63,1.45-.63.67,0,1.19.22,1.54.69ZM31.83,61.48c-.18.18-.3.45-.34.8h2.23c-.08-.72-.46-1.08-1.13-1.08-.32,0-.57.09-.76.28Z"/>
    <path class="st3" d="M37.78,60.61v.85c-.21-.06-.41-.09-.6-.09-.26,0-.49.1-.69.31-.22.22-.32.52-.32.88v2.19h-.85v-4.13h.85v.62c.1-.22.24-.39.4-.5.19-.16.42-.23.67-.23.21,0,.39.03.54.1Z"/>
    <path class="st3" d="M39.32,59.12c.11.1.17.24.17.41s-.06.3-.18.42c-.11.1-.26.16-.42.16-.17,0-.3-.06-.42-.16-.11-.11-.17-.26-.17-.42s.06-.3.17-.41c.11-.11.25-.16.42-.16s.31.05.42.16ZM39.32,60.61v4.13h-.85v-4.13h.85Z"/>
    <path class="st3" d="M40.95,60.61l1.14,3.01,1.09-3.01h.93l-2.25,5.72h-.9l.72-1.68-1.64-4.04h.92Z"/>
    <path class="st3" d="M45.65,63.77c.11.11.18.26.18.43,0,.16-.06.3-.18.42-.12.1-.26.16-.42.16-.18,0-.31-.06-.42-.16-.12-.12-.18-.26-.18-.42,0-.18.06-.32.18-.43.1-.11.24-.17.42-.17.16,0,.3.06.42.17Z"/>
    <path class="st3" d="M50.43,62.2v2.55h-.85v-2.48c0-.7-.33-1.06-.97-1.06-.24,0-.46.08-.63.26-.19.19-.31.46-.34.79v2.49h-.85v-4.13h.85v.51c.16-.21.34-.36.55-.46.21-.11.44-.16.7-.16,1.02,0,1.54.56,1.54,1.69Z"/>
    <path class="st3" d="M54.81,61.13c.37.41.56.93.56,1.56s-.18,1.14-.55,1.54c-.38.42-.89.63-1.51.63s-1.13-.22-1.51-.63c-.37-.4-.55-.92-.55-1.54s.18-1.15.56-1.56c.38-.42.88-.62,1.5-.62s1.13.21,1.5.62ZM52.4,61.66c-.19.26-.28.61-.28,1.02s.09.75.28,1.02c.22.3.52.46.91.46s.7-.16.92-.46c.19-.27.29-.61.29-1.02s-.1-.76-.29-1.02c-.22-.31-.53-.46-.92-.46s-.7.15-.91.46Z"/>
    <path class="st3" d="M56.66,60.61l1.04,3.08,1.04-3.08h.92l-1.54,4.13h-.85l-1.54-4.13h.92Z"/>
    <path class="st3" d="M60.66,60.61l1.14,3.01,1.09-3.01h.93l-2.25,5.72h-.9l.72-1.68-1.64-4.04h.92Z"/>
    <path class="st3" d="M65.59,60.61h.94v.7h-.94v2.4c0,.11.02.19.07.25.05.05.12.08.22.08h.54v.7h-.68c-.35,0-.62-.1-.78-.28-.16-.18-.23-.42-.23-.75v-2.4h-.77v-.7h.77v-.98l.85-.35v1.33Z"/>
    <path class="st3" d="M70.52,61.8h-.82c-.06-.22-.16-.38-.3-.46-.14-.1-.37-.14-.66-.14-.26,0-.45.03-.58.11-.15.08-.22.21-.22.37,0,.14.11.26.34.37.14.06.42.14.83.25.47.11.82.25,1.05.39.33.21.5.5.5.86,0,.87-.62,1.31-1.84,1.31-1.14,0-1.74-.49-1.84-1.45h.83c.05.28.15.48.3.59.14.1.37.16.69.16.66,0,.99-.19.99-.56,0-.2-.13-.36-.37-.47-.13-.06-.41-.14-.83-.24-.49-.11-.83-.23-1.02-.36-.32-.2-.48-.48-.48-.83,0-.38.15-.67.46-.88.31-.22.72-.32,1.21-.32,1.07,0,1.66.43,1.76,1.3Z"/>
    <path class="st3" d="M72.22,58.93v3.39l1.79-1.7h1.1l-1.83,1.7,1.99,2.43h-1.09l-1.49-1.89-.47.44v1.45h-.85v-5.82h.85Z"/>
    <path class="st3" d="M76.23,60.61l1.14,3.01,1.09-3.01h.93l-2.25,5.72h-.9l.72-1.68-1.64-4.04h.92Z"/>
    <path class="st3" d="M85.01,59.69c.43.45.65,1.01.65,1.67,0,.56-.18,1.08-.54,1.56-.36.46-.77.7-1.22.7-.34,0-.53-.17-.58-.5-.24.34-.56.52-.94.52-.35,0-.64-.12-.86-.36-.22-.24-.33-.54-.33-.9,0-.56.18-1.06.53-1.49.34-.44.76-.66,1.24-.66.35,0,.6.18.74.56l.11-.41h.67l-.55,1.98c-.08.27-.11.45-.11.53,0,.11.06.17.18.17.23,0,.46-.15.69-.45.26-.34.4-.76.4-1.25,0-.51-.18-.95-.54-1.3-.4-.38-.94-.58-1.61-.58-.72,0-1.3.23-1.74.7-.44.46-.66,1.04-.66,1.76,0,.79.22,1.39.69,1.81.42.38,1.02.57,1.81.57.53,0,.98-.09,1.36-.26.34-.17.62-.4.82-.69h.71c-.28.5-.69.88-1.23,1.14-.5.22-1.06.34-1.66.34-1.01,0-1.8-.26-2.37-.79-.57-.53-.85-1.25-.85-2.14,0-.83.27-1.54.83-2.1.59-.61,1.37-.9,2.33-.9.86,0,1.54.26,2.03.77ZM82.28,61.35c-.24.31-.35.66-.35,1.06,0,.19.04.34.13.46.08.11.22.17.39.17.16,0,.32-.06.48-.19.18-.14.29-.3.35-.51l.16-.59c.06-.22.1-.37.1-.42,0-.13-.05-.22-.13-.3-.09-.1-.19-.14-.31-.14-.31,0-.58.15-.82.46Z"/>
    <path class="st3" d="M90.29,59.77c.34.53.5,1.23.5,2.12s-.17,1.59-.5,2.12c-.37.56-.89.85-1.56.85s-1.19-.29-1.56-.85c-.34-.53-.5-1.23-.5-2.12s.17-1.6.5-2.12c.37-.57.89-.85,1.56-.85s1.19.28,1.56.85ZM87.74,60.44c-.14.35-.21.84-.21,1.46s.06,1.1.21,1.46c.19.51.52.78.99.78s.8-.26.99-.78c.14-.36.21-.85.21-1.46s-.07-1.1-.21-1.46c-.19-.52-.53-.78-.99-.78s-.8.26-.99.78Z"/>
    <path class="st3" d="M93.64,59.04v5.71h-.87v-4.66c-.34.33-.78.57-1.31.72v-.86c.26-.06.52-.18.81-.34.29-.18.53-.36.72-.57h.66Z"/>
    <path class="st3" d="M95.72,58.93v2.3c.34-.49.75-.73,1.26-.73.59,0,1.05.22,1.4.65.31.4.47.9.47,1.51s-.16,1.15-.48,1.55c-.35.43-.82.65-1.43.65-.57,0-.99-.21-1.28-.61v.5h-.79v-5.82h.85ZM96.03,61.57c-.22.27-.33.63-.33,1.08v.07c0,.42.09.75.26,1.02.2.29.49.44.86.44.42,0,.72-.15.92-.45.16-.26.25-.61.25-1.06s-.09-.81-.26-1.05c-.2-.29-.51-.42-.93-.42-.32,0-.58.12-.77.38Z"/>
    <path class="st3" d="M100.68,59.12c.11.1.17.24.17.41s-.06.3-.18.42c-.11.1-.26.16-.42.16s-.3-.06-.42-.16c-.11-.11-.17-.26-.17-.42s.06-.3.17-.41c.11-.11.25-.16.42-.16s.31.05.42.16ZM100.68,60.61v4.13h-.85v-4.13h.85Z"/>
    <path class="st3" d="M105.47,62.2v2.55h-.85v-2.48c0-.7-.33-1.06-.97-1.06-.24,0-.46.08-.63.26-.19.19-.31.46-.34.79v2.49h-.85v-4.13h.85v.51c.16-.21.34-.36.55-.46.21-.11.44-.16.7-.16,1.02,0,1.54.56,1.54,1.69Z"/>
    <path class="st3" d="M109.64,60.96c.25.26.38.65.38,1.15v2.64h-.78v-.58c-.16.21-.36.38-.6.5-.27.13-.59.2-.96.2-.43,0-.77-.11-1.01-.33-.26-.22-.39-.5-.39-.84,0-.46.18-.82.55-1.07.34-.24.82-.36,1.42-.38l.93-.02v-.17c0-.58-.31-.86-.94-.86-.26,0-.48.05-.64.14-.19.11-.31.28-.36.51l-.84-.07c.09-.45.31-.78.66-.99.3-.19.72-.28,1.23-.28.61,0,1.06.15,1.34.46ZM108.31,62.86c-.78.02-1.16.29-1.16.8,0,.16.06.29.2.39.13.1.3.16.52.16.36,0,.66-.11.92-.33.26-.22.39-.49.39-.81v-.24l-.87.02Z"/>
    <path class="st3" d="M113.44,60.61v.85c-.21-.06-.41-.09-.6-.09-.26,0-.49.1-.69.31-.22.22-.32.52-.32.88v2.19h-.85v-4.13h.85v.62c.1-.22.24-.39.4-.5.19-.16.42-.23.67-.23.21,0,.39.03.54.1Z"/>
    <path class="st3" d="M114.44,60.61l1.14,3.01,1.09-3.01h.93l-2.25,5.72h-.9l.72-1.68-1.64-4.04h.92Z"/>
    <path class="st3" d="M119.15,63.77c.11.11.18.26.18.43,0,.16-.06.3-.18.42-.12.1-.26.16-.42.16-.18,0-.31-.06-.42-.16-.12-.12-.18-.26-.18-.42,0-.18.06-.32.18-.43.1-.11.24-.17.42-.17.16,0,.3.06.42.17Z"/>
    <path class="st3" d="M121.14,60.61v2.52c0,.35.07.61.22.77.14.16.38.25.71.25.22,0,.42-.1.62-.27.19-.18.33-.43.4-.74v-2.53h.85v4.13h-.85v-.56c-.35.45-.78.67-1.3.67-1,0-1.5-.56-1.5-1.67v-2.57h.85Z"/>
    <path class="st3" d="M128.21,61.8h-.82c-.06-.22-.16-.38-.3-.46-.14-.1-.37-.14-.66-.14-.26,0-.45.03-.58.11-.15.08-.22.21-.22.37,0,.14.11.26.34.37.14.06.42.14.83.25.47.11.82.25,1.05.39.33.21.5.5.5.86,0,.87-.62,1.31-1.84,1.31-1.14,0-1.74-.49-1.84-1.45h.83c.05.28.15.48.3.59.14.1.37.16.69.16.66,0,.99-.19.99-.56,0-.2-.13-.36-.37-.47-.13-.06-.41-.14-.83-.24-.49-.11-.83-.23-1.02-.36-.32-.2-.48-.48-.48-.83,0-.38.15-.67.46-.88.31-.22.72-.32,1.21-.32,1.07,0,1.66.43,1.76,1.3Z"/>
  </g>
  <g>
    <path class="st3" d="M22.08,71.69c-.34.54-.59,1.1-.77,1.66-.24.69-.35,1.38-.35,2.08s.11,1.38.35,2.08c.18.55.43,1.1.77,1.66h-.71c-.38-.53-.66-1.07-.86-1.63-.25-.68-.37-1.38-.37-2.1s.12-1.43.37-2.1c.2-.58.49-1.12.86-1.64h.71Z"/>
    <path class="st3" d="M26.37,73.24c.35.49.54,1.17.54,2.05,0,.93-.19,1.68-.57,2.25-.39.58-.91.87-1.57.87-1.11,0-1.73-.52-1.88-1.55h.85c.11.55.46.83,1.04.83.39,0,.7-.2.94-.58.22-.37.34-.83.34-1.38,0-.03,0-.06,0-.1h-.03c-.16.25-.37.43-.61.56-.23.11-.5.18-.79.18-.56,0-1.02-.18-1.35-.54-.33-.35-.49-.81-.49-1.37s.18-1.04.57-1.41c.38-.38.86-.56,1.42-.56.7,0,1.22.25,1.59.76ZM23.96,73.56c-.22.23-.32.53-.32.9s.1.66.32.87c.2.22.48.34.84.34s.64-.11.85-.34c.21-.22.31-.53.31-.9s-.11-.67-.32-.89c-.22-.22-.5-.34-.83-.34s-.64.11-.85.35Z"/>
    <path class="st3" d="M31.33,72.6v.7l-2.02,5.01h-.93l2.07-4.92h-2.96v-.79h3.84Z"/>
    <path class="st3" d="M34.16,72.6v5.71h-.87v-4.66c-.34.33-.78.57-1.31.72v-.86c.26-.06.52-.18.81-.34.29-.18.53-.36.72-.57h.66Z"/>
    <path class="st3" d="M35.99,71.69c.37.52.66,1.06.86,1.64.24.67.37,1.38.37,2.1s-.13,1.42-.37,2.1c-.21.56-.5,1.1-.86,1.63h-.71c.33-.55.58-1.1.77-1.66.23-.7.35-1.39.35-2.08s-.12-1.39-.35-2.08c-.18-.56-.44-1.11-.77-1.66h.71Z"/>
    <path class="st3" d="M44.02,72.6v3.77h.86v.7h-.86v1.24h-.83v-1.24h-2.78v-.82l2.81-3.65h.8ZM41.12,76.37h2.07v-2.67h-.02l-2.05,2.67Z"/>
    <path class="st3" d="M48.88,72.96c.34.32.52.73.52,1.23s-.19.94-.56,1.35c-.22.23-.62.54-1.18.92-.62.41-.98.77-1.1,1.08h2.85v.77h-3.93c0-.57.18-1.06.57-1.5.21-.25.64-.59,1.29-1.04.38-.27.66-.49.82-.66.26-.29.39-.6.39-.94s-.09-.56-.26-.72c-.18-.16-.44-.24-.78-.24-.36,0-.63.12-.82.37-.19.24-.29.58-.3,1.05h-.87c0-.64.19-1.15.55-1.54.37-.42.86-.62,1.47-.62.54,0,1,.15,1.35.47Z"/>
    <path class="st3" d="M52.35,72.6v5.71h-.87v-4.66c-.34.33-.78.57-1.31.72v-.86c.26-.06.52-.18.81-.34.29-.18.53-.36.72-.57h.66Z"/>
    <path class="st3" d="M57.55,75.88v.7h-4.04v-.7h4.04Z"/>
    <path class="st3" d="M62.14,72.6v.77h-2.73l-.17,1.65h.02c.18-.18.38-.31.61-.39.21-.09.45-.13.7-.13.54,0,.98.18,1.31.53.34.35.51.83.51,1.45s-.22,1.07-.66,1.45c-.41.33-.9.5-1.46.5-.51,0-.95-.14-1.32-.42-.41-.3-.63-.73-.67-1.25h.86c.03.32.16.57.38.73.19.14.45.22.77.22.35,0,.65-.11.89-.33.24-.22.36-.51.36-.88,0-.4-.1-.71-.31-.94-.21-.22-.5-.34-.88-.34-.26,0-.47.04-.66.14-.21.1-.36.25-.47.46h-.82l.31-3.2h3.44Z"/>
    <path class="st3" d="M66.59,72.96c.32.29.48.65.48,1.07,0,.3-.06.54-.19.74-.14.22-.36.38-.65.49v.02c.27.06.51.22.7.48.22.27.34.58.34.94,0,.5-.18.91-.55,1.23-.38.31-.9.47-1.58.47s-1.21-.16-1.58-.47c-.37-.32-.55-.73-.55-1.23,0-.36.11-.67.34-.94.19-.26.42-.42.7-.48v-.02c-.29-.11-.5-.27-.65-.49-.13-.2-.19-.45-.19-.74,0-.42.16-.78.48-1.07.35-.32.84-.48,1.45-.48s1.09.16,1.45.48ZM64.2,75.95c-.22.19-.32.44-.32.76,0,.3.1.54.33.72.22.18.53.28.94.28s.72-.1.95-.28c.21-.18.31-.42.31-.72,0-.32-.1-.57-.31-.75-.22-.21-.54-.31-.95-.31s-.74.1-.94.3ZM64.31,73.46c-.18.16-.27.37-.27.61,0,.27.07.49.22.65.18.19.48.29.89.29s.7-.1.89-.29c.14-.16.22-.38.22-.65,0-.24-.1-.45-.27-.61-.21-.19-.49-.28-.84-.28s-.63.09-.84.28Z"/>
    <path class="st3" d="M71.63,72.6v.7l-2.02,5.01h-.93l2.07-4.92h-2.96v-.79h3.84Z"/>
    <path class="st3" d="M75.91,73.33c.34.53.5,1.23.5,2.12s-.17,1.59-.5,2.12c-.37.56-.89.85-1.56.85s-1.19-.29-1.56-.85c-.34-.53-.5-1.23-.5-2.12s.17-1.6.5-2.12c.37-.57.89-.85,1.56-.85s1.19.28,1.56.85ZM73.36,74c-.14.35-.21.84-.21,1.46s.06,1.1.21,1.46c.19.51.52.78.99.78s.8-.26.99-.78c.14-.36.21-.85.21-1.46s-.07-1.1-.21-1.46c-.19-.52-.53-.78-.99-.78s-.8.26-.99.78Z"/>
  </g>
  <ellipse class="st2" cx="155.54" cy="136.69" rx="1.25" ry="1.38"/>
  <ellipse class="st2" cx="174.28" cy="136.69" rx="1.25" ry="1.38"/>
  <ellipse class="st2" cx="193.03" cy="136.69" rx="1.25" ry="1.38"/>
  <ellipse class="st2" cx="211.77" cy="136.69" rx="1.25" ry="1.38"/>
  <ellipse class="st2" cx="155.54" cy="115.86" rx="1.25" ry="1.38"/>
  <ellipse class="st2" cx="174.28" cy="115.86" rx="1.25" ry="1.38"/>
  <ellipse class="st2" cx="193.03" cy="115.86" rx="1.25" ry="1.38"/>
  <ellipse class="st2" cx="211.77" cy="115.86" rx="1.25" ry="1.38"/>
  <ellipse class="st2" cx="155.54" cy="95.03" rx="1.25" ry="1.38"/>
  <ellipse class="st2" cx="174.28" cy="95.03" rx="1.25" ry="1.38"/>
  <ellipse class="st2" cx="193.03" cy="95.03" rx="1.25" ry="1.38"/>
  <ellipse class="st2" cx="211.77" cy="95.03" rx="1.25" ry="1.38"/>
  <ellipse class="st2" cx="155.54" cy="74.2" rx="1.25" ry="1.38"/>
  <ellipse class="st2" cx="174.28" cy="74.2" rx="1.25" ry="1.38"/>
  <ellipse class="st2" cx="193.03" cy="74.2" rx="1.25" ry="1.38"/>
  <ellipse class="st2" cx="211.77" cy="74.2" rx="1.25" ry="1.38"/>
  <ellipse class="st2" cx="155.54" cy="53.37" rx="1.25" ry="1.38"/>
  <ellipse class="st2" cx="174.28" cy="53.37" rx="1.25" ry="1.38"/>
  <ellipse class="st2" cx="193.03" cy="53.37" rx="1.25" ry="1.38"/>
  <ellipse class="st2" cx="211.77" cy="53.37" rx="1.25" ry="1.38"/>
  <ellipse class="st2" cx="230.52" cy="53.37" rx="1.25" ry="1.38"/>
  <polygon class="st2" points="220.14 109.86 223.75 109.86 243.4 124.74 223.75 139.61 220.14 139.61 220.14 109.86"/>
  <polygon class="st2" points="220.14 73.12 223.75 73.12 243.4 87.99 223.75 102.86 220.14 102.86 220.14 73.12"/>
  <polygon class="st2" points="250.51 91.49 246.9 91.49 227.25 106.36 246.9 121.24 250.51 121.24 250.51 91.49"/>
  <polygon class="st2" points="250.51 54.75 246.9 54.75 227.25 69.62 246.9 84.49 250.51 84.49 250.51 54.75"/>
  <polygon class="st2" points="43.6 96.96 48.84 101.53 25.02 108.41 19.78 103.84 43.6 96.96"/>
  <polyline class="st2" points="25.02 137.21 25.02 108.41 19.78 103.84 19.78 132.65 25.02 137.21"/>
  <polygon class="st2" points="58.86 132.49 58.93 98.63 53.7 94.05 53.63 127.91 58.86 132.49"/>
  <polyline class="st0" points="29.64 141.2 29.64 135.88 25.02 137.21 29.64 141.2"/>
  <polygon class="st3" points="25.02 108.41 25.02 137.21 29.64 135.88 29.64 141.2 48.84 135.66 48.84 130.33 48.84 101.53 25.02 108.41"/>
  <polygon class="st2" points="35.03 129.66 39.65 128.33 35.03 124.34 35.03 129.66"/>
  <polygon class="st0" points="35.03 115.54 35.03 124.34 39.65 128.33 39.65 119.54 39.65 114.21 35.03 115.54"/>
  <polyline class="st3" points="68.53 95.85 68.47 129.72 58.86 132.49 58.93 98.63"/>
  <polygon class="st2" points="58.93 98.63 53.7 94.05 63.3 91.28 68.53 95.85 58.93 98.63"/>
  <g>
    <path class="st0" d="M78.95,114.44c0-.45.34-.77.79-.77s.78.32.78.77-.33.78-.79.78-.78-.32-.78-.78ZM81.64,110.23c0-.44.33-.79.8-.79s.77.35.77.79c0,.46-.31.79-.78.79s-.79-.33-.79-.79ZM84.07,114.44c0-.45.34-.77.8-.77.43,0,.79.32.79.77s-.36.78-.79.78c-.46,0-.8-.32-.8-.78Z"/>
    <path class="st0" d="M90.21,110.26h1.3v-2.37h1.62v2.37h1.3v1.57h-1.3v5.42h-1.62v-5.42h-1.3v-1.57Z"/>
    <path class="st0" d="M95.08,112.74c0-1.34,1.13-2.49,2.26-2.49h1.56c1.43,0,2.26,1.33,2.26,2.43v1.77h-4.46v.37c0,.66.42.9,1.01.9h3.2v1.54h-3.56c-1.24,0-2.27-1.02-2.27-2.4v-2.13ZM96.72,113.16h2.84v-.08c0-.69-.41-1.23-1.01-1.23h-.86c-.58,0-.97.58-.97,1.23v.08Z"/>
    <path class="st0" d="M105.93,115.07h1.63c-.15,1.33-1.06,2.18-2.5,2.18h-.56c-1.6,0-2.59-1.01-2.59-2.56v-1.88c0-1.55.99-2.55,2.59-2.55h.56c1.47,0,2.38.85,2.51,2.21h-1.63c-.1-.4-.42-.64-.88-.64h-.56c-.58,0-1.01.43-1.01,1.02v1.79c0,.59.43,1.02,1.01,1.02h.56c.44,0,.77-.22.87-.59Z"/>
    <path class="st0" d="M111.09,111.82c-.97,0-1.16.5-1.16,1.16v4.28h-1.54v-9.36h1.54v2.51c.26-.09.57-.14.91-.14h.82c1.63,0,2.45,1.2,2.45,2.39v4.61h-1.55v-4.28c0-.66-.19-1.16-1.14-1.16h-.34Z"/>
    <path class="st0" d="M118.52,112.47c.08-1.17.86-2.21,2.45-2.21h.83c1.64,0,2.45,1.2,2.45,2.39v4.61h-3.91c-1.23,0-1.89-.97-1.89-2.11s.68-2.02,1.86-2.02h2.35v-.14c0-.66-.13-1.16-1.11-1.16h-.34c-.75,0-.99.21-1.11.65h-1.58ZM120.4,115.83h2.27v-1.4h-2.27c-.23,0-.47.23-.47.7s.24.69.47.69Z"/>
    <path class="st0" d="M130.01,110.39h.19v1.71h-.19c-1.33,0-2.94,1.19-2.94,2.24v2.92h-1.71v-7.05h1.71v1.48c.53-.86,1.77-1.3,2.94-1.3Z"/>
    <path class="st0" d="M130.85,110.26h1.3v-2.37h1.62v2.37h1.3v1.57h-1.3v5.42h-1.62v-5.42h-1.3v-1.57Z"/>
  </g>
  <g>
    <path class="st0" d="M22.23,48.23c-1.31,0-2.11-.83-2.11-2.1v-1.54c0-1.27.8-2.09,2.11-2.09h.46c.31,0,.59.04.85.13v-2.07h1.27v7.66h-2.57ZM23.53,46.94v-2.3c0-.49-.37-.84-.85-.84h-.46c-.48,0-.86.35-.86.84v1.47c0,.49.39.84.86.84h1.31Z"/>
    <path class="st0" d="M25.5,44.54c0-1.1.93-2.03,1.85-2.03h1.28c1.17,0,1.85,1.09,1.85,1.99v1.45h-3.65v.31c0,.54.34.74.83.74h2.62v1.26h-2.92c-1.02,0-1.85-.84-1.85-1.96v-1.75ZM26.84,44.89h2.32v-.06c0-.57-.33-1.01-.83-1.01h-.7c-.48,0-.79.48-.79,1.01v.06Z"/>
    <path class="st0" d="M35.25,43.62h-2.23c-.38,0-.54.32-.54.6s.21.56.49.56h1.25c1.05,0,1.58.77,1.58,1.76v.04c0,.99-.68,1.66-1.58,1.66h-2.72v-1.12h2.34c.34,0,.69-.19.71-.59h0c0-.41-.36-.59-.71-.59h-1.01c-1.34,0-1.65-.91-1.65-1.76,0-.92.55-1.73,1.56-1.73h2.51v1.17Z"/>
    <path class="st0" d="M37.98,41.89h-1.32v-1.31h1.32v1.31ZM37.98,48.23h-1.32v-5.73h1.32v5.73Z"/>
    <path class="st0" d="M43.56,42.51v5.73c0,1.22-.75,1.94-1.83,1.94h-2.57v-1.25h2.37c.45,0,.81-.3.81-.8v-.07h-1.67c-1.01,0-1.83-.71-1.83-2.03v-1.49c0-1.31.82-2.03,1.83-2.03h2.9ZM42.33,43.76h-1.39c-.45,0-.82.41-.82.91v1.22c0,.5.37.92.82.92h1.39v-3.04Z"/>
    <path class="st0" d="M46.76,43.79c-.79,0-.95.41-.95.95v3.5h-1.32v-5.73h1.32v.14c.24-.09.53-.14.84-.14h.59c1.33,0,2.03.98,2.03,1.95v3.77h-1.32v-3.5c0-.54-.13-.95-.92-.95h-.27Z"/>
    <path class="st0" d="M49.98,44.54c0-1.1.93-2.03,1.85-2.03h1.28c1.17,0,1.85,1.09,1.85,1.99v1.45h-3.65v.31c0,.54.34.74.83.74h2.62v1.26h-2.92c-1.02,0-1.85-.84-1.85-1.96v-1.75ZM51.33,44.89h2.32v-.06c0-.57-.33-1.01-.83-1.01h-.7c-.48,0-.79.48-.79,1.01v.06Z"/>
    <path class="st0" d="M59.61,42.62h.15v1.4h-.15c-1.09,0-2.4.97-2.4,1.84v2.39h-1.4v-5.77h1.4v1.22c.43-.7,1.45-1.06,2.4-1.06Z"/>
    <path class="st0" d="M67.22,40.32l-2.74,8.17h-1.3l2.75-8.17h1.28Z"/>
    <path class="st0" d="M70.67,44.54c0-1.1.93-2.03,1.85-2.03h1.28c1.17,0,1.85,1.09,1.85,1.99v1.45h-3.65v.31c0,.54.34.74.83.74h2.62v1.26h-2.92c-1.02,0-1.85-.84-1.85-1.96v-1.75ZM72.01,44.89h2.32v-.06c0-.57-.33-1.01-.83-1.01h-.7c-.48,0-.79.48-.79,1.01v.06Z"/>
    <path class="st0" d="M78.82,43.79c-.79,0-.95.41-.95.95v3.5h-1.32v-5.73h1.32v.14c.24-.09.53-.14.84-.14h.58c1.33,0,2.04.98,2.04,1.95v3.77h-1.32v-3.5c0-.54-.13-.95-.92-.95h-.27Z"/>
    <path class="st0" d="M86.77,42.51v5.73c0,1.22-.75,1.94-1.83,1.94h-2.57v-1.25h2.37c.45,0,.81-.3.81-.8v-.07h-1.67c-1.01,0-1.83-.71-1.83-2.03v-1.49c0-1.31.82-2.03,1.83-2.03h2.9ZM85.53,43.76h-1.39c-.45,0-.82.41-.82.91v1.22c0,.5.37.92.82.92h1.39v-3.04Z"/>
    <path class="st0" d="M88.96,41.89h-1.32v-1.31h1.32v1.31ZM88.96,48.23h-1.32v-5.73h1.32v5.73Z"/>
    <path class="st0" d="M92.28,43.79c-.79,0-.95.41-.95.95v3.5h-1.32v-5.73h1.32v.14c.24-.09.53-.14.84-.14h.58c1.33,0,2.04.98,2.04,1.95v3.77h-1.32v-3.5c0-.54-.13-.95-.92-.95h-.27Z"/>
    <path class="st0" d="M95.5,44.54c0-1.1.93-2.03,1.85-2.03h1.28c1.17,0,1.85,1.09,1.85,1.99v1.45h-3.65v.31c0,.54.34.74.83.74h2.62v1.26h-2.92c-1.02,0-1.85-.84-1.85-1.96v-1.75ZM96.85,44.89h2.32v-.06c0-.57-.33-1.01-.83-1.01h-.7c-.48,0-.79.48-.79,1.01v.06Z"/>
    <path class="st0" d="M101.19,44.54c0-1.1.93-2.03,1.85-2.03h1.28c1.17,0,1.85,1.09,1.85,1.99v1.45h-3.65v.31c0,.54.34.74.83.74h2.62v1.26h-2.92c-1.02,0-1.85-.84-1.85-1.96v-1.75ZM102.53,44.89h2.32v-.06c0-.57-.33-1.01-.83-1.01h-.7c-.48,0-.79.48-.79,1.01v.06Z"/>
    <path class="st0" d="M110.81,42.62h.15v1.4h-.15c-1.09,0-2.4.97-2.4,1.84v2.39h-1.4v-5.77h1.4v1.22c.43-.7,1.45-1.06,2.4-1.06Z"/>
  </g>
</svg>