<?xml version="1.0" encoding="UTF-8"?>
<svg xmlns="http://www.w3.org/2000/svg" version="1.1" viewBox="0 0 269.9 153.07">
  <!-- Generator: Adobe Illustrator 29.4.0, SVG Export Plug-In . SVG Version: 2.1.0 Build 152)  -->
  <defs>
    <style>
      .st0 {
        fill: #3f3f3f;
      }

      .st1 {
        fill: none;
        stroke: #7f7f7f;
        stroke-miterlimit: 10;
        stroke-width: 1.06px;
      }

      .st2 {
        fill: #bfbfbf;
      }

      .st3 {
        fill: #7f7f7f;
      }
    </style>
  </defs>
  <g id="Layer_2">
    <polygon class="st2" points="20.73 113.12 12.88 120.96 12.88 136.66 20.73 144.51 28.57 136.66 28.57 120.96 20.73 113.12"/>
    <polygon class="st2" points="40.35 113.12 32.5 120.96 32.5 136.66 40.35 144.51 48.19 136.66 48.19 120.96 40.35 113.12"/>
    <polygon class="st2" points="59.96 113.12 52.12 120.96 52.12 136.66 59.96 144.51 67.81 136.66 67.81 120.96 59.96 113.12"/>
    <polygon class="st2" points="79.58 113.12 71.74 120.96 71.74 136.66 79.58 144.51 87.43 136.66 87.43 120.96 79.58 113.12"/>
    <polygon class="st2" points="99.2 113.12 91.35 120.96 91.35 136.66 99.2 144.51 107.05 136.66 107.05 120.96 99.2 113.12"/>
    <polygon class="st2" points="118.82 113.12 110.97 120.96 110.97 136.66 118.82 144.51 126.67 136.66 126.67 120.96 118.82 113.12"/>
    <polygon class="st2" points="138.44 113.12 130.59 120.96 130.59 136.66 138.44 144.51 146.29 136.66 146.29 120.96 138.44 113.12"/>
    <polygon class="st2" points="158.06 113.12 150.21 120.96 150.21 136.66 158.06 144.51 165.9 136.66 165.9 120.96 158.06 113.12"/>
    <polygon points="30.96 86.41 23.12 94.26 23.12 109.96 30.96 117.8 38.81 109.96 38.81 94.26 30.96 86.41"/>
    <polygon points="50.15 86.41 42.31 94.26 42.31 109.96 50.15 117.8 58 109.96 58 94.26 50.15 86.41"/>
    <polygon points="89.61 86.41 81.76 94.26 81.76 109.96 89.61 117.8 97.45 109.96 97.45 94.26 89.61 86.41"/>
    <polygon points="108.8 86.41 100.95 94.26 100.95 109.96 108.8 117.8 116.64 109.96 116.64 94.26 108.8 86.41"/>
    <polygon points="128.63 86.41 120.78 94.26 120.78 109.96 128.63 117.8 136.48 109.96 136.48 94.26 128.63 86.41"/>
    <g>
      <path class="st0" d="M119.44,23.69c1.41,0,2.56,1.14,2.56,2.56v4.29c0,1.42-1.16,2.56-2.56,2.56h-1.4c-1.41,0-2.55-1.14-2.55-2.56v-4.29c0-1.42,1.14-2.56,2.55-2.56h1.4ZM120.41,26.54c0-.65-.52-1.18-1.16-1.18h-1.02c-.64,0-1.16.53-1.16,1.18v3.72c0,.65.52,1.18,1.16,1.18h1.02c.64,0,1.16-.53,1.16-1.18v-3.72Z"/>
      <path class="st0" d="M123.19,25.45l1.08-1.71h1.85v9.36h-1.6v-7.66h-1.33Z"/>
      <path class="st0" d="M134.33,26.11c1.59,0,2.58,1,2.58,2.55v1.88c0,1.55-.99,2.56-2.58,2.56h-.56c-1.59,0-2.57-1.01-2.57-2.56v-6.8h1.62v2.54c.32-.11.68-.18,1.08-.18h.44ZM133.77,27.68c-.57,0-.95.41-.96.98v1.84c0,.59.37,1.02.96,1.02h.56c.58,0,.99-.43.99-1.02v-1.79c0-.59-.41-1.02-.99-1.02h-.56Z"/>
      <path class="st0" d="M139.62,25.35h-1.62v-1.61h1.62v1.61ZM139.62,33.11h-1.62v-7h1.62v7Z"/>
      <path class="st0" d="M143.68,27.67c-.97,0-1.16.5-1.16,1.16v4.28h-1.62v-7h1.62v.18c.3-.11.65-.18,1.02-.18h.72c1.63,0,2.49,1.2,2.49,2.39v4.61h-1.62v-4.28c0-.66-.15-1.16-1.12-1.16h-.33Z"/>
      <path class="st0" d="M147.6,28.32c.08-1.17.86-2.21,2.45-2.21h.83c1.64,0,2.45,1.2,2.45,2.39v4.61h-3.91c-1.23,0-1.89-.97-1.89-2.11s.68-2.02,1.86-2.02h2.35v-.14c0-.66-.13-1.16-1.11-1.16h-.34c-.75,0-.99.21-1.11.65h-1.58ZM149.48,31.69h2.27v-1.4h-2.27c-.23,0-.47.23-.47.7s.24.69.47.69Z"/>
      <path class="st0" d="M159.08,26.24h.19v1.71h-.19c-1.33,0-2.94,1.19-2.94,2.24v2.92h-1.71v-7.05h1.71v1.48c.53-.86,1.77-1.3,2.94-1.3Z"/>
      <path class="st0" d="M162.86,35.5h-1.52l.7-2.41-2.12-6.98h1.53l1.34,4.47,1.32-4.47h1.53l-2.78,9.38Z"/>
      <path class="st0" d="M170.08,30.29c0-.45.34-.77.79-.77s.78.32.78.77-.33.78-.79.78-.78-.32-.78-.78ZM172.76,26.09c0-.44.33-.79.8-.79s.77.35.77.79c0,.46-.31.79-.78.79s-.79-.33-.79-.79ZM175.2,30.29c0-.45.34-.77.8-.77.43,0,.79.32.79.77s-.36.78-.79.78c-.46,0-.8-.32-.8-.78Z"/>
      <path class="st0" d="M181.33,26.11h1.3v-2.37h1.62v2.37h1.3v1.57h-1.3v5.42h-1.62v-5.42h-1.3v-1.57Z"/>
      <path class="st0" d="M186.21,28.6c0-1.34,1.13-2.49,2.25-2.49h1.56c1.43,0,2.25,1.33,2.25,2.43v1.77h-4.46v.37c0,.66.42.9,1.01.9h3.2v1.54h-3.56c-1.24,0-2.27-1.02-2.27-2.4v-2.13ZM187.84,29.02h2.84v-.08c0-.69-.41-1.23-1.01-1.23h-.86c-.58,0-.97.58-.97,1.23v.08Z"/>
      <path class="st0" d="M197.05,30.93h1.63c-.15,1.33-1.06,2.18-2.5,2.18h-.56c-1.59,0-2.58-1.01-2.58-2.56v-1.88c0-1.55.99-2.55,2.58-2.55h.56c1.47,0,2.38.85,2.51,2.21h-1.63c-.1-.4-.42-.64-.88-.64h-.56c-.58,0-1.01.43-1.01,1.02v1.79c0,.59.43,1.02,1.01,1.02h.56c.44,0,.77-.22.87-.59Z"/>
      <path class="st0" d="M202.21,27.67c-.97,0-1.15.5-1.15,1.16v4.28h-1.54v-9.36h1.54v2.51c.26-.09.57-.14.91-.14h.83c1.63,0,2.45,1.2,2.45,2.39v4.61h-1.55v-4.28c0-.66-.19-1.16-1.14-1.16h-.34Z"/>
      <path class="st0" d="M209.65,28.32c.08-1.17.86-2.21,2.45-2.21h.83c1.64,0,2.45,1.2,2.45,2.39v4.61h-3.91c-1.23,0-1.89-.97-1.89-2.11s.68-2.02,1.86-2.02h2.35v-.14c0-.66-.13-1.16-1.11-1.16h-.34c-.75,0-.99.21-1.11.65h-1.58ZM211.53,31.69h2.27v-1.4h-2.27c-.23,0-.47.23-.47.7s.24.69.47.69Z"/>
      <path class="st0" d="M221.13,26.24h.19v1.71h-.19c-1.33,0-2.94,1.19-2.94,2.24v2.92h-1.71v-7.05h1.71v1.48c.53-.86,1.77-1.3,2.94-1.3Z"/>
      <path class="st0" d="M221.98,26.11h1.3v-2.37h1.62v2.37h1.3v1.57h-1.3v5.42h-1.62v-5.42h-1.3v-1.57Z"/>
    </g>
    <g>
      <path class="st3" d="M116.67,41.09c.13.12.19.27.19.46s-.07.34-.2.47c-.13.12-.29.18-.47.18s-.34-.06-.47-.18c-.13-.13-.19-.29-.19-.47s.06-.34.19-.46c.13-.13.28-.18.47-.18s.35.05.48.18ZM116.67,42.77v4.65h-.95v-4.65h.95Z"/>
      <path class="st3" d="M122.06,44.56v2.87h-.95v-2.79c0-.79-.37-1.19-1.09-1.19-.27,0-.51.09-.71.29-.22.22-.35.51-.39.89v2.8h-.95v-4.65h.95v.58c.18-.23.39-.41.62-.52.23-.13.5-.18.78-.18,1.15,0,1.74.63,1.74,1.91Z"/>
      <path class="st3" d="M127.45,40.87v6.55h-.89v-.56c-.32.45-.81.68-1.44.68-.68,0-1.22-.24-1.61-.73-.36-.45-.54-1.04-.54-1.75s.17-1.25.53-1.7c.38-.49.91-.73,1.58-.73.57,0,1.04.27,1.42.82v-2.59h.95ZM124.24,43.9c-.2.27-.3.67-.3,1.18s.09.91.28,1.2c.22.33.57.5,1.04.5.41,0,.73-.17.96-.5.2-.3.3-.67.3-1.14v-.08c0-.5-.13-.91-.36-1.22-.23-.29-.52-.42-.87-.42-.47,0-.82.15-1.04.48Z"/>
      <path class="st3" d="M129.48,42.77v2.84c0,.4.08.68.25.86.16.18.43.28.8.28.25,0,.48-.11.69-.31.22-.21.37-.49.45-.83v-2.84h.96v4.65h-.96v-.63c-.4.5-.88.76-1.47.76-1.13,0-1.68-.63-1.68-1.88v-2.9h.95Z"/>
      <path class="st3" d="M137.44,44.12h-.93c-.07-.25-.18-.42-.33-.52-.16-.11-.41-.16-.74-.16-.29,0-.5.04-.65.13-.17.09-.25.23-.25.41,0,.16.13.3.38.41.16.07.47.16.94.28.53.13.93.28,1.18.44.37.23.56.56.56.97,0,.98-.69,1.48-2.07,1.48-1.28,0-1.96-.55-2.07-1.63h.94c.05.31.17.54.33.67.16.12.41.18.77.18.74,0,1.12-.22,1.12-.63,0-.23-.14-.4-.41-.53-.14-.07-.46-.16-.94-.27-.55-.13-.94-.26-1.15-.4-.36-.23-.54-.54-.54-.94,0-.42.17-.76.52-.99.35-.24.81-.36,1.37-.36,1.21,0,1.87.49,1.98,1.47Z"/>
      <path class="st3" d="M139.81,42.77h1.06v.79h-1.06v2.7c0,.13.03.22.08.28.05.05.13.09.25.09h.61v.79h-.77c-.4,0-.69-.11-.87-.31-.18-.2-.26-.48-.26-.85v-2.7h-.86v-.79h.86v-1.11l.95-.4v1.5Z"/>
      <path class="st3" d="M144.4,42.76v.95c-.23-.07-.46-.1-.67-.1-.29,0-.55.12-.77.35-.24.25-.36.58-.36.99v2.47h-.95v-4.65h.95v.7c.12-.25.27-.44.45-.57.22-.18.47-.26.76-.26.23,0,.44.04.6.12Z"/>
      <path class="st3" d="M146.14,41.09c.13.12.19.27.19.46s-.07.34-.2.47c-.13.12-.29.18-.47.18-.19,0-.34-.06-.47-.18-.13-.13-.19-.29-.19-.47s.06-.34.19-.46c.13-.13.28-.18.47-.18s.35.05.48.18ZM146.14,42.77v4.65h-.95v-4.65h.95Z"/>
      <path class="st3" d="M151.04,43.16c.28.3.42.73.42,1.3v2.97h-.88v-.66c-.18.23-.41.42-.67.56-.31.14-.67.23-1.08.23-.49,0-.86-.13-1.13-.37-.3-.24-.44-.56-.44-.95,0-.52.21-.93.62-1.21.38-.27.92-.41,1.6-.42l1.04-.03v-.19c0-.65-.35-.97-1.05-.97-.3,0-.54.05-.72.16-.22.13-.35.31-.41.58l-.95-.08c.1-.5.35-.88.75-1.12.34-.22.81-.31,1.39-.31.68,0,1.19.17,1.51.51ZM149.53,45.3c-.87.02-1.31.32-1.31.9,0,.18.07.32.23.44.14.12.34.18.58.18.41,0,.75-.13,1.04-.37s.44-.55.44-.91v-.27l-.98.03Z"/>
      <path class="st3" d="M153.61,40.87v6.55h-.95v-6.55h.95Z"/>
      <path class="st3" d="M162.1,40.87v6.55h-.89v-.56c-.32.45-.81.68-1.44.68-.68,0-1.22-.24-1.61-.73-.36-.45-.54-1.04-.54-1.75s.17-1.25.53-1.7c.38-.49.91-.73,1.58-.73.57,0,1.04.27,1.42.82v-2.59h.95ZM158.89,43.9c-.2.27-.3.67-.3,1.18s.09.91.28,1.2c.22.33.57.5,1.04.5.41,0,.73-.17.96-.5.2-.3.3-.67.3-1.14v-.08c0-.5-.13-.91-.36-1.22-.23-.29-.52-.42-.87-.42-.47,0-.82.15-1.04.48Z"/>
      <path class="st3" d="M166.89,43.42c.36.47.55,1.12.56,1.94h-3.53c.04.45.15.8.37,1.04.22.23.51.36.89.36.33,0,.6-.08.81-.23.16-.13.3-.33.42-.6h.95c-.11.43-.32.8-.64,1.09-.41.35-.92.53-1.54.53-.68,0-1.23-.22-1.63-.64-.43-.45-.65-1.05-.65-1.82,0-.69.2-1.27.61-1.74.4-.48.95-.71,1.63-.71.76,0,1.34.25,1.74.77ZM164.32,43.75c-.2.21-.33.5-.39.9h2.51c-.09-.81-.51-1.22-1.27-1.22-.36,0-.64.1-.86.31Z"/>
      <path class="st3" d="M171.97,44.12h-.93c-.07-.25-.18-.42-.33-.52-.16-.11-.41-.16-.74-.16-.29,0-.5.04-.65.13-.17.09-.25.23-.25.41,0,.16.13.3.38.41.16.07.47.16.94.28.53.13.93.28,1.18.44.37.23.56.56.56.97,0,.98-.69,1.48-2.07,1.48-1.28,0-1.96-.55-2.07-1.63h.94c.05.31.17.54.33.67.16.12.41.18.77.18.74,0,1.12-.22,1.12-.63,0-.23-.14-.4-.41-.53-.14-.07-.46-.16-.94-.27-.55-.13-.94-.26-1.15-.4-.36-.23-.54-.54-.54-.94,0-.42.17-.76.52-.99.35-.24.81-.36,1.37-.36,1.21,0,1.87.49,1.98,1.47Z"/>
      <path class="st3" d="M174.08,41.09c.13.12.19.27.19.46s-.07.34-.2.47c-.13.12-.29.18-.47.18-.19,0-.34-.06-.47-.18-.13-.13-.19-.29-.19-.47s.06-.34.19-.46c.13-.13.28-.18.47-.18s.35.05.48.18ZM174.08,42.77v4.65h-.95v-4.65h.95Z"/>
      <path class="st3" d="M178.73,43.39v-.62h.95v4.35c0,1.48-.73,2.21-2.17,2.21-.65,0-1.14-.13-1.49-.37-.34-.25-.55-.63-.64-1.14h.95c.05.27.16.47.34.59.17.11.45.17.83.17.81,0,1.22-.44,1.22-1.31v-.72c-.34.51-.81.77-1.42.77s-1.14-.22-1.53-.64c-.4-.42-.58-.98-.58-1.68s.19-1.26.58-1.69c.39-.44.9-.66,1.53-.66s1.08.24,1.42.75ZM176.52,43.85c-.23.27-.34.66-.34,1.15,0,.45.09.81.27,1.07.21.31.54.47,1.01.47.41,0,.72-.14.95-.41.22-.28.33-.66.33-1.13s-.12-.87-.33-1.15c-.23-.29-.55-.42-.95-.42s-.72.14-.94.42Z"/>
      <path class="st3" d="M184.86,44.56v2.87h-.96v-2.79c0-.79-.37-1.19-1.09-1.19-.27,0-.51.09-.71.29-.22.22-.35.51-.39.89v2.8h-.95v-4.65h.95v.58c.18-.23.39-.41.62-.52.23-.13.5-.18.78-.18,1.15,0,1.74.63,1.74,1.91Z"/>
      <path class="st3" d="M191.13,43.71c.14.13.21.28.21.48,0,.18-.07.34-.21.48-.13.13-.29.21-.48.21-.2,0-.35-.07-.48-.21-.14-.14-.21-.3-.21-.48,0-.2.06-.35.21-.48.13-.14.28-.21.48-.21s.35.06.48.21Z"/>
      <path class="st3" d="M199.2,42.76v.95c-.23-.07-.46-.1-.67-.1-.29,0-.55.12-.77.35-.24.25-.36.58-.36.99v2.47h-.95v-4.65h.95v.7c.12-.25.27-.44.45-.57.22-.18.47-.26.76-.26.23,0,.44.04.6.12Z"/>
      <path class="st3" d="M203.62,43.35c.41.46.63,1.04.63,1.76s-.21,1.29-.62,1.74c-.43.47-1,.71-1.7.71s-1.27-.24-1.7-.71c-.41-.45-.62-1.04-.62-1.74s.21-1.3.63-1.76c.42-.47.99-.7,1.69-.7s1.27.23,1.69.7ZM200.9,43.95c-.22.3-.31.68-.31,1.15s.1.85.31,1.14c.24.34.58.52,1.03.52s.78-.18,1.04-.52c.22-.31.32-.68.32-1.14s-.11-.85-.32-1.15c-.25-.35-.59-.52-1.04-.52s-.78.17-1.03.52Z"/>
      <path class="st3" d="M206.11,40.87v2.59c.38-.55.85-.82,1.42-.82.67,0,1.19.24,1.58.73.35.45.53,1.02.53,1.7s-.18,1.3-.54,1.75c-.4.49-.93.73-1.61.73-.64,0-1.12-.23-1.44-.68v.56h-.89v-6.55h.95ZM206.46,43.85c-.25.31-.37.71-.37,1.22v.08c0,.47.1.85.3,1.14.22.32.55.5.96.5.47,0,.81-.17,1.04-.5.18-.29.28-.68.28-1.2s-.1-.91-.3-1.18c-.22-.32-.58-.48-1.04-.48-.36,0-.65.14-.86.42Z"/>
      <path class="st3" d="M214.38,43.35c.41.46.63,1.04.63,1.76s-.21,1.29-.62,1.74c-.43.47-1,.71-1.7.71s-1.27-.24-1.7-.71c-.41-.45-.62-1.04-.62-1.74s.21-1.3.63-1.76c.42-.47.99-.7,1.69-.7s1.27.23,1.69.7ZM211.66,43.95c-.22.3-.31.68-.31,1.15s.1.85.31,1.14c.24.34.58.52,1.03.52s.78-.18,1.04-.52c.22-.31.32-.68.32-1.14s-.11-.85-.32-1.15c-.25-.35-.59-.52-1.04-.52s-.78.17-1.03.52Z"/>
      <path class="st3" d="M217.33,42.77h1.06v.79h-1.06v2.7c0,.13.03.22.08.28.05.05.14.09.25.09h.61v.79h-.76c-.4,0-.69-.11-.87-.31-.18-.2-.26-.48-.26-.85v-2.7h-.86v-.79h.86v-1.11l.95-.4v1.5Z"/>
      <path class="st3" d="M220.31,41.09c.13.12.19.27.19.46s-.07.34-.2.47c-.13.12-.29.18-.47.18-.19,0-.34-.06-.47-.18-.13-.13-.19-.29-.19-.47s.06-.34.19-.46c.13-.13.28-.18.47-.18s.35.05.48.18ZM220.31,42.77v4.65h-.95v-4.65h.95Z"/>
      <path class="st3" d="M225.1,43.05c.36.29.59.72.68,1.3h-.95c-.06-.31-.19-.55-.39-.69-.2-.15-.46-.23-.78-.23-.4,0-.7.14-.93.44-.23.29-.34.7-.34,1.22s.11.94.33,1.23c.21.29.51.44.93.44.71,0,1.11-.36,1.2-1.06h.95c-.11.62-.35,1.09-.71,1.4-.36.3-.85.45-1.44.45-.71,0-1.26-.23-1.66-.7-.39-.45-.58-1.03-.58-1.75s.19-1.28.57-1.73c.4-.49.96-.73,1.68-.73.59,0,1.07.13,1.43.4Z"/>
      <path class="st3" d="M230.33,44.12h-.93c-.07-.25-.18-.42-.33-.52-.16-.11-.41-.16-.74-.16-.29,0-.5.04-.65.13-.17.09-.25.23-.25.41,0,.16.13.3.38.41.16.07.47.16.94.28.53.13.93.28,1.18.44.37.23.56.56.56.97,0,.98-.69,1.48-2.07,1.48-1.28,0-1.96-.55-2.07-1.63h.94c.05.31.17.54.33.67.16.12.41.18.77.18.74,0,1.12-.22,1.12-.63,0-.23-.14-.4-.41-.53-.14-.07-.46-.16-.94-.27-.55-.13-.94-.26-1.15-.4-.36-.23-.54-.54-.54-.94,0-.42.17-.76.52-.99.35-.24.81-.36,1.37-.36,1.21,0,1.87.49,1.98,1.47Z"/>
    </g>
    <polygon class="st1" points="12.79 -.3 .15 11.01 -.17 152.74 256.98 153.32 269.63 142.01 269.94 .28 12.79 -.3"/>
    <path class="st2" d="M101.18,25.49l-11.79,31.08h-3.14l11.82-31.08h3.11Z"/>
    <g>
      <path d="M116.67,55.12c.13.12.19.27.19.46s-.07.34-.2.47c-.13.12-.29.18-.47.18s-.34-.06-.47-.18c-.13-.13-.19-.29-.19-.47s.06-.34.19-.46c.13-.13.28-.18.47-.18s.35.05.48.18ZM116.67,56.81v4.65h-.95v-4.65h.95Z"/>
      <path d="M122.06,58.59v2.87h-.95v-2.79c0-.79-.37-1.19-1.09-1.19-.27,0-.51.09-.71.29-.22.22-.35.51-.39.89v2.8h-.95v-4.65h.95v.58c.18-.23.39-.41.62-.52.23-.13.5-.18.78-.18,1.15,0,1.74.63,1.74,1.91Z"/>
      <path d="M126.86,58.15h-.93c-.07-.25-.18-.42-.33-.52-.16-.11-.41-.16-.74-.16-.29,0-.5.04-.65.13-.17.09-.25.23-.25.41,0,.16.13.3.38.41.16.07.47.16.94.28.53.13.93.28,1.18.44.37.23.56.56.56.97,0,.98-.69,1.48-2.07,1.48-1.28,0-1.96-.55-2.07-1.63h.94c.05.31.17.54.33.67.16.12.41.18.77.18.74,0,1.12-.22,1.12-.63,0-.22-.14-.4-.41-.53-.14-.07-.46-.16-.94-.27-.55-.13-.94-.26-1.15-.41-.36-.23-.54-.54-.54-.94,0-.42.17-.76.52-.99.35-.24.81-.36,1.37-.36,1.21,0,1.87.49,1.98,1.47Z"/>
      <path d="M129.24,56.81h1.06v.79h-1.06v2.7c0,.13.03.22.08.28.05.05.13.09.25.09h.61v.79h-.76c-.4,0-.69-.11-.87-.31-.18-.2-.26-.48-.26-.85v-2.7h-.86v-.79h.86v-1.11l.95-.4v1.5Z"/>
      <path d="M134.68,57.19c.28.3.42.73.42,1.3v2.97h-.88v-.66c-.18.23-.41.42-.67.56-.31.14-.67.23-1.08.23-.49,0-.86-.13-1.13-.37-.3-.24-.44-.56-.44-.95,0-.52.21-.93.62-1.21.38-.27.92-.41,1.6-.42l1.04-.03v-.19c0-.65-.35-.97-1.05-.97-.3,0-.54.05-.72.16-.22.13-.35.32-.41.58l-.95-.08c.1-.5.35-.88.75-1.12.34-.22.81-.31,1.39-.31.68,0,1.19.17,1.51.51ZM133.17,59.34c-.87.02-1.31.32-1.31.9,0,.18.07.32.22.44.14.12.34.18.59.18.4,0,.75-.13,1.04-.37s.44-.55.44-.91v-.27l-.98.03Z"/>
      <path d="M139.54,57.43v-.62h.95v4.35c0,1.48-.73,2.21-2.17,2.21-.65,0-1.14-.13-1.49-.37-.34-.25-.55-.63-.64-1.14h.95c.05.27.16.47.34.59.17.11.45.17.83.17.81,0,1.22-.44,1.22-1.31v-.72c-.34.51-.81.77-1.42.77s-1.14-.22-1.53-.64c-.4-.42-.58-.98-.58-1.68s.19-1.26.58-1.69c.39-.44.9-.66,1.53-.66s1.08.24,1.42.75ZM137.33,57.88c-.23.27-.34.66-.34,1.15,0,.45.09.81.27,1.07.21.31.54.47,1.01.47.41,0,.72-.14.95-.41.22-.28.33-.66.33-1.13s-.12-.87-.33-1.15c-.23-.29-.55-.42-.95-.42s-.72.14-.94.42Z"/>
      <path d="M144.34,56.8v.95c-.23-.07-.46-.1-.67-.1-.29,0-.55.12-.77.35-.24.25-.36.58-.36.99v2.47h-.95v-4.65h.95v.7c.12-.25.27-.44.45-.57.22-.18.47-.26.76-.26.23,0,.44.04.6.12Z"/>
      <path d="M148.54,57.19c.28.3.42.73.42,1.3v2.97h-.88v-.66c-.18.23-.41.42-.67.56-.31.14-.67.23-1.08.23-.49,0-.86-.13-1.13-.37-.3-.24-.44-.56-.44-.95,0-.52.21-.93.62-1.21.38-.27.92-.41,1.6-.42l1.04-.03v-.19c0-.65-.35-.97-1.05-.97-.3,0-.54.05-.72.16-.22.13-.35.32-.41.58l-.95-.08c.1-.5.35-.88.75-1.12.34-.22.81-.31,1.39-.31.68,0,1.19.17,1.51.51ZM147.03,59.34c-.87.02-1.31.32-1.31.9,0,.18.07.32.22.44.14.12.34.18.59.18.4,0,.75-.13,1.04-.37s.44-.55.44-.91v-.27l-.98.03Z"/>
      <path d="M153.75,57.46c.21-.29.43-.5.67-.61.22-.12.48-.17.79-.17.48,0,.87.15,1.19.48.31.31.47.73.47,1.25v3.05h-.95v-2.89c0-.38-.08-.66-.24-.83-.16-.18-.43-.26-.79-.26-.27,0-.49.1-.67.3-.18.2-.27.48-.27.82v2.86h-.96v-2.88c0-.74-.32-1.1-.95-1.1-.31,0-.56.12-.74.35-.2.23-.29.5-.29.83v2.8h-.95v-4.65h.95v.51c.38-.43.81-.64,1.28-.64.68,0,1.18.26,1.47.78Z"/>
      <path d="M159.1,60.36c.13.13.2.29.2.49,0,.18-.07.34-.2.48-.13.12-.3.18-.48.18-.2,0-.35-.06-.47-.18-.13-.13-.2-.3-.2-.48,0-.2.06-.36.2-.49.12-.13.27-.19.47-.19.18,0,.34.06.48.19Z"/>
      <path d="M163.89,57.09c.36.29.59.72.68,1.3h-.95c-.06-.31-.19-.55-.39-.69-.2-.15-.46-.23-.78-.23-.4,0-.7.14-.93.44-.23.29-.34.7-.34,1.22s.11.94.33,1.23c.21.29.51.44.93.44.71,0,1.11-.36,1.2-1.06h.95c-.11.62-.35,1.09-.71,1.4-.36.3-.85.45-1.44.45-.71,0-1.26-.23-1.66-.7-.39-.45-.58-1.03-.58-1.75s.19-1.28.57-1.73c.4-.49.96-.73,1.68-.73.59,0,1.07.13,1.43.4Z"/>
      <path d="M169.24,57.38c.41.46.63,1.04.63,1.76s-.21,1.29-.62,1.74c-.43.47-1,.71-1.7.71s-1.27-.24-1.7-.71c-.41-.45-.62-1.04-.62-1.74s.21-1.3.63-1.76c.42-.47.99-.7,1.69-.7s1.27.23,1.69.7ZM166.53,57.99c-.22.3-.31.68-.31,1.15s.1.85.31,1.14c.24.34.58.52,1.03.52s.78-.18,1.04-.52c.22-.31.32-.68.32-1.14s-.11-.85-.32-1.15c-.25-.35-.59-.52-1.04-.52s-.78.17-1.03.52Z"/>
      <path d="M174.48,57.46c.21-.29.43-.5.67-.61.22-.12.48-.17.79-.17.48,0,.87.15,1.19.48.31.31.47.73.47,1.25v3.05h-.95v-2.89c0-.38-.08-.66-.24-.83-.16-.18-.43-.26-.79-.26-.27,0-.49.1-.67.3-.18.2-.27.48-.27.82v2.86h-.96v-2.88c0-.74-.32-1.1-.95-1.1-.31,0-.56.12-.74.35-.2.23-.29.5-.29.83v2.8h-.95v-4.65h.95v.51c.38-.43.81-.64,1.28-.64.68,0,1.18.26,1.47.78Z"/>
      <path d="M182.38,54.08l-3.14,8.28h-.84l3.15-8.28h.83Z"/>
      <path d="M187.09,55.86c.38.59.57,1.39.57,2.39s-.19,1.79-.57,2.39c-.41.63-1,.95-1.75.95s-1.34-.32-1.76-.95c-.38-.59-.57-1.39-.57-2.39s.19-1.8.57-2.39c.41-.64,1-.95,1.76-.95s1.34.32,1.75.95ZM184.22,56.61c-.16.4-.23.95-.23,1.64s.07,1.23.23,1.64c.22.58.58.87,1.12.87s.9-.3,1.12-.87c.15-.4.23-.95.23-1.64s-.08-1.24-.23-1.64c-.22-.58-.59-.87-1.12-.87s-.9.29-1.12.87Z"/>
      <path d="M190.86,55.03v6.43h-.98v-5.25c-.39.37-.88.64-1.48.81v-.97c.29-.07.58-.2.91-.38.32-.2.59-.41.81-.64h.74Z"/>
      <path d="M193.2,54.91v2.59c.38-.55.85-.82,1.42-.82.67,0,1.19.24,1.58.73.35.45.53,1.02.53,1.7s-.18,1.3-.54,1.75c-.4.49-.93.73-1.61.73-.64,0-1.12-.23-1.44-.68v.56h-.89v-6.55h.95ZM193.54,57.88c-.25.31-.37.71-.37,1.22v.08c0,.47.1.85.3,1.14.22.32.55.5.96.5.47,0,.81-.17,1.04-.5.18-.29.28-.68.28-1.2s-.1-.91-.3-1.18c-.22-.32-.58-.48-1.04-.48-.36,0-.65.14-.86.42Z"/>
      <path d="M198.78,55.12c.13.12.19.27.19.46s-.07.34-.2.47c-.13.12-.29.18-.47.18-.19,0-.34-.06-.47-.18-.13-.13-.19-.29-.19-.47s.06-.34.19-.46c.13-.13.28-.18.47-.18s.35.05.48.18ZM198.78,56.81v4.65h-.95v-4.65h.95Z"/>
      <path d="M204.17,58.59v2.87h-.96v-2.79c0-.79-.37-1.19-1.09-1.19-.27,0-.51.09-.71.29-.22.22-.35.51-.39.89v2.8h-.95v-4.65h.95v.58c.18-.23.39-.41.62-.52.23-.13.5-.18.78-.18,1.15,0,1.74.63,1.74,1.91Z"/>
      <path d="M208.86,57.19c.28.3.42.73.42,1.3v2.97h-.88v-.66c-.18.23-.41.42-.68.56-.31.14-.67.23-1.08.23-.49,0-.86-.13-1.13-.37-.3-.24-.44-.56-.44-.95,0-.52.21-.93.62-1.21.38-.27.92-.41,1.6-.42l1.04-.03v-.19c0-.65-.35-.97-1.05-.97-.3,0-.54.05-.72.16-.22.13-.35.32-.41.58l-.95-.08c.1-.5.35-.88.75-1.12.34-.22.81-.31,1.39-.31.68,0,1.19.17,1.51.51ZM207.36,59.34c-.87.02-1.3.32-1.3.9,0,.18.07.32.22.44.14.12.34.18.58.18.41,0,.75-.13,1.04-.37s.44-.55.44-.91v-.27l-.98.03Z"/>
      <path d="M213.14,56.8v.95c-.23-.07-.46-.1-.67-.1-.29,0-.55.12-.77.35-.24.25-.36.58-.36.99v2.47h-.95v-4.65h.95v.7c.12-.25.27-.44.45-.57.22-.18.47-.26.76-.26.23,0,.44.04.6.12Z"/>
      <path d="M214.26,56.81l1.28,3.39,1.22-3.39h1.04l-2.53,6.44h-1.02l.81-1.89-1.85-4.55h1.04Z"/>
      <path d="M219.35,56.81v2.84c0,.4.08.68.25.86.16.18.43.28.8.28.25,0,.48-.11.69-.31.22-.21.37-.49.45-.83v-2.84h.95v4.65h-.95v-.63c-.4.5-.88.76-1.47.76-1.12,0-1.68-.63-1.68-1.88v-2.9h.95Z"/>
      <path d="M227.3,58.15h-.93c-.07-.25-.18-.42-.33-.52-.16-.11-.41-.16-.74-.16-.29,0-.5.04-.65.13-.17.09-.25.23-.25.41,0,.16.13.3.38.41.16.07.47.16.94.28.53.13.93.28,1.18.44.37.23.56.56.56.97,0,.98-.69,1.48-2.07,1.48-1.28,0-1.96-.55-2.07-1.63h.94c.05.31.17.54.33.67.16.12.41.18.77.18.74,0,1.12-.22,1.12-.63,0-.22-.14-.4-.41-.53-.14-.07-.46-.16-.94-.27-.55-.13-.94-.26-1.15-.41-.36-.23-.54-.54-.54-.94,0-.42.17-.76.52-.99.35-.24.81-.36,1.37-.36,1.21,0,1.87.49,1.98,1.47Z"/>
      <path d="M231.97,54.08l-3.14,8.28h-.84l3.15-8.28h.83Z"/>
    </g>
  </g>
  <g id="Layer_3">
    <polygon class="st2" points="43.19 23.19 48.61 27.91 23.98 35.03 18.55 30.3 43.19 23.19"/>
    <polyline class="st2" points="23.98 64.82 23.98 35.03 18.55 30.3 18.55 60.1 23.98 64.82"/>
    <polygon class="st2" points="58.98 59.94 59.05 24.91 53.63 20.18 53.57 55.2 58.98 59.94"/>
    <polyline class="st0" points="28.75 68.95 28.75 63.44 23.98 64.82 28.75 68.95"/>
    <polygon class="st3" points="23.98 35.03 23.98 64.82 28.75 63.44 28.75 68.95 48.61 63.21 48.61 57.71 48.61 27.91 23.98 35.03"/>
    <polygon class="st2" points="34.33 57.01 39.1 55.63 34.33 51.5 34.33 57.01"/>
    <polygon class="st0" points="34.33 42.41 34.33 51.5 39.1 55.63 39.1 46.54 39.1 41.03 34.33 42.41"/>
    <polyline class="st3" points="68.98 22.04 68.91 57.07 58.98 59.94 59.05 24.91"/>
    <polygon class="st2" points="59.05 24.91 53.63 20.18 63.57 17.31 68.98 22.04 59.05 24.91"/>
  </g>
</svg>