<?xml version="1.0" encoding="UTF-8" standalone="no"?>
<!DOCTYPE svg PUBLIC "-//W3C//DTD SVG 1.1//EN" "http://www.w3.org/Graphics/SVG/1.1/DTD/svg11.dtd">
<svg width="100%" height="100%" viewBox="0 0 49 50" version="1.1" xmlns="http://www.w3.org/2000/svg" xmlns:xlink="http://www.w3.org/1999/xlink" xml:space="preserve" xmlns:serif="http://www.serif.com/" style="fill-rule:evenodd;clip-rule:evenodd;stroke-linejoin:round;stroke-miterlimit:2;">
    <g transform="matrix(0.754187,0.656659,0.656659,-0.754187,25.2894,13.1901)">
        <path d="M-6.04,4.691L0.912,4.691L-12.532,-16.136L-19.484,-16.134L-6.04,4.691Z" style="fill:rgb(128,232,246);fill-rule:nonzero;"/>
    </g>
    <g transform="matrix(0,-1,-1,0,19.307,26.6278)">
        <path d="M-19.307,14.064L9.498,14.064L14.064,19.307L-14.742,19.307L-19.307,14.064Z" style="fill:rgb(128,232,246);fill-rule:nonzero;"/>
    </g>
    <g transform="matrix(0.00191944,-0.999998,-0.999998,-0.00191944,55.7249,19.4474)">
        <path d="M-21.799,16.6L12.065,16.6L16.632,21.842L-17.232,21.841L-21.799,16.6Z" style="fill:rgb(128,232,246);fill-rule:nonzero;"/>
    </g>
    <g transform="matrix(1,0,0,1,9.8569,44.6025)">
        <path d="M0,5.323L0,0L-4.614,1.332L0,5.323Z" style="fill:rgb(9,93,109);fill-rule:nonzero;"/>
    </g>
    <g transform="matrix(1,0,0,1,5.243,43.0476)">
        <path d="M0,-25.918L0,2.887L4.614,1.555L4.614,6.878L23.814,1.332L23.814,-32.796L0,-25.918Z" style="fill:rgb(18,192,225);fill-rule:nonzero;"/>
    </g>
    <g transform="matrix(1,0,0,1,15.2542,33.0598)">
        <path d="M0,5.323L4.614,3.99L0,0L0,5.323Z" style="fill:rgb(128,232,246);fill-rule:nonzero;"/>
    </g>
    <g transform="matrix(1,0,0,1,15.2542,35.7173)">
        <path d="M0,-11.45L0,-2.658L4.614,1.333L4.614,-12.783L0,-11.45Z" style="fill:rgb(9,93,109);fill-rule:nonzero;"/>
    </g>
    <g transform="matrix(1,0,0,1,48.7519,41.2141)">
        <path d="M0,-36.637L-0.065,-2.773L-9.669,0L-9.604,-33.863" style="fill:rgb(18,192,225);fill-rule:nonzero;"/>
    </g>
    <g transform="matrix(-0.752648,-0.658423,-0.658423,0.752648,45.3989,2.34846)">
        <path d="M1.411,7.881L8.363,7.881L2.961,-0.53L-3.991,-0.53L1.411,7.881Z" style="fill:rgb(128,232,246);fill-rule:nonzero;"/>
    </g>
</svg>
