<?xml version="1.0" encoding="UTF-8"?>
<svg id="Layer_3" xmlns="http://www.w3.org/2000/svg" version="1.1" viewBox="0 0 269.9 153.07">
  <!-- Generator: Adobe Illustrator 29.4.0, SVG Export Plug-In . SVG Version: 2.1.0 Build 152)  -->
  <defs>
    <style>
      .st0 {
        fill: #7f7f7f;
      }
    </style>
  </defs>
  <path class="st0" d="M23.74,59.77c.34.53.5,1.23.5,2.12s-.17,1.59-.5,2.12c-.37.56-.89.85-1.56.85s-1.19-.29-1.56-.85c-.34-.53-.5-1.23-.5-2.12s.17-1.6.5-2.12c.37-.57.89-.85,1.56-.85s1.19.28,1.56.85ZM21.19,60.44c-.14.35-.21.84-.21,1.46s.06,1.1.21,1.46c.19.51.52.78.99.78s.8-.26.99-.78c.14-.36.21-.85.21-1.46s-.07-1.1-.21-1.46c-.19-.52-.53-.78-.99-.78s-.8.26-.99.78Z"/>
  <path class="st0" d="M27.09,59.04v5.71h-.87v-4.66c-.34.33-.78.57-1.31.72v-.86c.26-.06.52-.18.81-.34.29-.18.53-.36.72-.57h.66Z"/>
  <path class="st0" d="M29.17,58.93v2.3c.34-.49.75-.73,1.26-.73.59,0,1.06.22,1.4.65.31.4.47.9.47,1.51s-.16,1.15-.48,1.55c-.35.43-.82.65-1.43.65-.57,0-.99-.21-1.28-.61v.5h-.79v-5.82h.85ZM29.48,61.57c-.22.27-.33.63-.33,1.08v.07c0,.42.09.75.26,1.02.2.29.49.44.86.44.42,0,.72-.15.92-.45.16-.26.25-.61.25-1.06s-.09-.81-.26-1.05c-.2-.29-.51-.42-.93-.42-.32,0-.58.12-.77.38Z"/>
  <path class="st0" d="M34.13,59.12c.11.1.17.24.17.41s-.06.3-.18.42c-.11.1-.26.16-.42.16-.17,0-.3-.06-.42-.16-.11-.11-.17-.26-.17-.42s.06-.3.17-.41c.11-.11.25-.16.42-.16s.31.05.42.16ZM34.13,60.61v4.13h-.85v-4.13h.85Z"/>
  <path class="st0" d="M38.91,62.2v2.55h-.85v-2.48c0-.7-.33-1.06-.97-1.06-.24,0-.46.08-.63.26-.19.19-.31.46-.34.79v2.49h-.85v-4.13h.85v.51c.16-.21.34-.36.55-.46.21-.11.44-.16.7-.16,1.02,0,1.54.56,1.54,1.69Z"/>
  <path class="st0" d="M43.09,60.96c.25.26.38.65.38,1.15v2.64h-.78v-.58c-.16.21-.36.38-.6.5-.27.13-.59.2-.96.2-.43,0-.77-.11-1.01-.33-.26-.22-.39-.5-.39-.84,0-.46.18-.82.55-1.07.34-.24.82-.36,1.42-.38l.93-.02v-.17c0-.58-.31-.86-.94-.86-.26,0-.48.05-.64.14-.19.11-.31.28-.36.51l-.84-.07c.09-.45.31-.78.66-.99.3-.19.72-.28,1.23-.28.61,0,1.06.15,1.34.46ZM41.75,62.86c-.78.02-1.16.29-1.16.8,0,.16.06.29.2.39.13.1.3.16.52.16.36,0,.66-.11.92-.33.26-.22.39-.49.39-.81v-.24l-.87.02Z"/>
  <path class="st0" d="M46.89,60.61v.85c-.21-.06-.41-.09-.6-.09-.26,0-.49.1-.69.31-.22.22-.32.52-.32.88v2.19h-.85v-4.13h.85v.62c.1-.22.24-.39.4-.5.19-.16.42-.23.67-.23.21,0,.39.03.54.1Z"/>
  <path class="st0" d="M47.89,60.61l1.14,3.01,1.09-3.01h.93l-2.25,5.72h-.9l.72-1.68-1.64-4.04h.92Z"/>
  <path class="st0" d="M52.6,63.77c.11.11.18.26.18.43,0,.16-.06.3-.18.42-.12.1-.26.16-.42.16-.18,0-.31-.06-.42-.16-.12-.12-.18-.26-.18-.42,0-.18.06-.32.18-.43.1-.11.24-.17.42-.17.16,0,.3.06.42.17Z"/>
  <path class="st0" d="M54.59,60.61v2.52c0,.35.07.61.22.77.14.16.38.25.71.25.22,0,.42-.1.62-.27.19-.18.33-.43.4-.74v-2.53h.85v4.13h-.85v-.56c-.35.45-.78.67-1.3.67-1,0-1.5-.56-1.5-1.67v-2.57h.85Z"/>
  <path class="st0" d="M61.66,61.8h-.82c-.06-.22-.16-.38-.3-.46-.14-.1-.37-.14-.66-.14-.26,0-.45.03-.58.11-.15.08-.22.21-.22.37,0,.14.11.26.34.37.14.06.42.14.83.25.47.11.82.25,1.05.39.33.21.5.5.5.86,0,.87-.62,1.31-1.84,1.31-1.14,0-1.74-.49-1.84-1.45h.83c.05.28.15.48.3.59.14.1.37.16.69.16.66,0,.99-.19.99-.56,0-.2-.13-.36-.37-.47-.13-.06-.41-.14-.83-.24-.49-.11-.83-.23-1.02-.36-.32-.2-.48-.48-.48-.83,0-.38.15-.67.46-.88.31-.22.72-.32,1.21-.32,1.07,0,1.66.43,1.76,1.3Z"/>
</svg>