M48
; DRILL file {KiCad 9.0.6} date 2026-07-01T13:04:32-0700
; FORMAT={-:-/ absolute / inch / decimal}
; #@! TF.CreationDate,2026-07-01T13:04:32-07:00
; #@! TF.GenerationSoftware,Kicad,Pcbnew,9.0.6
; #@! TF.FileFunction,Plated,1,2,PTH
FMAT,2
INCH
; #@! TA.AperFunction,Plated,PTH,ViaDrill
T1C0.0118
%
G90
G05
T1
X4.7441Y-3.1299
X4.7638Y-3.7598
X4.9213Y-4.4094
X5.2953Y-3.0118
X5.5315Y-4.4094
X5.8268Y-3.0118
X6.3386Y-3.0118
X6.3386Y-3.248
X6.5335Y-4.3642
X6.5551Y-3.0709
X6.5748Y-3.8189
X6.5748Y-4.311
X6.5748Y-4.4646
X6.6083Y-3.6358
X6.6142Y-3.563
X6.6142Y-4.2441
X6.6142Y-4.4685
X6.6732Y-3.3268
X6.752Y-3.0709
X6.7638Y-4.439
X6.7717Y-3.1949
X6.811Y-4.1142
X6.8346Y-4.2894
X6.8346Y-4.3661
X6.8622Y-3.4252
X6.8898Y-3.9567
X6.9488Y-4.311
X6.9882Y-3.6024
X6.9882Y-3.7402
X7.0059Y-3.2283
X7.0276Y-4.3153
X7.063Y-3.3898
X7.0669Y-3.189
X7.0669Y-3.7402
X7.0886Y-3.2283
X7.1457Y-3.2882
X7.1641Y-3.3255
X7.1654Y-3.1102
X7.185Y-3.1496
X7.185Y-3.3858
X7.1852Y-3.2086
X7.2067Y-4.2992
X7.2244Y-3.0118
X7.3504Y-3.5846
X7.3976Y-3.5354
X7.4409Y-4.0748
M30
