%TF.GenerationSoftware,KiCad,Pcbnew,9.0.6*%
%TF.CreationDate,2026-07-01T13:04:32-07:00*%
%TF.ProjectId,BusinessCardUpdatedSchematic_BEU,42757369-6e65-4737-9343-617264557064,rev?*%
%TF.SameCoordinates,Original*%
%TF.FileFunction,Copper,L2,Bot*%
%TF.FilePolarity,Positive*%
%FSLAX46Y46*%
G04 Gerber Fmt 4.6, Leading zero omitted, Abs format (unit mm)*
G04 Created by KiCad (PCBNEW 9.0.6) date 2026-07-01 13:04:32*
%MOMM*%
%LPD*%
G01*
G04 APERTURE LIST*
G04 Aperture macros list*
%AMRoundRect*
0 Rectangle with rounded corners*
0 $1 Rounding radius*
0 $2 $3 $4 $5 $6 $7 $8 $9 X,Y pos of 4 corners*
0 Add a 4 corners polygon primitive as box body*
4,1,4,$2,$3,$4,$5,$6,$7,$8,$9,$2,$3,0*
0 Add four circle primitives for the rounded corners*
1,1,$1+$1,$2,$3*
1,1,$1+$1,$4,$5*
1,1,$1+$1,$6,$7*
1,1,$1+$1,$8,$9*
0 Add four rect primitives between the rounded corners*
20,1,$1+$1,$2,$3,$4,$5,0*
20,1,$1+$1,$4,$5,$6,$7,0*
20,1,$1+$1,$6,$7,$8,$9,0*
20,1,$1+$1,$8,$9,$2,$3,0*%
%AMFreePoly0*
4,1,38,-9.354519,7.926185,-9.354519,7.932854,-4.099895,6.414147,-4.099895,1.130960,-2.802071,2.158404,-2.797108,2.161595,-2.795557,2.163147,-2.793136,2.164149,-2.785582,2.169008,-2.772281,2.172788,-2.759509,2.178079,-2.750569,2.178959,-2.748051,2.179675,-2.745872,2.179421,-2.740000,2.180000,-1.332319,2.180000,-1.339353,5.548852,1.289084,4.789392,1.306261,-4.478820,-1.320000,-3.720000,
-1.331901,1.980000,-2.705208,1.980000,-4.099895,0.875872,-4.099895,-2.925644,-10.616582,-1.044457,-10.616582,0.910815,-7.878145,0.910815,-6.616083,0.545689,-6.616083,4.408605,-7.878145,4.773731,-7.878145,0.910815,-10.616582,0.910815,-10.616582,6.840126,-10.615418,6.839789,-10.621805,6.844610,-9.359742,6.479485,-9.359742,7.937338,-9.354519,7.926185,-9.354519,7.926185,$1*%
G04 Aperture macros list end*
%TA.AperFunction,WasherPad*%
%ADD10O,1.803400X0.990600*%
%TD*%
%TA.AperFunction,WasherPad*%
%ADD11O,2.209800X0.990600*%
%TD*%
%TA.AperFunction,SMDPad,CuDef*%
%ADD12R,1.020000X1.040000*%
%TD*%
%TA.AperFunction,SMDPad,CuDef*%
%ADD13RoundRect,0.181250X-1.223750X0.543750X-1.223750X-0.543750X1.223750X-0.543750X1.223750X0.543750X0*%
%TD*%
%TA.AperFunction,SMDPad,CuDef*%
%ADD14R,0.920000X1.380000*%
%TD*%
%TA.AperFunction,SMDPad,CuDef*%
%ADD15R,0.655600X0.800000*%
%TD*%
%TA.AperFunction,SMDPad,CuDef*%
%ADD16R,0.900000X0.970000*%
%TD*%
%TA.AperFunction,SMDPad,CuDef*%
%ADD17RoundRect,0.108750X-0.326250X-0.356250X0.326250X-0.356250X0.326250X0.356250X-0.326250X0.356250X0*%
%TD*%
%TA.AperFunction,SMDPad,CuDef*%
%ADD18RoundRect,0.100000X-0.100000X0.425000X-0.100000X-0.425000X0.100000X-0.425000X0.100000X0.425000X0*%
%TD*%
%TA.AperFunction,SMDPad,CuDef*%
%ADD19RoundRect,0.050000X-0.250000X0.050000X-0.250000X-0.050000X0.250000X-0.050000X0.250000X0.050000X0*%
%TD*%
%TA.AperFunction,SMDPad,CuDef*%
%ADD20R,0.800000X0.655600*%
%TD*%
%TA.AperFunction,SMDPad,CuDef*%
%ADD21RoundRect,0.108750X-0.356250X0.326250X-0.356250X-0.326250X0.356250X-0.326250X0.356250X0.326250X0*%
%TD*%
%TA.AperFunction,SMDPad,CuDef*%
%ADD22RoundRect,0.045000X0.630000X0.255000X-0.630000X0.255000X-0.630000X-0.255000X0.630000X-0.255000X0*%
%TD*%
%TA.AperFunction,SMDPad,CuDef*%
%ADD23R,1.244600X1.244600*%
%TD*%
%TA.AperFunction,SMDPad,CuDef*%
%ADD24R,0.930000X0.890000*%
%TD*%
%TA.AperFunction,SMDPad,CuDef*%
%ADD25RoundRect,0.108750X0.326250X0.356250X-0.326250X0.356250X-0.326250X-0.356250X0.326250X-0.356250X0*%
%TD*%
%TA.AperFunction,SMDPad,CuDef*%
%ADD26R,1.380000X0.920000*%
%TD*%
%TA.AperFunction,SMDPad,CuDef*%
%ADD27FreePoly0,180.000000*%
%TD*%
%TA.AperFunction,SMDPad,CuDef*%
%ADD28RoundRect,0.575000X0.575000X-0.735000X0.575000X0.735000X-0.575000X0.735000X-0.575000X-0.735000X0*%
%TD*%
%TA.AperFunction,SMDPad,CuDef*%
%ADD29R,3.960000X3.960000*%
%TD*%
%TA.AperFunction,SMDPad,CuDef*%
%ADD30R,5.080000X1.270000*%
%TD*%
%TA.AperFunction,ViaPad*%
%ADD31C,0.600000*%
%TD*%
%TA.AperFunction,ViaPad*%
%ADD32C,0.500000*%
%TD*%
%TA.AperFunction,Conductor*%
%ADD33C,0.200000*%
%TD*%
%TA.AperFunction,Conductor*%
%ADD34C,0.100000*%
%TD*%
G04 APERTURE END LIST*
D10*
%TO.P,J1,*%
%TO.N,*%
X185320050Y-85420000D03*
D11*
X189320051Y-85420000D03*
D10*
X185320050Y-76780000D03*
D11*
X189320051Y-76780000D03*
%TD*%
D12*
%TO.P,R1,1*%
%TO.N,Net-(J1-CC1)*%
X181500000Y-80265000D03*
%TO.P,R1,2*%
%TO.N,GND*%
X181500000Y-81735000D03*
%TD*%
D13*
%TO.P,C1,1*%
%TO.N,VDD_SYS*%
X174500000Y-76570000D03*
%TO.P,C1,2*%
%TO.N,GND*%
X174500000Y-79430000D03*
%TD*%
D14*
%TO.P,R8,1*%
%TO.N,/RESET_SWITCH*%
X181795000Y-89400000D03*
%TO.P,R8,2*%
%TO.N,VDD_SYS*%
X183705000Y-89400000D03*
%TD*%
D15*
%TO.P,C7,1*%
%TO.N,VDD_SYS*%
X166827800Y-95500000D03*
%TO.P,C7,2*%
%TO.N,GND*%
X165172200Y-95500000D03*
%TD*%
D16*
%TO.P,R3,1*%
%TO.N,Net-(LS1-Pad1)*%
X160440000Y-99650000D03*
%TO.P,R3,2*%
%TO.N,Net-(U3-IO17)*%
X161960000Y-99650000D03*
%TD*%
D17*
%TO.P,C9,1*%
%TO.N,GND*%
X188670000Y-87900000D03*
%TO.P,C9,2*%
%TO.N,/RESET_SWITCH*%
X190230000Y-87900000D03*
%TD*%
D18*
%TO.P,U_PWR1,1,OUT*%
%TO.N,VDD_SYS*%
X168650000Y-78925000D03*
%TO.P,U_PWR1,2,IN2*%
%TO.N,Net-(U_PWR1-IN2)*%
X169350000Y-78925000D03*
D19*
%TO.P,U_PWR1,3,CP2*%
%TO.N,GND*%
X170150000Y-78850000D03*
%TO.P,U_PWR1,4,OV2*%
X170150000Y-79350000D03*
%TO.P,U_PWR1,5,OV1*%
X170150000Y-79850000D03*
%TO.P,U_PWR1,6,PR1*%
%TO.N,U_PWR_IN1*%
X170150000Y-80350000D03*
D18*
%TO.P,U_PWR1,7,IN1*%
X169350000Y-80275000D03*
%TO.P,U_PWR1,8*%
%TO.N,N/C*%
X168650000Y-80275000D03*
D19*
%TO.P,U_PWR1,9,ST*%
%TO.N,unconnected-(U_PWR1-ST-Pad9)*%
X167850000Y-80350000D03*
%TO.P,U_PWR1,10,ILIM*%
%TO.N,Net-(U_PWR1-ILIM)*%
X167850000Y-79850000D03*
%TO.P,U_PWR1,11,SS*%
%TO.N,Net-(U_PWR1-SS)*%
X167850000Y-79350000D03*
%TO.P,U_PWR1,12,GND*%
%TO.N,GND*%
X167850000Y-78850000D03*
%TD*%
D12*
%TO.P,R2,1*%
%TO.N,Net-(J1-CC2)*%
X182000000Y-78085000D03*
%TO.P,R2,2*%
%TO.N,GND*%
X182000000Y-76615000D03*
%TD*%
D20*
%TO.P,C2,1*%
%TO.N,U_PWR_IN1*%
X172500000Y-84172200D03*
%TO.P,C2,2*%
%TO.N,GND*%
X172500000Y-85827800D03*
%TD*%
D21*
%TO.P,C3,1*%
%TO.N,VDD_SYS*%
X178500000Y-76720000D03*
%TO.P,C3,2*%
%TO.N,GND*%
X178500000Y-78280000D03*
%TD*%
D22*
%TO.P,U2,1,VIN*%
%TO.N,USB_5V*%
X177685000Y-83550000D03*
%TO.P,U2,2,GND*%
%TO.N,GND*%
X177685000Y-84500000D03*
%TO.P,U2,3,EN*%
%TO.N,USB_5V*%
X177685000Y-85450000D03*
%TO.P,U2,4*%
%TO.N,N/C*%
X175315000Y-85450000D03*
%TO.P,U2,5,VOUT*%
%TO.N,U_PWR_IN1*%
X175315000Y-83550000D03*
%TD*%
D23*
%TO.P,SW3,1,1*%
%TO.N,/RESET_SWITCH*%
X170400000Y-92814800D03*
%TO.P,SW3,2,2*%
%TO.N,GND*%
X170400000Y-97285200D03*
%TD*%
D24*
%TO.P,C4,1*%
%TO.N,USB_5V*%
X180500000Y-83730000D03*
%TO.P,C4,2*%
%TO.N,GND*%
X180500000Y-85270000D03*
%TD*%
D16*
%TO.P,R4,1*%
%TO.N,Net-(LS1-Pad2)*%
X159740000Y-79000000D03*
%TO.P,R4,2*%
%TO.N,Net-(U3-IO26)*%
X161260000Y-79000000D03*
%TD*%
D23*
%TO.P,SW2,1,1*%
%TO.N,/BOOT_SWITCH*%
X170464800Y-89513300D03*
%TO.P,SW2,2,2*%
%TO.N,GND*%
X174935200Y-89513300D03*
%TD*%
D25*
%TO.P,C6,1*%
%TO.N,VDD_SYS*%
X166060000Y-92500000D03*
%TO.P,C6,2*%
%TO.N,GND*%
X164500000Y-92500000D03*
%TD*%
D24*
%TO.P,C5,1*%
%TO.N,GND*%
X165500000Y-80770000D03*
%TO.P,C5,2*%
%TO.N,Net-(U_PWR1-SS)*%
X165500000Y-79230000D03*
%TD*%
D26*
%TO.P,R5,1*%
%TO.N,GND*%
X167000000Y-85410000D03*
%TO.P,R5,2*%
%TO.N,Net-(U_PWR1-ILIM)*%
X167000000Y-83500000D03*
%TD*%
%TO.P,R7,1*%
%TO.N,/BOOT_SWITCH*%
X168000000Y-90455000D03*
%TO.P,R7,2*%
%TO.N,VDD_SYS*%
X168000000Y-88545000D03*
%TD*%
D27*
%TO.P,REF\u002A\u002A,1*%
%TO.N,N/C*%
X138603800Y-103616300D03*
%TD*%
D28*
%TO.P,LS1,1*%
%TO.N,Net-(LS1-Pad1)*%
X157850000Y-95912500D03*
%TO.P,LS1,2*%
%TO.N,Net-(LS1-Pad2)*%
X157850000Y-82822500D03*
%TD*%
D29*
%TO.P,BT1,N*%
%TO.N,GND*%
X183000000Y-102500000D03*
D30*
%TO.P,BT1,P1*%
%TO.N,Net-(U_PWR1-IN2)*%
X183000000Y-113485000D03*
%TO.P,BT1,P2*%
X183000000Y-91515000D03*
%TD*%
D31*
%TO.N,Net-(U_PWR1-IN2)*%
X177500000Y-91500000D03*
X171500000Y-78000000D03*
%TO.N,GND*%
X169500000Y-84500000D03*
X181967500Y-84467500D03*
X161000000Y-76500000D03*
X148000000Y-76500000D03*
X121000000Y-95500000D03*
X166500000Y-78000000D03*
X134500000Y-76500000D03*
X125000000Y-112000000D03*
X174300000Y-87000000D03*
X183050000Y-109200000D03*
X167850000Y-92350000D03*
X186700000Y-91050000D03*
X165950000Y-110850000D03*
X171800000Y-112750002D03*
X179400000Y-86100000D03*
X172000000Y-81150000D03*
X183500000Y-76500000D03*
X175000000Y-100500000D03*
X189000000Y-103500000D03*
X140500000Y-112000000D03*
X161000000Y-82500000D03*
%TO.N,VDD_SYS*%
X167000000Y-97000000D03*
D32*
%TO.N,USB_5V*%
X181500000Y-83520000D03*
%TO.N,Net-(J1-CC2)*%
X182000000Y-79000000D03*
%TO.N,Net-(J1-CC1)*%
X179500000Y-81000000D03*
D31*
%TO.N,/RESET_SWITCH*%
X187900000Y-89800000D03*
%TO.N,Net-(U3-IO17)*%
X173600000Y-108950000D03*
%TO.N,Net-(U3-IO26)*%
X173000000Y-104500000D03*
%TO.N,/BOOT_SWITCH*%
X168000000Y-90500000D03*
%TO.N,/AKey*%
X167000000Y-109500000D03*
X167000000Y-113400000D03*
%TO.N,/GKey*%
X168000000Y-113500000D03*
X168000000Y-107800000D03*
%TO.N,/SoftPwr*%
X120500000Y-79500000D03*
X173600000Y-110900000D03*
D32*
%TO.N,D+*%
X182503134Y-81497829D03*
D31*
X179500000Y-95000000D03*
D32*
X182500000Y-80000000D03*
D31*
X178500000Y-109608746D03*
X182500000Y-86000000D03*
%TO.N,D-*%
X177950000Y-82000000D03*
X177500000Y-95000000D03*
X180050000Y-82000000D03*
X176500000Y-109500000D03*
%TD*%
D33*
%TO.N,Net-(U_PWR1-IN2)*%
X187500000Y-108985000D02*
X187500000Y-96015000D01*
X187500000Y-96015000D02*
X183000000Y-91515000D01*
X171500000Y-78000000D02*
X170099000Y-78000000D01*
X183000000Y-113485000D02*
X187500000Y-108985000D01*
X183000000Y-91515000D02*
X177515000Y-91515000D01*
X177515000Y-91515000D02*
X177500000Y-91500000D01*
X170099000Y-78000000D02*
X169350000Y-78749000D01*
%TO.N,GND*%
X181165000Y-85270000D02*
X180500000Y-85270000D01*
X182051000Y-84384000D02*
X181967500Y-84467500D01*
X170150000Y-79850000D02*
X170150000Y-78850000D01*
X174500000Y-79430000D02*
X171580000Y-79430000D01*
X170150000Y-78850000D02*
X170350000Y-78850000D01*
X181967500Y-84467500D02*
X181165000Y-85270000D01*
X182000000Y-81760000D02*
X182051000Y-81811000D01*
X182051000Y-81811000D02*
X182051000Y-84384000D01*
X171580000Y-79430000D02*
X171000000Y-78850000D01*
X171000000Y-78850000D02*
X170150000Y-78850000D01*
X167850000Y-78850000D02*
X167350000Y-78850000D01*
X167350000Y-78850000D02*
X166500000Y-78000000D01*
%TO.N,VDD_SYS*%
X167200500Y-76500000D02*
X168650000Y-77949500D01*
X163500000Y-88500000D02*
X163500000Y-77500000D01*
X178500000Y-76720000D02*
X174650000Y-76720000D01*
X167000000Y-97000000D02*
X167000000Y-95600000D01*
X170029500Y-76570000D02*
X174500000Y-76570000D01*
X183705000Y-89400000D02*
X181899000Y-87594000D01*
X163500000Y-90000000D02*
X163500000Y-89500000D01*
X164000000Y-89000000D02*
X163500000Y-89500000D01*
X168000000Y-88545000D02*
X167545000Y-89000000D01*
X181899000Y-87594000D02*
X178453434Y-87594000D01*
X168650000Y-77949500D02*
X168650000Y-78749000D01*
X167545000Y-89000000D02*
X164000000Y-89000000D01*
X166900000Y-93400000D02*
X163500000Y-90000000D01*
X176308000Y-78912000D02*
X178500000Y-76720000D01*
X167000000Y-95600000D02*
X166900000Y-95500000D01*
X174650000Y-76720000D02*
X174500000Y-76570000D01*
X163500000Y-77500000D02*
X164500000Y-76500000D01*
X164000000Y-89000000D02*
X163500000Y-88500000D01*
X166900000Y-95500000D02*
X166900000Y-93400000D01*
X168650000Y-77949500D02*
X170029500Y-76570000D01*
X164500000Y-76500000D02*
X167200500Y-76500000D01*
X176308000Y-85448566D02*
X176308000Y-78912000D01*
X178453434Y-87594000D02*
X176308000Y-85448566D01*
%TO.N,U_PWR_IN1*%
X170500000Y-82112000D02*
X170500000Y-80700000D01*
X170049000Y-80451000D02*
X169350000Y-80451000D01*
X174753000Y-84112000D02*
X175315000Y-83550000D01*
X170150000Y-80350000D02*
X170049000Y-80451000D01*
X172500000Y-84112000D02*
X174753000Y-84112000D01*
X170500000Y-80700000D02*
X170150000Y-80350000D01*
X172500000Y-84112000D02*
X170500000Y-82112000D01*
%TO.N,USB_5V*%
X177259434Y-85450000D02*
X176709000Y-84899566D01*
X177685000Y-83550000D02*
X178110566Y-83550000D01*
X177685000Y-85450000D02*
X177259434Y-85450000D01*
X176709000Y-83851001D02*
X177010001Y-83550000D01*
X177685000Y-83550000D02*
X180050000Y-83550000D01*
X178359999Y-85450000D02*
X177685000Y-85450000D01*
X176709000Y-84899566D02*
X176709000Y-83851001D01*
X180050000Y-83550000D02*
X180500000Y-84000000D01*
D34*
X180500000Y-83730000D02*
X181290000Y-83730000D01*
X181290000Y-83730000D02*
X181500000Y-83520000D01*
D33*
X177010001Y-83550000D02*
X177685000Y-83550000D01*
%TO.N,Net-(U_PWR1-SS)*%
X165620000Y-79350000D02*
X165500000Y-79230000D01*
X167850000Y-79350000D02*
X165620000Y-79350000D01*
%TO.N,Net-(U_PWR1-ILIM)*%
X167850000Y-79850000D02*
X167550000Y-79850000D01*
X167000000Y-80400000D02*
X167000000Y-83500000D01*
X167550000Y-79850000D02*
X167000000Y-80400000D01*
D34*
%TO.N,Net-(J1-CC2)*%
X182000000Y-79000000D02*
X182000000Y-78110000D01*
%TO.N,Net-(J1-CC1)*%
X179500000Y-81000000D02*
X180500000Y-81000000D01*
X180500000Y-81000000D02*
X181260000Y-80240000D01*
X181260000Y-80240000D02*
X182000000Y-80240000D01*
D33*
%TO.N,Net-(LS1-Pad1)*%
X160440000Y-98502500D02*
X157850000Y-95912500D01*
X160440000Y-99650000D02*
X160440000Y-98502500D01*
%TO.N,Net-(LS1-Pad2)*%
X157850000Y-80890000D02*
X159740000Y-79000000D01*
X157850000Y-82822500D02*
X157850000Y-80890000D01*
%TO.N,/RESET_SWITCH*%
X181135000Y-89400000D02*
X179735000Y-90800000D01*
X179735000Y-90800000D02*
X172414800Y-90800000D01*
X188330000Y-89800000D02*
X187900000Y-89800000D01*
X181795000Y-89400000D02*
X181135000Y-89400000D01*
X181795000Y-89400000D02*
X182786000Y-90391000D01*
X187309000Y-90391000D02*
X187900000Y-89800000D01*
X172414800Y-90800000D02*
X170400000Y-92814800D01*
X182786000Y-90391000D02*
X187309000Y-90391000D01*
X190230000Y-87900000D02*
X188330000Y-89800000D01*
%TO.N,Net-(U3-IO17)*%
X164150000Y-99650000D02*
X161960000Y-99650000D01*
X172349943Y-103000000D02*
X167500000Y-103000000D01*
X173601000Y-108949000D02*
X173600000Y-108950000D01*
X167500000Y-103000000D02*
X164150000Y-99650000D01*
X173601000Y-104251057D02*
X172349943Y-103000000D01*
X173601000Y-104251057D02*
X173601000Y-108949000D01*
%TO.N,Net-(U3-IO26)*%
X160500000Y-104500000D02*
X152000000Y-96000000D01*
X156000000Y-77500000D02*
X159760000Y-77500000D01*
X152000000Y-81500000D02*
X156000000Y-77500000D01*
X159760000Y-77500000D02*
X161260000Y-79000000D01*
X173000000Y-104500000D02*
X160500000Y-104500000D01*
X152000000Y-96000000D02*
X152000000Y-81500000D01*
%TO.N,/BOOT_SWITCH*%
X168986700Y-89513300D02*
X170464800Y-89513300D01*
X168000000Y-90500000D02*
X168986700Y-89513300D01*
X168133300Y-90588300D02*
X168000000Y-90455000D01*
%TO.N,/AKey*%
X167000000Y-109500000D02*
X167000000Y-113400000D01*
%TO.N,/GKey*%
X168000000Y-107800000D02*
X168000000Y-113500000D01*
%TO.N,/SoftPwr*%
X119000000Y-113000000D02*
X162500000Y-113000000D01*
X164880803Y-106000000D02*
X169700000Y-106000000D01*
X120500000Y-79500000D02*
X119000000Y-81000000D01*
X173600000Y-109900000D02*
X173600000Y-110900000D01*
X162500000Y-113000000D02*
X162500000Y-108380803D01*
X162500000Y-108380803D02*
X164880803Y-106000000D01*
X119000000Y-81000000D02*
X119000000Y-113000000D01*
X169700000Y-106000000D02*
X173600000Y-109900000D01*
%TO.N,D+*%
X182503134Y-80003134D02*
X182503134Y-81497829D01*
X179500000Y-95000000D02*
X180000000Y-95500000D01*
X178500000Y-108000000D02*
X178500000Y-109608746D01*
X182500000Y-80000000D02*
X182503134Y-80003134D01*
X180000000Y-95500000D02*
X180000000Y-106500000D01*
X183000000Y-81994695D02*
X183000000Y-85500000D01*
X183000000Y-85500000D02*
X182500000Y-86000000D01*
X180000000Y-106500000D02*
X178500000Y-108000000D01*
X182503134Y-81497829D02*
X183000000Y-81994695D01*
%TO.N,D-*%
X177950000Y-82000000D02*
X180050000Y-82000000D01*
X176500000Y-97000000D02*
X176500000Y-109500000D01*
X177500000Y-95000000D02*
X177500000Y-96000000D01*
X177500000Y-96000000D02*
X176500000Y-97000000D01*
%TD*%
%TA.AperFunction,Conductor*%
%TO.N,GND*%
G36*
X172916305Y-75238519D02*
G01*
X172962060Y-75291323D01*
X172972004Y-75360481D01*
X172942979Y-75424037D01*
X172913419Y-75448948D01*
X172874563Y-75472437D01*
X172852710Y-75485648D01*
X172735648Y-75602710D01*
X172649996Y-75744395D01*
X172649996Y-75744396D01*
X172606994Y-75882393D01*
X172568259Y-75940538D01*
X172504234Y-75968512D01*
X172488611Y-75969500D01*
X170116170Y-75969500D01*
X170116154Y-75969499D01*
X170108558Y-75969499D01*
X169950443Y-75969499D01*
X169882816Y-75987620D01*
X169797714Y-76010423D01*
X169797709Y-76010426D01*
X169660790Y-76089475D01*
X169660782Y-76089481D01*
X168737680Y-77012583D01*
X168676357Y-77046068D01*
X168606665Y-77041084D01*
X168562320Y-77012584D01*
X167688089Y-76138354D01*
X167688088Y-76138352D01*
X167569217Y-76019481D01*
X167569216Y-76019480D01*
X167482404Y-75969360D01*
X167482404Y-75969359D01*
X167482400Y-75969358D01*
X167432285Y-75940423D01*
X167279557Y-75899499D01*
X167121443Y-75899499D01*
X167113847Y-75899499D01*
X167113831Y-75899500D01*
X164586670Y-75899500D01*
X164586654Y-75899499D01*
X164579058Y-75899499D01*
X164420943Y-75899499D01*
X164344579Y-75919961D01*
X164268214Y-75940423D01*
X164268209Y-75940426D01*
X164131290Y-76019475D01*
X164131282Y-76019481D01*
X163019479Y-77131284D01*
X163003565Y-77158848D01*
X162996839Y-77170500D01*
X162940423Y-77268215D01*
X162899499Y-77420943D01*
X162899499Y-77420945D01*
X162899499Y-77589046D01*
X162899500Y-77589059D01*
X162899500Y-88413330D01*
X162899499Y-88413348D01*
X162899499Y-88579054D01*
X162899498Y-88579054D01*
X162940424Y-88731789D01*
X162940425Y-88731790D01*
X162958446Y-88763003D01*
X162958450Y-88763009D01*
X162961456Y-88768215D01*
X163019480Y-88868716D01*
X163070331Y-88919567D01*
X163076289Y-88927904D01*
X163084538Y-88951612D01*
X163096568Y-88973642D01*
X163095824Y-88984043D01*
X163099251Y-88993892D01*
X163093374Y-89018293D01*
X163091584Y-89043334D01*
X163084804Y-89053883D01*
X163082893Y-89061820D01*
X163074611Y-89069742D01*
X163063083Y-89087681D01*
X163019481Y-89131282D01*
X163019479Y-89131284D01*
X163000436Y-89164268D01*
X162992387Y-89178211D01*
X162940423Y-89268215D01*
X162899499Y-89420943D01*
X162899499Y-89420945D01*
X162899499Y-89589046D01*
X162899500Y-89589059D01*
X162899500Y-89913330D01*
X162899499Y-89913348D01*
X162899499Y-90079054D01*
X162899498Y-90079054D01*
X162940423Y-90231787D01*
X162945410Y-90240424D01*
X162945412Y-90240426D01*
X163019477Y-90368712D01*
X163019481Y-90368717D01*
X163138349Y-90487585D01*
X163138355Y-90487590D01*
X164015556Y-91364791D01*
X164049041Y-91426114D01*
X164044057Y-91495806D01*
X164002185Y-91551739D01*
X163975328Y-91567033D01*
X163866746Y-91612008D01*
X163739584Y-91709584D01*
X163642007Y-91836748D01*
X163580670Y-91984830D01*
X163580669Y-91984834D01*
X163565000Y-92103842D01*
X163565000Y-92250000D01*
X164376000Y-92250000D01*
X164443039Y-92269685D01*
X164488794Y-92322489D01*
X164500000Y-92374000D01*
X164500000Y-92500000D01*
X164626000Y-92500000D01*
X164693039Y-92519685D01*
X164738794Y-92572489D01*
X164750000Y-92624000D01*
X164750000Y-93465000D01*
X164866143Y-93465000D01*
X164866157Y-93464999D01*
X164985165Y-93449330D01*
X164985169Y-93449329D01*
X165133249Y-93387993D01*
X165200165Y-93336647D01*
X165265334Y-93311453D01*
X165333779Y-93325491D01*
X165351653Y-93337044D01*
X165357370Y-93341479D01*
X165411508Y-93373495D01*
X165489865Y-93419836D01*
X165528847Y-93431161D01*
X165637680Y-93462781D01*
X165637683Y-93462781D01*
X165637685Y-93462782D01*
X165672223Y-93465500D01*
X166064902Y-93465499D01*
X166094348Y-93474145D01*
X166124329Y-93480667D01*
X166129342Y-93484419D01*
X166131941Y-93485183D01*
X166152583Y-93501818D01*
X166263181Y-93612416D01*
X166296666Y-93673739D01*
X166299500Y-93700097D01*
X166299500Y-94562819D01*
X166279815Y-94629858D01*
X166249812Y-94662085D01*
X166142453Y-94742454D01*
X166098952Y-94800563D01*
X166043018Y-94842433D01*
X165973326Y-94847416D01*
X165912004Y-94813929D01*
X165900420Y-94800561D01*
X165857186Y-94742809D01*
X165742093Y-94656649D01*
X165742086Y-94656645D01*
X165607379Y-94606403D01*
X165607372Y-94606401D01*
X165547844Y-94600000D01*
X165422200Y-94600000D01*
X165422200Y-96400000D01*
X165547828Y-96400000D01*
X165547844Y-96399999D01*
X165607372Y-96393598D01*
X165607379Y-96393596D01*
X165742086Y-96343354D01*
X165742093Y-96343350D01*
X165857187Y-96257190D01*
X165857188Y-96257189D01*
X165900420Y-96199439D01*
X165956353Y-96157567D01*
X166026045Y-96152583D01*
X166087368Y-96186068D01*
X166098953Y-96199437D01*
X166123169Y-96231785D01*
X166142187Y-96257190D01*
X166142455Y-96257547D01*
X166257664Y-96343793D01*
X166257671Y-96343797D01*
X166285372Y-96354129D01*
X166341306Y-96396000D01*
X166365723Y-96461464D01*
X166350871Y-96529737D01*
X166345141Y-96539201D01*
X166290612Y-96620809D01*
X166290602Y-96620827D01*
X166230264Y-96766498D01*
X166230261Y-96766510D01*
X166199500Y-96921153D01*
X166199500Y-97078846D01*
X166230261Y-97233489D01*
X166230264Y-97233501D01*
X166290602Y-97379172D01*
X166290609Y-97379185D01*
X166378210Y-97510288D01*
X166378213Y-97510292D01*
X166489707Y-97621786D01*
X166489711Y-97621789D01*
X166620814Y-97709390D01*
X166620827Y-97709397D01*
X166766498Y-97769735D01*
X166766503Y-97769737D01*
X166921153Y-97800499D01*
X166921156Y-97800500D01*
X166921158Y-97800500D01*
X167078844Y-97800500D01*
X167078845Y-97800499D01*
X167233497Y-97769737D01*
X167379179Y-97709394D01*
X167510289Y-97621789D01*
X167621789Y-97510289D01*
X167709394Y-97379179D01*
X167769737Y-97233497D01*
X167800500Y-97078842D01*
X167800500Y-96921158D01*
X167800500Y-96921155D01*
X167800499Y-96921153D01*
X167771579Y-96775763D01*
X167769737Y-96766503D01*
X167754454Y-96729606D01*
X167728844Y-96667777D01*
X167728842Y-96667775D01*
X167709394Y-96620821D01*
X167705541Y-96615055D01*
X169277700Y-96615055D01*
X169277700Y-97035200D01*
X170150000Y-97035200D01*
X170650000Y-97035200D01*
X171522300Y-97035200D01*
X171522300Y-96615072D01*
X171522299Y-96615055D01*
X171515898Y-96555527D01*
X171515896Y-96555520D01*
X171465654Y-96420813D01*
X171465650Y-96420806D01*
X171379490Y-96305712D01*
X171379487Y-96305709D01*
X171264393Y-96219549D01*
X171264386Y-96219545D01*
X171129679Y-96169303D01*
X171129672Y-96169301D01*
X171070144Y-96162900D01*
X170650000Y-96162900D01*
X170650000Y-97035200D01*
X170150000Y-97035200D01*
X170150000Y-96162900D01*
X169729855Y-96162900D01*
X169670327Y-96169301D01*
X169670320Y-96169303D01*
X169535613Y-96219545D01*
X169535606Y-96219549D01*
X169420512Y-96305709D01*
X169420509Y-96305712D01*
X169334349Y-96420806D01*
X169334345Y-96420813D01*
X169284103Y-96555520D01*
X169284101Y-96555527D01*
X169277700Y-96615055D01*
X167705541Y-96615055D01*
X167621789Y-96489711D01*
X167621293Y-96489215D01*
X167618280Y-96484212D01*
X167610123Y-96453117D01*
X167600520Y-96422447D01*
X167600500Y-96420234D01*
X167600500Y-96161742D01*
X167608318Y-96118409D01*
X167649691Y-96007483D01*
X167656100Y-95947873D01*
X167656099Y-95052128D01*
X167649691Y-94992517D01*
X167599484Y-94857906D01*
X167599397Y-94857671D01*
X167599396Y-94857670D01*
X167599396Y-94857669D01*
X167525233Y-94758600D01*
X167500816Y-94693136D01*
X167500500Y-94684289D01*
X167500500Y-93320945D01*
X167500500Y-93320943D01*
X167459577Y-93168216D01*
X167459577Y-93168215D01*
X167420271Y-93100135D01*
X167419082Y-93098076D01*
X167419077Y-93098066D01*
X167380524Y-93031290D01*
X167380521Y-93031286D01*
X167380520Y-93031284D01*
X167268716Y-92919480D01*
X167268715Y-92919479D01*
X167264385Y-92915149D01*
X167264374Y-92915139D01*
X167031818Y-92682583D01*
X166998333Y-92621260D01*
X166995499Y-92594902D01*
X166995499Y-92082235D01*
X166995498Y-92082210D01*
X166995228Y-92078789D01*
X166992782Y-92047685D01*
X166949836Y-91899865D01*
X166871478Y-91767369D01*
X166871476Y-91767367D01*
X166871473Y-91767363D01*
X166762636Y-91658526D01*
X166762627Y-91658519D01*
X166630133Y-91580163D01*
X166630130Y-91580162D01*
X166482319Y-91537218D01*
X166482313Y-91537217D01*
X166447784Y-91534500D01*
X166447777Y-91534500D01*
X165935097Y-91534500D01*
X165868058Y-91514815D01*
X165847416Y-91498181D01*
X164186916Y-89837681D01*
X164182576Y-89829734D01*
X164175327Y-89824307D01*
X164166093Y-89799547D01*
X164153431Y-89776358D01*
X164154076Y-89767325D01*
X164150913Y-89758841D01*
X164156530Y-89733024D01*
X164158415Y-89706666D01*
X164164235Y-89697610D01*
X164165767Y-89690569D01*
X164186914Y-89662321D01*
X164212421Y-89636815D01*
X164273746Y-89603333D01*
X164300099Y-89600500D01*
X166744366Y-89600500D01*
X166811405Y-89620185D01*
X166857160Y-89672989D01*
X166867104Y-89742147D01*
X166860548Y-89767833D01*
X166815908Y-89887517D01*
X166809501Y-89947116D01*
X166809500Y-89947135D01*
X166809500Y-90962870D01*
X166809501Y-90962876D01*
X166815908Y-91022483D01*
X166866202Y-91157328D01*
X166866206Y-91157335D01*
X166952452Y-91272544D01*
X166952455Y-91272547D01*
X167067664Y-91358793D01*
X167067671Y-91358797D01*
X167202517Y-91409091D01*
X167202516Y-91409091D01*
X167209444Y-91409835D01*
X167262127Y-91415500D01*
X168737872Y-91415499D01*
X168797483Y-91409091D01*
X168932331Y-91358796D01*
X169047546Y-91272546D01*
X169133796Y-91157331D01*
X169184091Y-91022483D01*
X169190500Y-90962873D01*
X169190499Y-90472360D01*
X169210183Y-90405323D01*
X169262987Y-90359568D01*
X169332146Y-90349624D01*
X169395702Y-90378649D01*
X169413765Y-90398051D01*
X169484952Y-90493144D01*
X169484955Y-90493147D01*
X169600164Y-90579393D01*
X169600171Y-90579397D01*
X169735017Y-90629691D01*
X169735016Y-90629691D01*
X169741944Y-90630435D01*
X169794627Y-90636100D01*
X171134972Y-90636099D01*
X171194583Y-90629691D01*
X171329431Y-90579396D01*
X171444646Y-90493146D01*
X171530896Y-90377931D01*
X171581191Y-90243083D01*
X171587600Y-90183473D01*
X171587599Y-88843155D01*
X173812900Y-88843155D01*
X173812900Y-89263300D01*
X174685200Y-89263300D01*
X175185200Y-89263300D01*
X176057500Y-89263300D01*
X176057500Y-88843172D01*
X176057499Y-88843155D01*
X176051098Y-88783627D01*
X176051096Y-88783620D01*
X176000854Y-88648913D01*
X176000850Y-88648906D01*
X175914690Y-88533812D01*
X175914687Y-88533809D01*
X175799593Y-88447649D01*
X175799586Y-88447645D01*
X175664879Y-88397403D01*
X175664872Y-88397401D01*
X175605344Y-88391000D01*
X175185200Y-88391000D01*
X175185200Y-89263300D01*
X174685200Y-89263300D01*
X174685200Y-88391000D01*
X174265055Y-88391000D01*
X174205527Y-88397401D01*
X174205520Y-88397403D01*
X174070813Y-88447645D01*
X174070806Y-88447649D01*
X173955712Y-88533809D01*
X173955709Y-88533812D01*
X173869549Y-88648906D01*
X173869545Y-88648913D01*
X173819303Y-88783620D01*
X173819301Y-88783627D01*
X173812900Y-88843155D01*
X171587599Y-88843155D01*
X171587599Y-88843128D01*
X171581191Y-88783517D01*
X171565512Y-88741480D01*
X171530897Y-88648671D01*
X171530893Y-88648664D01*
X171444647Y-88533455D01*
X171444644Y-88533452D01*
X171329435Y-88447206D01*
X171329428Y-88447202D01*
X171194582Y-88396908D01*
X171194583Y-88396908D01*
X171134983Y-88390501D01*
X171134981Y-88390500D01*
X171134973Y-88390500D01*
X171134964Y-88390500D01*
X169794629Y-88390500D01*
X169794623Y-88390501D01*
X169735016Y-88396908D01*
X169600171Y-88447202D01*
X169600164Y-88447206D01*
X169484955Y-88533452D01*
X169413765Y-88628549D01*
X169357831Y-88670419D01*
X169288139Y-88675403D01*
X169226817Y-88641917D01*
X169193332Y-88580593D01*
X169190499Y-88554242D01*
X169190499Y-88037128D01*
X169184091Y-87977517D01*
X169178569Y-87962713D01*
X169133797Y-87842671D01*
X169133793Y-87842664D01*
X169047547Y-87727455D01*
X169047544Y-87727452D01*
X168932335Y-87641206D01*
X168932328Y-87641202D01*
X168797482Y-87590908D01*
X168797483Y-87590908D01*
X168737883Y-87584501D01*
X168737881Y-87584500D01*
X168737873Y-87584500D01*
X168737864Y-87584500D01*
X167262129Y-87584500D01*
X167262123Y-87584501D01*
X167202516Y-87590908D01*
X167067671Y-87641202D01*
X167067664Y-87641206D01*
X166952455Y-87727452D01*
X166952452Y-87727455D01*
X166866206Y-87842664D01*
X166866202Y-87842671D01*
X166815908Y-87977517D01*
X166810696Y-88026000D01*
X166809501Y-88037123D01*
X166809500Y-88037135D01*
X166809500Y-88275500D01*
X166789815Y-88342539D01*
X166737011Y-88388294D01*
X166685500Y-88399500D01*
X164300098Y-88399500D01*
X164270657Y-88390855D01*
X164240671Y-88384332D01*
X164235655Y-88380577D01*
X164233059Y-88379815D01*
X164212417Y-88363181D01*
X164136819Y-88287583D01*
X164103334Y-88226260D01*
X164100500Y-88199902D01*
X164100500Y-85917844D01*
X165810000Y-85917844D01*
X165816401Y-85977372D01*
X165816403Y-85977379D01*
X165866645Y-86112086D01*
X165866649Y-86112093D01*
X165952809Y-86227187D01*
X165952812Y-86227190D01*
X166067906Y-86313350D01*
X166067913Y-86313354D01*
X166202620Y-86363596D01*
X166202627Y-86363598D01*
X166262155Y-86369999D01*
X166262172Y-86370000D01*
X166750000Y-86370000D01*
X167250000Y-86370000D01*
X167737828Y-86370000D01*
X167737844Y-86369999D01*
X167797372Y-86363598D01*
X167797379Y-86363596D01*
X167932086Y-86313354D01*
X167932093Y-86313350D01*
X168047187Y-86227190D01*
X168047190Y-86227187D01*
X168064964Y-86203444D01*
X171600000Y-86203444D01*
X171606401Y-86262972D01*
X171606403Y-86262979D01*
X171656645Y-86397686D01*
X171656649Y-86397693D01*
X171742809Y-86512787D01*
X171742812Y-86512790D01*
X171857906Y-86598950D01*
X171857913Y-86598954D01*
X171992620Y-86649196D01*
X171992627Y-86649198D01*
X172052155Y-86655599D01*
X172052172Y-86655600D01*
X172250000Y-86655600D01*
X172750000Y-86655600D01*
X172947828Y-86655600D01*
X172947844Y-86655599D01*
X173007372Y-86649198D01*
X173007379Y-86649196D01*
X173142086Y-86598954D01*
X173142093Y-86598950D01*
X173257187Y-86512790D01*
X173257190Y-86512787D01*
X173343350Y-86397693D01*
X173343354Y-86397686D01*
X173393596Y-86262979D01*
X173393598Y-86262972D01*
X173399999Y-86203444D01*
X173400000Y-86203427D01*
X173400000Y-86077800D01*
X172750000Y-86077800D01*
X172750000Y-86655600D01*
X172250000Y-86655600D01*
X172250000Y-86077800D01*
X171600000Y-86077800D01*
X171600000Y-86203444D01*
X168064964Y-86203444D01*
X168133350Y-86112093D01*
X168133354Y-86112086D01*
X168181461Y-85983105D01*
X168181461Y-85983104D01*
X168181462Y-85983102D01*
X168183597Y-85977377D01*
X168183598Y-85977372D01*
X168189999Y-85917844D01*
X168190000Y-85917827D01*
X168190000Y-85660000D01*
X167250000Y-85660000D01*
X167250000Y-86370000D01*
X166750000Y-86370000D01*
X166750000Y-85660000D01*
X165810000Y-85660000D01*
X165810000Y-85917844D01*
X164100500Y-85917844D01*
X164100500Y-81262844D01*
X164535000Y-81262844D01*
X164541401Y-81322372D01*
X164541403Y-81322379D01*
X164591645Y-81457086D01*
X164591649Y-81457093D01*
X164677809Y-81572187D01*
X164677812Y-81572190D01*
X164792906Y-81658350D01*
X164792913Y-81658354D01*
X164927620Y-81708596D01*
X164927627Y-81708598D01*
X164987155Y-81714999D01*
X164987172Y-81715000D01*
X165250000Y-81715000D01*
X165250000Y-81020000D01*
X164535000Y-81020000D01*
X164535000Y-81262844D01*
X164100500Y-81262844D01*
X164100500Y-77800097D01*
X164120185Y-77733058D01*
X164136819Y-77712416D01*
X164712417Y-77136819D01*
X164773740Y-77103334D01*
X164800098Y-77100500D01*
X166900403Y-77100500D01*
X166967442Y-77120185D01*
X166988084Y-77136819D01*
X167889583Y-78038319D01*
X167923068Y-78099642D01*
X167918084Y-78169334D01*
X167876212Y-78225267D01*
X167810748Y-78249684D01*
X167801902Y-78250000D01*
X167556946Y-78250000D01*
X167468556Y-78260613D01*
X167327904Y-78316079D01*
X167207435Y-78407435D01*
X167116078Y-78527906D01*
X167116077Y-78527908D01*
X167059653Y-78670990D01*
X167016748Y-78726134D01*
X166950840Y-78749327D01*
X166944299Y-78749500D01*
X166572034Y-78749500D01*
X166504995Y-78729815D01*
X166459240Y-78677011D01*
X166455852Y-78668833D01*
X166449900Y-78652876D01*
X166430366Y-78600500D01*
X166408797Y-78542671D01*
X166408793Y-78542664D01*
X166322547Y-78427455D01*
X166322544Y-78427452D01*
X166207335Y-78341206D01*
X166207328Y-78341202D01*
X166072482Y-78290908D01*
X166072483Y-78290908D01*
X166012883Y-78284501D01*
X166012881Y-78284500D01*
X166012873Y-78284500D01*
X166012864Y-78284500D01*
X164987129Y-78284500D01*
X164987123Y-78284501D01*
X164927516Y-78290908D01*
X164792671Y-78341202D01*
X164792664Y-78341206D01*
X164677455Y-78427452D01*
X164677452Y-78427455D01*
X164591206Y-78542664D01*
X164591202Y-78542671D01*
X164540908Y-78677517D01*
X164534501Y-78737116D01*
X164534500Y-78737135D01*
X164534500Y-79722870D01*
X164534501Y-79722876D01*
X164540908Y-79782483D01*
X164591202Y-79917327D01*
X164591204Y-79917331D01*
X164596291Y-79924127D01*
X164597773Y-79926106D01*
X164622190Y-79991571D01*
X164607338Y-80059843D01*
X164597775Y-80074725D01*
X164591646Y-80082912D01*
X164591645Y-80082913D01*
X164541403Y-80217620D01*
X164541401Y-80217627D01*
X164535000Y-80277155D01*
X164535000Y-80520000D01*
X165376000Y-80520000D01*
X165443039Y-80539685D01*
X165488794Y-80592489D01*
X165500000Y-80644000D01*
X165500000Y-80770000D01*
X165626000Y-80770000D01*
X165693039Y-80789685D01*
X165738794Y-80842489D01*
X165750000Y-80894000D01*
X165750000Y-81715000D01*
X166012828Y-81715000D01*
X166012844Y-81714999D01*
X166072372Y-81708598D01*
X166072379Y-81708596D01*
X166207086Y-81658354D01*
X166214872Y-81654103D01*
X166216491Y-81657068D01*
X166266608Y-81638355D01*
X166334887Y-81653182D01*
X166384310Y-81702569D01*
X166399500Y-81762036D01*
X166399500Y-82415500D01*
X166379815Y-82482539D01*
X166327011Y-82528294D01*
X166275507Y-82539500D01*
X166262133Y-82539500D01*
X166262123Y-82539501D01*
X166202516Y-82545908D01*
X166067671Y-82596202D01*
X166067664Y-82596206D01*
X165952455Y-82682452D01*
X165952452Y-82682455D01*
X165866206Y-82797664D01*
X165866202Y-82797671D01*
X165815908Y-82932517D01*
X165809501Y-82992116D01*
X165809501Y-82992123D01*
X165809500Y-82992135D01*
X165809500Y-84007870D01*
X165809501Y-84007876D01*
X165815908Y-84067483D01*
X165866202Y-84202328D01*
X165866206Y-84202335D01*
X165952452Y-84317544D01*
X165952453Y-84317544D01*
X165952454Y-84317546D01*
X165955568Y-84319877D01*
X166003883Y-84356046D01*
X166045753Y-84411980D01*
X166050737Y-84481672D01*
X166017251Y-84542994D01*
X166003883Y-84554578D01*
X165952809Y-84592812D01*
X165866649Y-84707906D01*
X165866645Y-84707913D01*
X165816403Y-84842620D01*
X165816401Y-84842627D01*
X165810000Y-84902155D01*
X165810000Y-85160000D01*
X168190000Y-85160000D01*
X168190000Y-84902172D01*
X168189999Y-84902155D01*
X168183598Y-84842627D01*
X168183596Y-84842620D01*
X168133354Y-84707913D01*
X168133350Y-84707906D01*
X168047190Y-84592813D01*
X167996117Y-84554579D01*
X167954246Y-84498645D01*
X167949262Y-84428953D01*
X167982747Y-84367630D01*
X167996110Y-84356050D01*
X168047546Y-84317546D01*
X168133796Y-84202331D01*
X168184091Y-84067483D01*
X168190500Y-84007873D01*
X168190499Y-82992128D01*
X168184091Y-82932517D01*
X168183083Y-82929815D01*
X168133797Y-82797671D01*
X168133793Y-82797664D01*
X168047547Y-82682455D01*
X168047544Y-82682452D01*
X167932335Y-82596206D01*
X167932328Y-82596202D01*
X167797482Y-82545908D01*
X167797483Y-82545908D01*
X167737883Y-82539501D01*
X167737881Y-82539500D01*
X167737873Y-82539500D01*
X167737865Y-82539500D01*
X167724500Y-82539500D01*
X167657461Y-82519815D01*
X167611706Y-82467011D01*
X167600500Y-82415500D01*
X167600500Y-81074500D01*
X167603050Y-81065814D01*
X167601762Y-81056853D01*
X167612740Y-81032812D01*
X167620185Y-81007461D01*
X167627025Y-81001533D01*
X167630787Y-80993297D01*
X167653021Y-80979007D01*
X167672989Y-80961706D01*
X167683503Y-80959418D01*
X167689565Y-80955523D01*
X167724500Y-80950500D01*
X167924151Y-80950500D01*
X167991190Y-80970185D01*
X168022527Y-80999013D01*
X168025463Y-81002840D01*
X168025464Y-81002841D01*
X168121718Y-81128282D01*
X168247159Y-81224536D01*
X168393238Y-81285044D01*
X168510639Y-81300500D01*
X168789360Y-81300499D01*
X168789363Y-81300499D01*
X168906753Y-81285046D01*
X168906757Y-81285044D01*
X168906762Y-81285044D01*
X168952547Y-81266078D01*
X169022015Y-81258609D01*
X169047450Y-81266078D01*
X169093238Y-81285044D01*
X169210639Y-81300500D01*
X169489360Y-81300499D01*
X169489363Y-81300499D01*
X169606753Y-81285046D01*
X169606756Y-81285044D01*
X169606762Y-81285044D01*
X169728050Y-81234804D01*
X169797516Y-81227336D01*
X169859995Y-81258611D01*
X169895648Y-81318699D01*
X169899500Y-81349366D01*
X169899500Y-82025330D01*
X169899499Y-82025348D01*
X169899499Y-82191054D01*
X169899498Y-82191054D01*
X169940424Y-82343787D01*
X169954816Y-82368714D01*
X169954817Y-82368716D01*
X170019477Y-82480712D01*
X170019481Y-82480717D01*
X170138349Y-82599585D01*
X170138355Y-82599590D01*
X171563181Y-84024416D01*
X171596666Y-84085739D01*
X171599500Y-84112097D01*
X171599500Y-84547870D01*
X171599501Y-84547876D01*
X171605908Y-84607483D01*
X171656202Y-84742328D01*
X171656206Y-84742335D01*
X171742452Y-84857544D01*
X171742453Y-84857544D01*
X171742454Y-84857546D01*
X171777727Y-84883951D01*
X171800562Y-84901046D01*
X171842432Y-84956980D01*
X171847416Y-85026672D01*
X171813930Y-85087994D01*
X171800562Y-85099578D01*
X171742809Y-85142812D01*
X171656649Y-85257906D01*
X171656645Y-85257913D01*
X171606403Y-85392620D01*
X171606401Y-85392627D01*
X171600000Y-85452155D01*
X171600000Y-85577800D01*
X173400000Y-85577800D01*
X173400000Y-85452172D01*
X173399999Y-85452155D01*
X173393598Y-85392627D01*
X173393596Y-85392620D01*
X173343354Y-85257913D01*
X173343350Y-85257906D01*
X173257190Y-85142812D01*
X173257187Y-85142809D01*
X173199438Y-85099578D01*
X173157567Y-85043645D01*
X173152583Y-84973953D01*
X173183527Y-84915247D01*
X173190867Y-84907461D01*
X173257546Y-84857546D01*
X173333148Y-84756553D01*
X173337975Y-84751435D01*
X173362305Y-84737205D01*
X173384864Y-84720318D01*
X173393996Y-84718670D01*
X173398287Y-84716161D01*
X173406088Y-84716488D01*
X173428197Y-84712500D01*
X174116628Y-84712500D01*
X174183667Y-84732185D01*
X174229422Y-84784989D01*
X174239366Y-84854147D01*
X174215430Y-84911427D01*
X174205040Y-84925127D01*
X174205038Y-84925130D01*
X174150027Y-85064630D01*
X174150026Y-85064631D01*
X174139500Y-85152289D01*
X174139500Y-85747710D01*
X174150026Y-85835368D01*
X174150027Y-85835369D01*
X174205038Y-85974869D01*
X174205039Y-85974871D01*
X174235213Y-86014660D01*
X174295647Y-86094353D01*
X174415131Y-86184962D01*
X174554631Y-86239973D01*
X174642289Y-86250500D01*
X174642290Y-86250500D01*
X175987711Y-86250500D01*
X176021634Y-86246426D01*
X176075369Y-86239973D01*
X176125073Y-86220371D01*
X176194659Y-86214090D01*
X176256595Y-86246426D01*
X176258244Y-86248045D01*
X177968573Y-87958374D01*
X177968583Y-87958385D01*
X177972913Y-87962715D01*
X177972914Y-87962716D01*
X178084718Y-88074520D01*
X178116795Y-88093039D01*
X178171529Y-88124639D01*
X178171531Y-88124641D01*
X178196045Y-88138794D01*
X178221649Y-88153577D01*
X178374377Y-88194501D01*
X178374380Y-88194501D01*
X178540087Y-88194501D01*
X178540103Y-88194500D01*
X180847976Y-88194500D01*
X180915015Y-88214185D01*
X180960770Y-88266989D01*
X180970714Y-88336147D01*
X180947243Y-88392811D01*
X180891203Y-88467669D01*
X180891202Y-88467671D01*
X180840908Y-88602517D01*
X180834501Y-88662116D01*
X180834501Y-88662123D01*
X180834500Y-88662135D01*
X180834500Y-88808504D01*
X180814815Y-88875543D01*
X180772501Y-88915890D01*
X180766290Y-88919475D01*
X180766281Y-88919482D01*
X180705244Y-88980520D01*
X180654480Y-89031284D01*
X180654478Y-89031286D01*
X180082432Y-89603333D01*
X179522584Y-90163181D01*
X179461261Y-90196666D01*
X179434903Y-90199500D01*
X176181500Y-90199500D01*
X176114461Y-90179815D01*
X176068706Y-90127011D01*
X176057500Y-90075500D01*
X176057500Y-89763300D01*
X173812900Y-89763300D01*
X173812900Y-90075500D01*
X173793215Y-90142539D01*
X173740411Y-90188294D01*
X173688900Y-90199500D01*
X172335740Y-90199500D01*
X172294819Y-90210464D01*
X172294819Y-90210465D01*
X172257551Y-90220451D01*
X172183014Y-90240423D01*
X172183009Y-90240426D01*
X172046090Y-90319475D01*
X172046084Y-90319480D01*
X171934278Y-90431286D01*
X170709882Y-91655681D01*
X170648559Y-91689166D01*
X170622201Y-91692000D01*
X169729829Y-91692000D01*
X169729823Y-91692001D01*
X169670216Y-91698408D01*
X169535371Y-91748702D01*
X169535364Y-91748706D01*
X169420155Y-91834952D01*
X169420152Y-91834955D01*
X169333906Y-91950164D01*
X169333902Y-91950171D01*
X169283608Y-92085017D01*
X169277201Y-92144616D01*
X169277200Y-92144635D01*
X169277200Y-93484970D01*
X169277201Y-93484976D01*
X169283608Y-93544583D01*
X169333902Y-93679428D01*
X169333906Y-93679435D01*
X169420152Y-93794644D01*
X169420155Y-93794647D01*
X169535364Y-93880893D01*
X169535371Y-93880897D01*
X169670217Y-93931191D01*
X169670216Y-93931191D01*
X169677144Y-93931935D01*
X169729827Y-93937600D01*
X171070172Y-93937599D01*
X171129783Y-93931191D01*
X171264631Y-93880896D01*
X171379846Y-93794646D01*
X171466096Y-93679431D01*
X171516391Y-93544583D01*
X171522800Y-93484973D01*
X171522799Y-92592595D01*
X171542483Y-92525557D01*
X171559113Y-92504920D01*
X172627216Y-91436819D01*
X172688539Y-91403334D01*
X172714897Y-91400500D01*
X176575500Y-91400500D01*
X176642539Y-91420185D01*
X176688294Y-91472989D01*
X176699500Y-91524500D01*
X176699500Y-91578846D01*
X176730261Y-91733489D01*
X176730264Y-91733501D01*
X176790602Y-91879172D01*
X176790609Y-91879185D01*
X176878210Y-92010288D01*
X176878213Y-92010292D01*
X176989707Y-92121786D01*
X176989711Y-92121789D01*
X177120814Y-92209390D01*
X177120827Y-92209397D01*
X177236919Y-92257483D01*
X177266503Y-92269737D01*
X177421153Y-92300499D01*
X177421156Y-92300500D01*
X177421158Y-92300500D01*
X177578844Y-92300500D01*
X177578845Y-92300499D01*
X177733497Y-92269737D01*
X177879179Y-92209394D01*
X177879185Y-92209390D01*
X177988426Y-92136398D01*
X178055104Y-92115520D01*
X178057317Y-92115500D01*
X179839261Y-92115500D01*
X179906300Y-92135185D01*
X179952055Y-92187989D01*
X179962551Y-92226246D01*
X179965909Y-92257483D01*
X180016202Y-92392328D01*
X180016206Y-92392335D01*
X180102452Y-92507544D01*
X180102455Y-92507547D01*
X180217664Y-92593793D01*
X180217671Y-92593797D01*
X180352517Y-92644091D01*
X180352516Y-92644091D01*
X180359444Y-92644835D01*
X180412127Y-92650500D01*
X183234902Y-92650499D01*
X183301941Y-92670184D01*
X183322583Y-92686818D01*
X186863181Y-96227416D01*
X186896666Y-96288739D01*
X186899500Y-96315097D01*
X186899500Y-108684902D01*
X186879815Y-108751941D01*
X186863181Y-108772583D01*
X183322582Y-112313181D01*
X183261259Y-112346666D01*
X183234901Y-112349500D01*
X180412129Y-112349500D01*
X180412123Y-112349501D01*
X180352516Y-112355908D01*
X180217671Y-112406202D01*
X180217664Y-112406206D01*
X180102455Y-112492452D01*
X180102452Y-112492455D01*
X180016206Y-112607664D01*
X180016202Y-112607671D01*
X179965908Y-112742517D01*
X179959501Y-112802116D01*
X179959500Y-112802127D01*
X179959500Y-113480524D01*
X179959501Y-114093834D01*
X179939816Y-114160873D01*
X179887013Y-114206628D01*
X179835501Y-114217834D01*
X168713607Y-114217834D01*
X168646568Y-114198149D01*
X168600813Y-114145345D01*
X168590869Y-114076187D01*
X168618570Y-114015529D01*
X168617924Y-114014999D01*
X168621784Y-114010293D01*
X168621789Y-114010289D01*
X168709394Y-113879179D01*
X168769737Y-113733497D01*
X168800500Y-113578842D01*
X168800500Y-113421158D01*
X168800500Y-113421155D01*
X168800499Y-113421153D01*
X168790069Y-113368717D01*
X168769737Y-113266503D01*
X168728314Y-113166498D01*
X168709397Y-113120827D01*
X168709390Y-113120814D01*
X168621398Y-112989125D01*
X168600520Y-112922447D01*
X168600500Y-112920234D01*
X168600500Y-108379765D01*
X168620185Y-108312726D01*
X168621398Y-108310874D01*
X168709390Y-108179185D01*
X168709390Y-108179184D01*
X168709394Y-108179179D01*
X168769737Y-108033497D01*
X168800500Y-107878842D01*
X168800500Y-107721158D01*
X168800500Y-107721155D01*
X168800499Y-107721153D01*
X168799783Y-107717554D01*
X168769737Y-107566503D01*
X168750259Y-107519478D01*
X168709397Y-107420827D01*
X168709390Y-107420814D01*
X168621789Y-107289711D01*
X168621786Y-107289707D01*
X168510292Y-107178213D01*
X168510288Y-107178210D01*
X168379185Y-107090609D01*
X168379172Y-107090602D01*
X168233501Y-107030264D01*
X168233489Y-107030261D01*
X168078845Y-106999500D01*
X168078842Y-106999500D01*
X167921158Y-106999500D01*
X167921155Y-106999500D01*
X167766510Y-107030261D01*
X167766498Y-107030264D01*
X167620827Y-107090602D01*
X167620814Y-107090609D01*
X167489711Y-107178210D01*
X167489707Y-107178213D01*
X167378213Y-107289707D01*
X167378210Y-107289711D01*
X167290609Y-107420814D01*
X167290602Y-107420827D01*
X167230264Y-107566498D01*
X167230261Y-107566510D01*
X167199500Y-107721153D01*
X167199500Y-107878846D01*
X167230261Y-108033489D01*
X167230264Y-108033501D01*
X167290602Y-108179172D01*
X167290609Y-108179185D01*
X167378602Y-108310874D01*
X167384252Y-108328920D01*
X167394477Y-108344830D01*
X167398928Y-108375789D01*
X167399480Y-108377551D01*
X167399500Y-108379765D01*
X167399500Y-108613444D01*
X167379815Y-108680483D01*
X167327011Y-108726238D01*
X167257853Y-108736182D01*
X167239575Y-108731202D01*
X167239324Y-108732031D01*
X167233500Y-108730264D01*
X167233497Y-108730263D01*
X167233492Y-108730262D01*
X167233489Y-108730261D01*
X167078845Y-108699500D01*
X167078842Y-108699500D01*
X166921158Y-108699500D01*
X166921155Y-108699500D01*
X166766510Y-108730261D01*
X166766498Y-108730264D01*
X166620827Y-108790602D01*
X166620814Y-108790609D01*
X166489711Y-108878210D01*
X166489707Y-108878213D01*
X166378213Y-108989707D01*
X166378210Y-108989711D01*
X166290609Y-109120814D01*
X166290602Y-109120827D01*
X166230264Y-109266498D01*
X166230261Y-109266510D01*
X166199500Y-109421153D01*
X166199500Y-109578846D01*
X166230261Y-109733489D01*
X166230264Y-109733501D01*
X166290602Y-109879172D01*
X166290609Y-109879185D01*
X166378602Y-110010874D01*
X166399480Y-110077551D01*
X166399500Y-110079765D01*
X166399500Y-112820234D01*
X166379815Y-112887273D01*
X166378602Y-112889125D01*
X166290609Y-113020814D01*
X166290602Y-113020827D01*
X166230264Y-113166498D01*
X166230261Y-113166510D01*
X166199500Y-113321153D01*
X166199500Y-113478846D01*
X166230261Y-113633489D01*
X166230264Y-113633501D01*
X166290602Y-113779172D01*
X166290609Y-113779185D01*
X166378210Y-113910288D01*
X166378213Y-113910292D01*
X166474074Y-114006153D01*
X166507559Y-114067476D01*
X166502575Y-114137168D01*
X166460703Y-114193101D01*
X166395239Y-114217518D01*
X166386393Y-114217834D01*
X117408542Y-114217834D01*
X117341503Y-114198149D01*
X117295748Y-114145345D01*
X117284542Y-114093834D01*
X117284542Y-80920943D01*
X118399499Y-80920943D01*
X118399499Y-81079057D01*
X118399499Y-81079059D01*
X118399500Y-81089053D01*
X118399500Y-113079056D01*
X118440423Y-113231783D01*
X118440426Y-113231790D01*
X118519475Y-113368709D01*
X118519479Y-113368714D01*
X118519480Y-113368716D01*
X118631284Y-113480520D01*
X118631286Y-113480521D01*
X118631290Y-113480524D01*
X118768209Y-113559573D01*
X118768216Y-113559577D01*
X118920943Y-113600500D01*
X118920945Y-113600500D01*
X162579055Y-113600500D01*
X162579057Y-113600500D01*
X162731784Y-113559577D01*
X162868716Y-113480520D01*
X162980520Y-113368716D01*
X163059577Y-113231784D01*
X163100500Y-113079057D01*
X163100500Y-108680900D01*
X163120185Y-108613861D01*
X163136819Y-108593219D01*
X165093219Y-106636819D01*
X165154542Y-106603334D01*
X165180900Y-106600500D01*
X169399903Y-106600500D01*
X169466942Y-106620185D01*
X169487584Y-106636819D01*
X172963181Y-110112416D01*
X172977884Y-110139343D01*
X172994477Y-110165162D01*
X172995368Y-110171362D01*
X172996666Y-110173739D01*
X172999500Y-110200097D01*
X172999500Y-110320234D01*
X172979815Y-110387273D01*
X172978602Y-110389125D01*
X172890609Y-110520814D01*
X172890602Y-110520827D01*
X172830264Y-110666498D01*
X172830261Y-110666510D01*
X172799500Y-110821153D01*
X172799500Y-110978846D01*
X172830261Y-111133489D01*
X172830264Y-111133501D01*
X172890602Y-111279172D01*
X172890609Y-111279185D01*
X172978210Y-111410288D01*
X172978213Y-111410292D01*
X173089707Y-111521786D01*
X173089711Y-111521789D01*
X173220814Y-111609390D01*
X173220827Y-111609397D01*
X173366498Y-111669735D01*
X173366503Y-111669737D01*
X173498797Y-111696052D01*
X173521153Y-111700499D01*
X173521156Y-111700500D01*
X173521158Y-111700500D01*
X173678844Y-111700500D01*
X173678845Y-111700499D01*
X173833497Y-111669737D01*
X173979179Y-111609394D01*
X174110289Y-111521789D01*
X174221789Y-111410289D01*
X174309394Y-111279179D01*
X174369737Y-111133497D01*
X174400500Y-110978842D01*
X174400500Y-110821158D01*
X174400500Y-110821155D01*
X174400499Y-110821153D01*
X174377381Y-110704933D01*
X174369737Y-110666503D01*
X174369735Y-110666498D01*
X174309397Y-110520827D01*
X174309390Y-110520814D01*
X174221398Y-110389125D01*
X174200520Y-110322447D01*
X174200500Y-110320234D01*
X174200500Y-109989059D01*
X174200501Y-109989046D01*
X174200501Y-109820945D01*
X174200501Y-109820943D01*
X174159577Y-109668215D01*
X174153816Y-109658238D01*
X174149057Y-109638622D01*
X174139653Y-109620764D01*
X174140988Y-109605363D01*
X174137343Y-109590339D01*
X174143944Y-109571263D01*
X174145688Y-109551156D01*
X174156777Y-109534183D01*
X174160194Y-109524312D01*
X174163068Y-109520437D01*
X174167910Y-109514167D01*
X174221789Y-109460289D01*
X174247939Y-109421153D01*
X175699500Y-109421153D01*
X175699500Y-109578846D01*
X175730261Y-109733489D01*
X175730264Y-109733501D01*
X175790602Y-109879172D01*
X175790609Y-109879185D01*
X175878210Y-110010288D01*
X175878213Y-110010292D01*
X175989707Y-110121786D01*
X175989711Y-110121789D01*
X176120814Y-110209390D01*
X176120827Y-110209397D01*
X176200483Y-110242391D01*
X176266503Y-110269737D01*
X176421153Y-110300499D01*
X176421156Y-110300500D01*
X176421158Y-110300500D01*
X176578844Y-110300500D01*
X176578845Y-110300499D01*
X176733497Y-110269737D01*
X176879179Y-110209394D01*
X177010289Y-110121789D01*
X177121789Y-110010289D01*
X177209394Y-109879179D01*
X177269737Y-109733497D01*
X177300500Y-109578842D01*
X177300500Y-109529899D01*
X177699500Y-109529899D01*
X177699500Y-109687592D01*
X177730261Y-109842235D01*
X177730264Y-109842247D01*
X177790602Y-109987918D01*
X177790609Y-109987931D01*
X177878210Y-110119034D01*
X177878213Y-110119038D01*
X177989707Y-110230532D01*
X177989711Y-110230535D01*
X178120814Y-110318136D01*
X178120827Y-110318143D01*
X178229362Y-110363099D01*
X178266503Y-110378483D01*
X178421153Y-110409245D01*
X178421156Y-110409246D01*
X178421158Y-110409246D01*
X178578844Y-110409246D01*
X178578845Y-110409245D01*
X178733497Y-110378483D01*
X178879179Y-110318140D01*
X179010289Y-110230535D01*
X179121789Y-110119035D01*
X179209394Y-109987925D01*
X179269737Y-109842243D01*
X179300500Y-109687588D01*
X179300500Y-109529904D01*
X179300500Y-109529901D01*
X179300499Y-109529899D01*
X179287693Y-109465520D01*
X179269737Y-109375249D01*
X179256228Y-109342635D01*
X179209397Y-109229573D01*
X179209390Y-109229560D01*
X179121398Y-109097871D01*
X179100520Y-109031193D01*
X179100500Y-109028980D01*
X179100500Y-108300096D01*
X179120185Y-108233057D01*
X179136814Y-108212420D01*
X180358506Y-106990727D01*
X180358511Y-106990724D01*
X180368714Y-106980520D01*
X180368716Y-106980520D01*
X180480520Y-106868716D01*
X180559577Y-106731784D01*
X180589534Y-106619981D01*
X180600500Y-106579058D01*
X180600500Y-106420943D01*
X180600500Y-105035470D01*
X180620185Y-104968431D01*
X180672989Y-104922676D01*
X180742147Y-104912732D01*
X180769063Y-104921694D01*
X180769601Y-104920254D01*
X180912620Y-104973596D01*
X180912627Y-104973598D01*
X180972155Y-104979999D01*
X180972172Y-104980000D01*
X182750000Y-104980000D01*
X183250000Y-104980000D01*
X185027828Y-104980000D01*
X185027844Y-104979999D01*
X185087372Y-104973598D01*
X185087379Y-104973596D01*
X185222086Y-104923354D01*
X185222093Y-104923350D01*
X185337187Y-104837190D01*
X185337190Y-104837187D01*
X185423350Y-104722093D01*
X185423354Y-104722086D01*
X185473596Y-104587379D01*
X185473598Y-104587372D01*
X185479999Y-104527844D01*
X185480000Y-104527827D01*
X185480000Y-102750000D01*
X183250000Y-102750000D01*
X183250000Y-104980000D01*
X182750000Y-104980000D01*
X182750000Y-102250000D01*
X183250000Y-102250000D01*
X185480000Y-102250000D01*
X185480000Y-100472172D01*
X185479999Y-100472155D01*
X185473598Y-100412627D01*
X185473596Y-100412620D01*
X185423354Y-100277913D01*
X185423350Y-100277906D01*
X185337190Y-100162812D01*
X185337187Y-100162809D01*
X185222093Y-100076649D01*
X185222086Y-100076645D01*
X185087379Y-100026403D01*
X185087372Y-100026401D01*
X185027844Y-100020000D01*
X183250000Y-100020000D01*
X183250000Y-102250000D01*
X182750000Y-102250000D01*
X182750000Y-100020000D01*
X180972155Y-100020000D01*
X180912627Y-100026401D01*
X180912620Y-100026403D01*
X180769601Y-100079746D01*
X180768474Y-100076726D01*
X180715632Y-100088212D01*
X180650172Y-100063783D01*
X180608311Y-100007842D01*
X180600500Y-99964529D01*
X180600500Y-95589060D01*
X180600501Y-95589047D01*
X180600501Y-95420944D01*
X180600501Y-95420943D01*
X180559577Y-95268216D01*
X180549060Y-95250000D01*
X180480524Y-95131290D01*
X180480518Y-95131282D01*
X180334573Y-94985337D01*
X180301088Y-94924014D01*
X180300637Y-94921847D01*
X180287918Y-94857906D01*
X180269737Y-94766503D01*
X180269735Y-94766498D01*
X180209397Y-94620827D01*
X180209390Y-94620814D01*
X180121789Y-94489711D01*
X180121786Y-94489707D01*
X180010292Y-94378213D01*
X180010288Y-94378210D01*
X179879185Y-94290609D01*
X179879172Y-94290602D01*
X179733501Y-94230264D01*
X179733489Y-94230261D01*
X179578845Y-94199500D01*
X179578842Y-94199500D01*
X179421158Y-94199500D01*
X179421155Y-94199500D01*
X179266510Y-94230261D01*
X179266498Y-94230264D01*
X179120827Y-94290602D01*
X179120814Y-94290609D01*
X178989711Y-94378210D01*
X178989707Y-94378213D01*
X178878213Y-94489707D01*
X178878210Y-94489711D01*
X178790609Y-94620814D01*
X178790602Y-94620827D01*
X178730264Y-94766498D01*
X178730261Y-94766510D01*
X178699500Y-94921153D01*
X178699500Y-95078846D01*
X178730261Y-95233489D01*
X178730264Y-95233501D01*
X178790602Y-95379172D01*
X178790609Y-95379185D01*
X178878210Y-95510288D01*
X178878213Y-95510292D01*
X178989707Y-95621786D01*
X178989711Y-95621789D01*
X179120814Y-95709390D01*
X179120827Y-95709397D01*
X179208230Y-95745599D01*
X179266503Y-95769737D01*
X179299691Y-95776338D01*
X179361600Y-95808721D01*
X179396176Y-95869436D01*
X179399500Y-95897955D01*
X179399500Y-106199902D01*
X179379815Y-106266941D01*
X179363181Y-106287583D01*
X178019482Y-107631281D01*
X178019478Y-107631287D01*
X177969672Y-107717554D01*
X177940424Y-107768212D01*
X177940423Y-107768213D01*
X177919961Y-107844579D01*
X177899499Y-107920943D01*
X177899499Y-107920945D01*
X177899499Y-108089046D01*
X177899500Y-108089059D01*
X177899500Y-109028980D01*
X177879815Y-109096019D01*
X177878602Y-109097871D01*
X177790609Y-109229560D01*
X177790602Y-109229573D01*
X177730264Y-109375244D01*
X177730261Y-109375256D01*
X177699500Y-109529899D01*
X177300500Y-109529899D01*
X177300500Y-109421158D01*
X177300500Y-109421155D01*
X177300499Y-109421153D01*
X177287084Y-109353712D01*
X177269737Y-109266503D01*
X177254435Y-109229560D01*
X177209397Y-109120827D01*
X177209390Y-109120814D01*
X177121398Y-108989125D01*
X177100520Y-108922447D01*
X177100500Y-108920234D01*
X177100500Y-97300097D01*
X177120185Y-97233058D01*
X177136819Y-97212416D01*
X177428292Y-96920943D01*
X177980520Y-96368716D01*
X178059577Y-96231784D01*
X178100501Y-96079057D01*
X178100501Y-95920942D01*
X178100501Y-95913339D01*
X178100500Y-95913329D01*
X178100500Y-95579765D01*
X178120185Y-95512726D01*
X178121398Y-95510874D01*
X178209390Y-95379185D01*
X178209390Y-95379184D01*
X178209394Y-95379179D01*
X178269737Y-95233497D01*
X178300500Y-95078842D01*
X178300500Y-94921158D01*
X178300500Y-94921155D01*
X178300499Y-94921153D01*
X178287918Y-94857906D01*
X178269737Y-94766503D01*
X178269735Y-94766498D01*
X178209397Y-94620827D01*
X178209390Y-94620814D01*
X178121789Y-94489711D01*
X178121786Y-94489707D01*
X178010292Y-94378213D01*
X178010288Y-94378210D01*
X177879185Y-94290609D01*
X177879172Y-94290602D01*
X177733501Y-94230264D01*
X177733489Y-94230261D01*
X177578845Y-94199500D01*
X177578842Y-94199500D01*
X177421158Y-94199500D01*
X177421155Y-94199500D01*
X177266510Y-94230261D01*
X177266498Y-94230264D01*
X177120827Y-94290602D01*
X177120814Y-94290609D01*
X176989711Y-94378210D01*
X176989707Y-94378213D01*
X176878213Y-94489707D01*
X176878210Y-94489711D01*
X176790609Y-94620814D01*
X176790602Y-94620827D01*
X176730264Y-94766498D01*
X176730261Y-94766510D01*
X176699500Y-94921153D01*
X176699500Y-95078846D01*
X176730261Y-95233489D01*
X176730264Y-95233501D01*
X176790602Y-95379172D01*
X176790609Y-95379185D01*
X176878602Y-95510874D01*
X176884252Y-95528920D01*
X176894477Y-95544830D01*
X176898928Y-95575789D01*
X176899480Y-95577551D01*
X176899500Y-95579765D01*
X176899500Y-95699902D01*
X176879815Y-95766941D01*
X176863181Y-95787583D01*
X176019481Y-96631282D01*
X176019479Y-96631285D01*
X175969361Y-96718094D01*
X175969359Y-96718096D01*
X175940425Y-96768209D01*
X175940424Y-96768210D01*
X175940423Y-96768215D01*
X175899499Y-96920943D01*
X175899499Y-96920945D01*
X175899499Y-97089046D01*
X175899500Y-97089059D01*
X175899500Y-108920234D01*
X175879815Y-108987273D01*
X175878602Y-108989125D01*
X175790609Y-109120814D01*
X175790602Y-109120827D01*
X175730264Y-109266498D01*
X175730261Y-109266510D01*
X175699500Y-109421153D01*
X174247939Y-109421153D01*
X174309394Y-109329179D01*
X174369737Y-109183497D01*
X174400500Y-109028842D01*
X174400500Y-108871158D01*
X174400500Y-108871155D01*
X174400499Y-108871153D01*
X174387178Y-108804184D01*
X174369737Y-108716503D01*
X174354817Y-108680483D01*
X174309397Y-108570827D01*
X174309390Y-108570814D01*
X174222398Y-108440621D01*
X174201520Y-108373943D01*
X174201500Y-108371730D01*
X174201500Y-104340117D01*
X174201501Y-104340104D01*
X174201501Y-104172001D01*
X174160576Y-104019271D01*
X174160573Y-104019266D01*
X174081524Y-103882347D01*
X174081518Y-103882339D01*
X172837533Y-102638355D01*
X172837531Y-102638352D01*
X172718660Y-102519481D01*
X172718659Y-102519480D01*
X172631847Y-102469360D01*
X172631847Y-102469359D01*
X172631843Y-102469358D01*
X172581728Y-102440423D01*
X172429000Y-102399499D01*
X172270886Y-102399499D01*
X172263290Y-102399499D01*
X172263274Y-102399500D01*
X167800097Y-102399500D01*
X167733058Y-102379815D01*
X167712416Y-102363181D01*
X164637590Y-99288355D01*
X164637588Y-99288352D01*
X164518717Y-99169481D01*
X164518716Y-99169480D01*
X164428037Y-99117127D01*
X164381785Y-99090423D01*
X164229057Y-99049499D01*
X164070943Y-99049499D01*
X164063347Y-99049499D01*
X164063331Y-99049500D01*
X162987196Y-99049500D01*
X162920157Y-99029815D01*
X162874402Y-98977011D01*
X162871014Y-98968832D01*
X162853798Y-98922673D01*
X162853793Y-98922664D01*
X162767547Y-98807455D01*
X162767544Y-98807452D01*
X162652335Y-98721206D01*
X162652328Y-98721202D01*
X162517482Y-98670908D01*
X162517483Y-98670908D01*
X162457883Y-98664501D01*
X162457881Y-98664500D01*
X162457873Y-98664500D01*
X162457864Y-98664500D01*
X161462129Y-98664500D01*
X161462123Y-98664501D01*
X161402516Y-98670908D01*
X161267671Y-98721202D01*
X161259886Y-98725454D01*
X161258153Y-98722280D01*
X161208698Y-98740659D01*
X161148768Y-98729886D01*
X161136483Y-98724312D01*
X161132331Y-98721204D01*
X161117157Y-98715544D01*
X161113268Y-98713780D01*
X161089914Y-98693645D01*
X161065231Y-98675166D01*
X161063690Y-98671035D01*
X161060351Y-98668156D01*
X161051588Y-98638586D01*
X161040816Y-98609701D01*
X161040512Y-98601208D01*
X161040500Y-98601166D01*
X161040509Y-98601132D01*
X161040500Y-98600858D01*
X161040500Y-98423445D01*
X161040500Y-98423443D01*
X160999577Y-98270716D01*
X160999577Y-98270715D01*
X160999577Y-98270714D01*
X160970639Y-98220595D01*
X160970637Y-98220592D01*
X160929643Y-98149586D01*
X160920520Y-98133784D01*
X160808716Y-98021980D01*
X160808715Y-98021979D01*
X160804385Y-98017649D01*
X160804374Y-98017639D01*
X160742079Y-97955344D01*
X169277700Y-97955344D01*
X169284101Y-98014872D01*
X169284103Y-98014879D01*
X169334345Y-98149586D01*
X169334349Y-98149593D01*
X169420509Y-98264687D01*
X169420512Y-98264690D01*
X169535606Y-98350850D01*
X169535613Y-98350854D01*
X169670320Y-98401096D01*
X169670327Y-98401098D01*
X169729855Y-98407499D01*
X169729872Y-98407500D01*
X170150000Y-98407500D01*
X170650000Y-98407500D01*
X171070128Y-98407500D01*
X171070144Y-98407499D01*
X171129672Y-98401098D01*
X171129679Y-98401096D01*
X171264386Y-98350854D01*
X171264393Y-98350850D01*
X171379487Y-98264690D01*
X171379490Y-98264687D01*
X171465650Y-98149593D01*
X171465654Y-98149586D01*
X171515896Y-98014879D01*
X171515898Y-98014872D01*
X171522299Y-97955344D01*
X171522300Y-97955327D01*
X171522300Y-97535200D01*
X170650000Y-97535200D01*
X170650000Y-98407500D01*
X170150000Y-98407500D01*
X170150000Y-97535200D01*
X169277700Y-97535200D01*
X169277700Y-97955344D01*
X160742079Y-97955344D01*
X159536819Y-96750084D01*
X159503334Y-96688761D01*
X159500500Y-96662403D01*
X159500500Y-95947844D01*
X164344400Y-95947844D01*
X164350801Y-96007372D01*
X164350803Y-96007379D01*
X164401045Y-96142086D01*
X164401049Y-96142093D01*
X164487209Y-96257187D01*
X164487212Y-96257190D01*
X164602306Y-96343350D01*
X164602313Y-96343354D01*
X164737020Y-96393596D01*
X164737027Y-96393598D01*
X164796555Y-96399999D01*
X164796572Y-96400000D01*
X164922200Y-96400000D01*
X164922200Y-95750000D01*
X164344400Y-95750000D01*
X164344400Y-95947844D01*
X159500500Y-95947844D01*
X159500500Y-95095392D01*
X159500500Y-95095382D01*
X159497925Y-95052155D01*
X164344400Y-95052155D01*
X164344400Y-95250000D01*
X164922200Y-95250000D01*
X164922200Y-94600000D01*
X164796555Y-94600000D01*
X164737027Y-94606401D01*
X164737020Y-94606403D01*
X164602313Y-94656645D01*
X164602306Y-94656649D01*
X164487212Y-94742809D01*
X164487209Y-94742812D01*
X164401049Y-94857906D01*
X164401045Y-94857913D01*
X164350803Y-94992620D01*
X164350801Y-94992627D01*
X164344400Y-95052155D01*
X159497925Y-95052155D01*
X159497751Y-95049237D01*
X159485412Y-94992516D01*
X159454092Y-94848538D01*
X159454090Y-94848531D01*
X159373239Y-94659728D01*
X159373237Y-94659723D01*
X159307651Y-94562819D01*
X159258117Y-94489631D01*
X159258109Y-94489622D01*
X159112877Y-94344390D01*
X159112868Y-94344382D01*
X158944256Y-94230264D01*
X158942777Y-94229263D01*
X158942773Y-94229261D01*
X158942771Y-94229260D01*
X158753968Y-94148409D01*
X158753961Y-94148407D01*
X158553268Y-94104750D01*
X158553267Y-94104749D01*
X158553263Y-94104749D01*
X158507118Y-94102000D01*
X157192882Y-94102000D01*
X157146737Y-94104749D01*
X157146732Y-94104749D01*
X157146731Y-94104750D01*
X156946038Y-94148407D01*
X156946031Y-94148409D01*
X156757228Y-94229260D01*
X156757218Y-94229266D01*
X156587131Y-94344382D01*
X156587122Y-94344390D01*
X156441890Y-94489622D01*
X156441882Y-94489631D01*
X156326766Y-94659718D01*
X156326760Y-94659728D01*
X156245909Y-94848531D01*
X156245907Y-94848538D01*
X156202250Y-95049231D01*
X156202249Y-95049237D01*
X156199500Y-95095382D01*
X156199500Y-96729618D01*
X156202249Y-96775763D01*
X156202249Y-96775767D01*
X156202250Y-96775768D01*
X156245907Y-96976461D01*
X156245909Y-96976468D01*
X156326760Y-97165271D01*
X156326763Y-97165277D01*
X156326766Y-97165281D01*
X156441882Y-97335368D01*
X156441890Y-97335377D01*
X156587122Y-97480609D01*
X156587131Y-97480617D01*
X156630977Y-97510292D01*
X156757223Y-97595737D01*
X156757228Y-97595739D01*
X156946031Y-97676590D01*
X156946038Y-97676592D01*
X157003248Y-97689037D01*
X157146737Y-97720251D01*
X157192882Y-97723000D01*
X157192893Y-97723000D01*
X158507107Y-97723000D01*
X158507118Y-97723000D01*
X158553263Y-97720251D01*
X158696750Y-97689037D01*
X158766439Y-97694021D01*
X158810787Y-97722522D01*
X159681822Y-98593557D01*
X159715307Y-98654880D01*
X159710323Y-98724572D01*
X159668454Y-98780503D01*
X159632454Y-98807453D01*
X159632452Y-98807455D01*
X159546206Y-98922664D01*
X159546202Y-98922671D01*
X159495908Y-99057517D01*
X159489501Y-99117116D01*
X159489500Y-99117127D01*
X159489500Y-100182870D01*
X159489501Y-100182876D01*
X159495908Y-100242483D01*
X159546202Y-100377328D01*
X159546206Y-100377335D01*
X159632452Y-100492544D01*
X159632455Y-100492547D01*
X159747664Y-100578793D01*
X159747671Y-100578797D01*
X159882517Y-100629091D01*
X159882516Y-100629091D01*
X159889444Y-100629835D01*
X159942127Y-100635500D01*
X160937872Y-100635499D01*
X160997483Y-100629091D01*
X161132329Y-100578797D01*
X161140112Y-100574547D01*
X161141865Y-100577757D01*
X161190999Y-100559361D01*
X161259291Y-100574127D01*
X161260263Y-100574752D01*
X161267670Y-100578797D01*
X161402517Y-100629091D01*
X161402516Y-100629091D01*
X161409444Y-100629835D01*
X161462127Y-100635500D01*
X162457872Y-100635499D01*
X162517483Y-100629091D01*
X162652331Y-100578796D01*
X162767546Y-100492546D01*
X162853796Y-100377331D01*
X162871014Y-100331168D01*
X162912884Y-100275234D01*
X162978348Y-100250816D01*
X162987196Y-100250500D01*
X163849903Y-100250500D01*
X163916942Y-100270185D01*
X163937584Y-100286819D01*
X167015139Y-103364374D01*
X167015149Y-103364385D01*
X167019479Y-103368715D01*
X167019480Y-103368716D01*
X167131284Y-103480520D01*
X167131286Y-103480521D01*
X167131290Y-103480524D01*
X167268209Y-103559573D01*
X167268216Y-103559577D01*
X167380019Y-103589534D01*
X167420942Y-103600500D01*
X167420943Y-103600500D01*
X172049846Y-103600500D01*
X172079286Y-103609144D01*
X172109273Y-103615668D01*
X172114288Y-103619422D01*
X172116885Y-103620185D01*
X172137527Y-103636819D01*
X172188527Y-103687819D01*
X172222012Y-103749142D01*
X172217028Y-103818834D01*
X172175156Y-103874767D01*
X172109692Y-103899184D01*
X172100846Y-103899500D01*
X160800097Y-103899500D01*
X160733058Y-103879815D01*
X160712416Y-103863181D01*
X152636819Y-95787584D01*
X152603334Y-95726261D01*
X152600500Y-95699903D01*
X152600500Y-92896157D01*
X163565000Y-92896157D01*
X163580669Y-93015165D01*
X163580670Y-93015169D01*
X163642007Y-93163251D01*
X163739584Y-93290415D01*
X163866748Y-93387992D01*
X163866747Y-93387992D01*
X164014830Y-93449329D01*
X164014834Y-93449330D01*
X164133842Y-93464999D01*
X164133857Y-93465000D01*
X164250000Y-93465000D01*
X164250000Y-92750000D01*
X163565000Y-92750000D01*
X163565000Y-92896157D01*
X152600500Y-92896157D01*
X152600500Y-81800097D01*
X152620185Y-81733058D01*
X152636819Y-81712416D01*
X156212416Y-78136819D01*
X156273739Y-78103334D01*
X156300097Y-78100500D01*
X158731825Y-78100500D01*
X158798864Y-78120185D01*
X158844619Y-78172989D01*
X158854563Y-78242147D01*
X158848007Y-78267833D01*
X158795908Y-78407517D01*
X158789501Y-78467116D01*
X158789501Y-78467123D01*
X158789500Y-78467135D01*
X158789500Y-79049901D01*
X158769815Y-79116940D01*
X158753181Y-79137582D01*
X157481286Y-80409478D01*
X157369481Y-80521282D01*
X157369479Y-80521285D01*
X157337623Y-80576463D01*
X157337622Y-80576465D01*
X157290423Y-80658214D01*
X157290423Y-80658215D01*
X157249499Y-80810943D01*
X157249499Y-80810945D01*
X157249499Y-80892503D01*
X157229814Y-80959542D01*
X157177010Y-81005297D01*
X157151223Y-81012801D01*
X157151425Y-81013729D01*
X156946038Y-81058407D01*
X156946031Y-81058409D01*
X156757228Y-81139260D01*
X156757218Y-81139266D01*
X156587131Y-81254382D01*
X156587122Y-81254390D01*
X156441890Y-81399622D01*
X156441882Y-81399631D01*
X156326766Y-81569718D01*
X156326760Y-81569728D01*
X156245909Y-81758531D01*
X156245907Y-81758538D01*
X156204297Y-81949822D01*
X156202249Y-81959237D01*
X156199500Y-82005382D01*
X156199500Y-83639618D01*
X156202249Y-83685763D01*
X156202249Y-83685767D01*
X156202250Y-83685768D01*
X156245907Y-83886461D01*
X156245909Y-83886468D01*
X156323425Y-84067482D01*
X156326763Y-84075277D01*
X156326766Y-84075281D01*
X156441882Y-84245368D01*
X156441890Y-84245377D01*
X156587122Y-84390609D01*
X156587131Y-84390617D01*
X156680916Y-84454091D01*
X156757223Y-84505737D01*
X156765462Y-84509265D01*
X156946031Y-84586590D01*
X156946038Y-84586592D01*
X156993783Y-84596978D01*
X157146737Y-84630251D01*
X157192882Y-84633000D01*
X157192893Y-84633000D01*
X158507107Y-84633000D01*
X158507118Y-84633000D01*
X158553263Y-84630251D01*
X158728954Y-84592031D01*
X158753961Y-84586592D01*
X158753968Y-84586590D01*
X158844387Y-84547870D01*
X158942777Y-84505737D01*
X159084179Y-84410033D01*
X159112868Y-84390617D01*
X159112869Y-84390615D01*
X159112875Y-84390612D01*
X159258112Y-84245375D01*
X159373237Y-84075277D01*
X159454091Y-83886465D01*
X159497751Y-83685763D01*
X159500500Y-83639618D01*
X159500500Y-82005382D01*
X159497751Y-81959237D01*
X159468644Y-81825435D01*
X159454092Y-81758538D01*
X159454090Y-81758531D01*
X159373239Y-81569728D01*
X159373237Y-81569723D01*
X159319081Y-81489707D01*
X159258117Y-81399631D01*
X159258109Y-81399622D01*
X159112877Y-81254390D01*
X159112868Y-81254382D01*
X158974800Y-81160936D01*
X158942777Y-81139263D01*
X158942773Y-81139261D01*
X158942771Y-81139260D01*
X158825526Y-81089053D01*
X158766144Y-81063624D01*
X158712268Y-81019140D01*
X158690993Y-80952588D01*
X158709077Y-80885099D01*
X158727272Y-80861961D01*
X159567417Y-80021818D01*
X159628740Y-79988333D01*
X159655098Y-79985499D01*
X160237871Y-79985499D01*
X160237872Y-79985499D01*
X160297483Y-79979091D01*
X160394106Y-79943053D01*
X160432329Y-79928797D01*
X160440112Y-79924547D01*
X160441865Y-79927757D01*
X160490999Y-79909361D01*
X160559291Y-79924127D01*
X160560263Y-79924752D01*
X160567670Y-79928797D01*
X160702517Y-79979091D01*
X160702516Y-79979091D01*
X160709444Y-79979835D01*
X160762127Y-79985500D01*
X161757872Y-79985499D01*
X161817483Y-79979091D01*
X161952331Y-79928796D01*
X162067546Y-79842546D01*
X162153796Y-79727331D01*
X162204091Y-79592483D01*
X162210500Y-79532873D01*
X162210499Y-78467128D01*
X162204091Y-78407517D01*
X162204060Y-78407435D01*
X162153797Y-78272671D01*
X162153793Y-78272664D01*
X162067547Y-78157455D01*
X162067544Y-78157452D01*
X161952335Y-78071206D01*
X161952328Y-78071202D01*
X161817482Y-78020908D01*
X161817483Y-78020908D01*
X161757883Y-78014501D01*
X161757881Y-78014500D01*
X161757873Y-78014500D01*
X161757865Y-78014500D01*
X161175097Y-78014500D01*
X161108058Y-77994815D01*
X161087416Y-77978181D01*
X160247590Y-77138355D01*
X160247588Y-77138352D01*
X160128717Y-77019481D01*
X160128709Y-77019475D01*
X160011465Y-76951785D01*
X160011465Y-76951784D01*
X160011460Y-76951783D01*
X160004594Y-76947818D01*
X159991786Y-76940423D01*
X159953603Y-76930192D01*
X159839057Y-76899499D01*
X159680943Y-76899499D01*
X159673347Y-76899499D01*
X159673331Y-76899500D01*
X155920942Y-76899500D01*
X155768214Y-76940423D01*
X155752696Y-76949382D01*
X155748540Y-76951783D01*
X155748538Y-76951784D01*
X155748535Y-76951785D01*
X155631290Y-77019475D01*
X155631282Y-77019481D01*
X151519479Y-81131284D01*
X151491797Y-81179232D01*
X151480096Y-81199500D01*
X151440423Y-81268215D01*
X151399499Y-81420943D01*
X151399499Y-81420945D01*
X151399499Y-81589046D01*
X151399500Y-81589059D01*
X151399500Y-95913330D01*
X151399499Y-95913348D01*
X151399499Y-96079054D01*
X151399498Y-96079054D01*
X151399499Y-96079057D01*
X151440423Y-96231785D01*
X151468962Y-96281216D01*
X151519477Y-96368712D01*
X151519481Y-96368717D01*
X151638349Y-96487585D01*
X151638355Y-96487590D01*
X160015139Y-104864374D01*
X160015149Y-104864385D01*
X160019479Y-104868715D01*
X160019480Y-104868716D01*
X160131284Y-104980520D01*
X160196742Y-105018311D01*
X160218095Y-105030639D01*
X160218097Y-105030641D01*
X160268213Y-105059576D01*
X160268215Y-105059577D01*
X160420942Y-105100500D01*
X160420943Y-105100500D01*
X172420234Y-105100500D01*
X172487273Y-105120185D01*
X172489125Y-105121398D01*
X172620814Y-105209390D01*
X172620827Y-105209397D01*
X172766498Y-105269735D01*
X172766503Y-105269737D01*
X172860645Y-105288463D01*
X172900691Y-105296429D01*
X172962602Y-105328814D01*
X172997176Y-105389529D01*
X173000500Y-105418046D01*
X173000500Y-108151903D01*
X172980815Y-108218942D01*
X172928011Y-108264697D01*
X172858853Y-108274641D01*
X172795297Y-108245616D01*
X172788819Y-108239584D01*
X170187590Y-105638355D01*
X170187588Y-105638352D01*
X170068717Y-105519481D01*
X170068716Y-105519480D01*
X169981904Y-105469360D01*
X169981904Y-105469359D01*
X169981900Y-105469358D01*
X169931785Y-105440423D01*
X169779057Y-105399499D01*
X169620943Y-105399499D01*
X169613347Y-105399499D01*
X169613331Y-105399500D01*
X164967472Y-105399500D01*
X164967456Y-105399499D01*
X164959860Y-105399499D01*
X164801746Y-105399499D01*
X164694390Y-105428265D01*
X164649013Y-105440424D01*
X164649012Y-105440425D01*
X164598899Y-105469359D01*
X164598898Y-105469360D01*
X164555492Y-105494420D01*
X164512088Y-105519479D01*
X164512085Y-105519481D01*
X162019481Y-108012085D01*
X162019475Y-108012093D01*
X161980815Y-108079056D01*
X161980815Y-108079057D01*
X161940423Y-108149018D01*
X161899499Y-108301746D01*
X161899499Y-108301748D01*
X161899499Y-108469849D01*
X161899500Y-108469862D01*
X161899500Y-112275500D01*
X161879815Y-112342539D01*
X161827011Y-112388294D01*
X161775500Y-112399500D01*
X119724500Y-112399500D01*
X119657461Y-112379815D01*
X119611706Y-112327011D01*
X119600500Y-112275500D01*
X119600500Y-99138403D01*
X136792040Y-99138403D01*
X136792040Y-99138414D01*
X136809216Y-108406620D01*
X136809217Y-108406643D01*
X136814676Y-108479789D01*
X136814677Y-108479794D01*
X136855807Y-108617666D01*
X136855808Y-108617668D01*
X136934117Y-108738370D01*
X136934119Y-108738372D01*
X137043263Y-108832123D01*
X137092820Y-108854496D01*
X137174397Y-108891326D01*
X139441883Y-109546493D01*
X139802834Y-109650786D01*
X139802846Y-109650789D01*
X139827384Y-109656044D01*
X139872258Y-109665656D01*
X140016138Y-109665355D01*
X140154105Y-109624532D01*
X140236613Y-109571263D01*
X140274979Y-109546493D01*
X140274979Y-109546492D01*
X140274982Y-109546491D01*
X140368976Y-109437557D01*
X140428473Y-109306555D01*
X140428474Y-109306551D01*
X140448651Y-109164110D01*
X140448651Y-109164104D01*
X140448652Y-109164097D01*
X140442935Y-106426057D01*
X140462480Y-106358978D01*
X140515188Y-106313113D01*
X140566935Y-106301800D01*
X141321806Y-106301800D01*
X141347643Y-106303409D01*
X141359564Y-106301800D01*
X141363691Y-106301800D01*
X141417749Y-106298901D01*
X141451968Y-106290164D01*
X141466040Y-106287427D01*
X141479333Y-106285634D01*
X141483051Y-106286202D01*
X141485937Y-106285382D01*
X141486000Y-106285366D01*
X141490226Y-106284164D01*
X141490230Y-106284164D01*
X141495957Y-106282536D01*
X141495956Y-106282535D01*
X141514902Y-106277149D01*
X141514903Y-106277150D01*
X141528464Y-106273296D01*
X141528490Y-106273286D01*
X141530056Y-106272842D01*
X141530079Y-106272835D01*
X141535279Y-106271356D01*
X141539583Y-106269481D01*
X141579714Y-106255712D01*
X141583462Y-106253530D01*
X141592437Y-106249034D01*
X141592343Y-106248836D01*
X141618603Y-106236272D01*
X141642728Y-106224731D01*
X141671025Y-106203545D01*
X141682978Y-106195632D01*
X141684542Y-106194721D01*
X141694539Y-106188905D01*
X141698206Y-106188002D01*
X141700595Y-106186112D01*
X141700628Y-106186087D01*
X141704072Y-106183359D01*
X141704077Y-106183357D01*
X141708746Y-106179660D01*
X141708745Y-106179659D01*
X141713358Y-106176007D01*
X141713373Y-106175995D01*
X141724175Y-106167443D01*
X141724176Y-106167444D01*
X141997230Y-105951276D01*
X142062008Y-105925099D01*
X142130658Y-105938100D01*
X142181381Y-105986151D01*
X142198195Y-106048499D01*
X142198195Y-110030448D01*
X142203649Y-110104504D01*
X142203650Y-110104512D01*
X142221739Y-110165162D01*
X142234931Y-110209397D01*
X142244772Y-110242391D01*
X142323070Y-110363094D01*
X142323074Y-110363099D01*
X142432205Y-110456855D01*
X142432206Y-110456856D01*
X142432207Y-110456856D01*
X142432208Y-110456857D01*
X142563339Y-110516071D01*
X147817953Y-112034775D01*
X147817954Y-112034775D01*
X147817963Y-112034778D01*
X147844268Y-112040441D01*
X147853056Y-112042675D01*
X147891602Y-112053993D01*
X147891604Y-112053993D01*
X148035483Y-112053993D01*
X148074003Y-112042682D01*
X148173534Y-112013457D01*
X148294574Y-111935669D01*
X148388796Y-111826932D01*
X148448566Y-111696054D01*
X148469042Y-111553638D01*
X148469042Y-110933219D01*
X148488727Y-110866180D01*
X148541531Y-110820425D01*
X148610689Y-110810481D01*
X148627501Y-110814103D01*
X148651885Y-110821158D01*
X149085106Y-110946493D01*
X149085114Y-110946495D01*
X149085121Y-110946497D01*
X149187538Y-110964975D01*
X149187542Y-110964974D01*
X149187545Y-110964975D01*
X149278890Y-110958806D01*
X149331092Y-110955281D01*
X149466099Y-110905537D01*
X149581623Y-110819771D01*
X149668305Y-110704933D01*
X149719122Y-110570325D01*
X149729956Y-110426853D01*
X149728612Y-110420552D01*
X149725882Y-110394677D01*
X149725882Y-102571846D01*
X149725882Y-102571843D01*
X149720403Y-102497618D01*
X149691105Y-102399499D01*
X149679238Y-102359755D01*
X149679236Y-102359752D01*
X149600898Y-102239070D01*
X149491731Y-102145346D01*
X149491728Y-102145344D01*
X149360582Y-102086174D01*
X142843913Y-100204992D01*
X142843898Y-100204988D01*
X142843895Y-100204987D01*
X142843894Y-100204987D01*
X142775635Y-100190301D01*
X142631755Y-100190301D01*
X142631754Y-100190301D01*
X142493700Y-100230838D01*
X142372664Y-100308623D01*
X142372660Y-100308627D01*
X142278445Y-100417356D01*
X142278439Y-100417365D01*
X142218671Y-100548236D01*
X142218670Y-100548241D01*
X142198195Y-100690655D01*
X142198195Y-104187638D01*
X142178510Y-104254677D01*
X142151162Y-104284860D01*
X141844236Y-104527844D01*
X141203026Y-105035470D01*
X141166960Y-105064022D01*
X141102180Y-105090200D01*
X141089993Y-105090800D01*
X140563889Y-105090800D01*
X140496850Y-105071115D01*
X140451095Y-105018311D01*
X140439889Y-104967059D01*
X140436542Y-103364374D01*
X140429299Y-99895245D01*
X140423839Y-99822197D01*
X140382707Y-99684321D01*
X140304396Y-99563619D01*
X140195253Y-99469869D01*
X140195251Y-99469868D01*
X140195252Y-99469868D01*
X140115586Y-99433902D01*
X140064117Y-99410665D01*
X140064114Y-99410664D01*
X140064112Y-99410663D01*
X137692615Y-98725454D01*
X137437856Y-98651845D01*
X137394546Y-98642563D01*
X137368553Y-98636993D01*
X137368552Y-98636993D01*
X137339776Y-98637046D01*
X137224668Y-98637259D01*
X137086695Y-98678050D01*
X137086694Y-98678051D01*
X136965799Y-98756062D01*
X136965797Y-98756064D01*
X136871779Y-98864975D01*
X136812251Y-98995963D01*
X136792040Y-99138403D01*
X119600500Y-99138403D01*
X119600500Y-81300097D01*
X119620185Y-81233058D01*
X119636819Y-81212416D01*
X120070235Y-80779000D01*
X120514662Y-80334572D01*
X120575983Y-80301089D01*
X120578150Y-80300638D01*
X120651577Y-80286032D01*
X120733497Y-80269737D01*
X120879179Y-80209394D01*
X121010289Y-80121789D01*
X121121789Y-80010289D01*
X121209394Y-79879179D01*
X121269737Y-79733497D01*
X121300500Y-79578842D01*
X121300500Y-79421158D01*
X121300500Y-79421155D01*
X121300499Y-79421153D01*
X121276640Y-79301206D01*
X121269737Y-79266503D01*
X121263278Y-79250909D01*
X121209397Y-79120827D01*
X121209390Y-79120814D01*
X121121789Y-78989711D01*
X121121786Y-78989707D01*
X121010292Y-78878213D01*
X121010288Y-78878210D01*
X120879185Y-78790609D01*
X120879172Y-78790602D01*
X120733501Y-78730264D01*
X120733489Y-78730261D01*
X120578845Y-78699500D01*
X120578842Y-78699500D01*
X120421158Y-78699500D01*
X120421155Y-78699500D01*
X120266510Y-78730261D01*
X120266498Y-78730264D01*
X120120827Y-78790602D01*
X120120814Y-78790609D01*
X119989711Y-78878210D01*
X119989707Y-78878213D01*
X119878213Y-78989707D01*
X119878210Y-78989711D01*
X119790609Y-79120814D01*
X119790602Y-79120827D01*
X119730264Y-79266498D01*
X119730261Y-79266508D01*
X119699361Y-79421850D01*
X119666976Y-79483761D01*
X119665425Y-79485339D01*
X118519481Y-80631282D01*
X118519479Y-80631285D01*
X118469361Y-80718094D01*
X118469359Y-80718096D01*
X118440425Y-80768209D01*
X118440424Y-80768210D01*
X118434670Y-80789685D01*
X118399499Y-80920943D01*
X117284542Y-80920943D01*
X117284542Y-79977010D01*
X117304227Y-79909971D01*
X117320861Y-79889329D01*
X121955037Y-75255153D01*
X122016360Y-75221668D01*
X122042718Y-75218834D01*
X172849266Y-75218834D01*
X172916305Y-75238519D01*
G37*
%TD.AperFunction*%
%TA.AperFunction,Conductor*%
G36*
X191237208Y-88579926D02*
G01*
X191277140Y-88637261D01*
X191283542Y-88676590D01*
X191283542Y-109459658D01*
X191263857Y-109526697D01*
X191247223Y-109547339D01*
X186613047Y-114181515D01*
X186551724Y-114215000D01*
X186525366Y-114217834D01*
X186164500Y-114217834D01*
X186097461Y-114198149D01*
X186051706Y-114145345D01*
X186040500Y-114093834D01*
X186040499Y-112802129D01*
X186040498Y-112802123D01*
X186040497Y-112802116D01*
X186034091Y-112742517D01*
X185983796Y-112607669D01*
X185983795Y-112607668D01*
X185983793Y-112607664D01*
X185897547Y-112492455D01*
X185897544Y-112492452D01*
X185782335Y-112406206D01*
X185782328Y-112406202D01*
X185647482Y-112355908D01*
X185647483Y-112355908D01*
X185587883Y-112349501D01*
X185587881Y-112349500D01*
X185587873Y-112349500D01*
X185587865Y-112349500D01*
X185284096Y-112349500D01*
X185217057Y-112329815D01*
X185171302Y-112277011D01*
X185161358Y-112207853D01*
X185190383Y-112144297D01*
X185196415Y-112137819D01*
X186523753Y-110810481D01*
X187858506Y-109475728D01*
X187858511Y-109475724D01*
X187868714Y-109465520D01*
X187868716Y-109465520D01*
X187980520Y-109353716D01*
X188058971Y-109217834D01*
X188059577Y-109216785D01*
X188100501Y-109064057D01*
X188100501Y-108905943D01*
X188100501Y-108898348D01*
X188100500Y-108898330D01*
X188100500Y-96104059D01*
X188100501Y-96104046D01*
X188100501Y-95935945D01*
X188100501Y-95935943D01*
X188059577Y-95783215D01*
X188016956Y-95709394D01*
X187980520Y-95646284D01*
X187868716Y-95534480D01*
X187868715Y-95534479D01*
X187864385Y-95530149D01*
X187864374Y-95530139D01*
X185196415Y-92862180D01*
X185162930Y-92800857D01*
X185167914Y-92731165D01*
X185209786Y-92675232D01*
X185275250Y-92650815D01*
X185284096Y-92650499D01*
X185587871Y-92650499D01*
X185587872Y-92650499D01*
X185647483Y-92644091D01*
X185782331Y-92593796D01*
X185897546Y-92507546D01*
X185983796Y-92392331D01*
X186034091Y-92257483D01*
X186040500Y-92197873D01*
X186040499Y-91115499D01*
X186060184Y-91048461D01*
X186112987Y-91002706D01*
X186164499Y-90991500D01*
X187222331Y-90991500D01*
X187222347Y-90991501D01*
X187229943Y-90991501D01*
X187388054Y-90991501D01*
X187388057Y-90991501D01*
X187540785Y-90950577D01*
X187603272Y-90914500D01*
X187677716Y-90871520D01*
X187789520Y-90759716D01*
X187789520Y-90759714D01*
X187799724Y-90749511D01*
X187799730Y-90749504D01*
X187914662Y-90634572D01*
X187975984Y-90601088D01*
X187978151Y-90600637D01*
X187978840Y-90600500D01*
X187978842Y-90600500D01*
X188133497Y-90569737D01*
X188279179Y-90509394D01*
X188410289Y-90421789D01*
X188416323Y-90415755D01*
X188423756Y-90410831D01*
X188426998Y-90406244D01*
X188442308Y-90398545D01*
X188457498Y-90388485D01*
X188464556Y-90385628D01*
X188561785Y-90359577D01*
X188631233Y-90319481D01*
X188698716Y-90280520D01*
X188810520Y-90168716D01*
X188810520Y-90168714D01*
X188820724Y-90158511D01*
X188820727Y-90158506D01*
X190077417Y-88901818D01*
X190138740Y-88868333D01*
X190165098Y-88865499D01*
X190617764Y-88865499D01*
X190617776Y-88865499D01*
X190652315Y-88862782D01*
X190800135Y-88819836D01*
X190932631Y-88741478D01*
X191041478Y-88632631D01*
X191052809Y-88613470D01*
X191103877Y-88565786D01*
X191172619Y-88553281D01*
X191237208Y-88579926D01*
G37*
%TD.AperFunction*%
%TA.AperFunction,Conductor*%
G36*
X191226581Y-75238519D02*
G01*
X191272336Y-75291323D01*
X191283542Y-75342834D01*
X191283542Y-87123409D01*
X191263857Y-87190448D01*
X191211053Y-87236203D01*
X191141895Y-87246147D01*
X191078339Y-87217122D01*
X191052810Y-87186530D01*
X191041480Y-87167372D01*
X191041473Y-87167363D01*
X190932636Y-87058526D01*
X190932627Y-87058519D01*
X190800133Y-86980163D01*
X190800130Y-86980162D01*
X190652319Y-86937218D01*
X190652313Y-86937217D01*
X190617777Y-86934500D01*
X189842235Y-86934500D01*
X189842210Y-86934501D01*
X189807684Y-86937218D01*
X189659869Y-86980162D01*
X189659866Y-86980163D01*
X189527368Y-87058521D01*
X189521648Y-87062959D01*
X189456611Y-87088491D01*
X189388094Y-87074808D01*
X189370166Y-87063352D01*
X189303251Y-87012007D01*
X189303252Y-87012007D01*
X189155169Y-86950670D01*
X189155165Y-86950669D01*
X189036157Y-86935000D01*
X188920000Y-86935000D01*
X188920000Y-87776000D01*
X188900315Y-87843039D01*
X188847511Y-87888794D01*
X188796000Y-87900000D01*
X188670000Y-87900000D01*
X188670000Y-88026000D01*
X188650315Y-88093039D01*
X188597511Y-88138794D01*
X188546000Y-88150000D01*
X187735000Y-88150000D01*
X187735000Y-88296157D01*
X187750669Y-88415165D01*
X187750670Y-88415169D01*
X187812007Y-88563251D01*
X187909582Y-88690414D01*
X188022585Y-88777124D01*
X188063787Y-88833552D01*
X188067942Y-88903298D01*
X188033730Y-88964219D01*
X187972012Y-88996971D01*
X187947098Y-88999500D01*
X187821155Y-88999500D01*
X187666510Y-89030261D01*
X187666498Y-89030264D01*
X187520827Y-89090602D01*
X187520814Y-89090609D01*
X187389711Y-89178210D01*
X187389709Y-89178212D01*
X187278213Y-89289707D01*
X187278210Y-89289711D01*
X187190609Y-89420814D01*
X187190602Y-89420827D01*
X187130264Y-89566498D01*
X187130261Y-89566510D01*
X187105560Y-89690691D01*
X187073175Y-89752602D01*
X187012460Y-89787176D01*
X186983943Y-89790500D01*
X184789500Y-89790500D01*
X184722461Y-89770815D01*
X184676706Y-89718011D01*
X184665500Y-89666500D01*
X184665499Y-88662129D01*
X184665498Y-88662123D01*
X184665497Y-88662116D01*
X184659091Y-88602517D01*
X184645391Y-88565786D01*
X184608797Y-88467671D01*
X184608793Y-88467664D01*
X184522547Y-88352455D01*
X184522544Y-88352452D01*
X184407335Y-88266206D01*
X184407328Y-88266202D01*
X184272482Y-88215908D01*
X184272483Y-88215908D01*
X184212883Y-88209501D01*
X184212881Y-88209500D01*
X184212873Y-88209500D01*
X184212865Y-88209500D01*
X183415098Y-88209500D01*
X183348059Y-88189815D01*
X183327417Y-88173181D01*
X183043030Y-87888794D01*
X182658077Y-87503842D01*
X187735000Y-87503842D01*
X187735000Y-87650000D01*
X188420000Y-87650000D01*
X188420000Y-86935000D01*
X188303842Y-86935000D01*
X188184834Y-86950669D01*
X188184830Y-86950670D01*
X188036748Y-87012007D01*
X187909584Y-87109584D01*
X187812007Y-87236748D01*
X187750670Y-87384830D01*
X187750669Y-87384834D01*
X187735000Y-87503842D01*
X182658077Y-87503842D01*
X182386589Y-87232354D01*
X182386588Y-87232352D01*
X182267717Y-87113481D01*
X182267716Y-87113480D01*
X182172525Y-87058522D01*
X182172524Y-87058521D01*
X182130783Y-87034422D01*
X182074881Y-87019443D01*
X181978057Y-86993499D01*
X181819943Y-86993499D01*
X181812347Y-86993499D01*
X181812331Y-86993500D01*
X178753531Y-86993500D01*
X178686492Y-86973815D01*
X178665850Y-86957181D01*
X178170850Y-86462181D01*
X178137365Y-86400858D01*
X178142349Y-86331166D01*
X178184221Y-86275233D01*
X178249685Y-86250816D01*
X178258531Y-86250500D01*
X178357711Y-86250500D01*
X178401539Y-86245236D01*
X178445369Y-86239973D01*
X178584869Y-86184962D01*
X178704353Y-86094353D01*
X178794962Y-85974869D01*
X178849973Y-85835369D01*
X178851952Y-85818884D01*
X178867680Y-85771670D01*
X178872776Y-85762844D01*
X179535000Y-85762844D01*
X179541401Y-85822372D01*
X179541403Y-85822379D01*
X179591645Y-85957086D01*
X179591649Y-85957093D01*
X179677809Y-86072187D01*
X179677812Y-86072190D01*
X179792906Y-86158350D01*
X179792913Y-86158354D01*
X179927620Y-86208596D01*
X179927627Y-86208598D01*
X179987155Y-86214999D01*
X179987172Y-86215000D01*
X180250000Y-86215000D01*
X180750000Y-86215000D01*
X181012828Y-86215000D01*
X181012844Y-86214999D01*
X181072372Y-86208598D01*
X181072379Y-86208596D01*
X181207086Y-86158354D01*
X181207093Y-86158350D01*
X181322187Y-86072190D01*
X181322190Y-86072187D01*
X181408350Y-85957093D01*
X181408354Y-85957086D01*
X181458596Y-85822379D01*
X181458598Y-85822372D01*
X181464999Y-85762844D01*
X181465000Y-85762827D01*
X181465000Y-85520000D01*
X180750000Y-85520000D01*
X180750000Y-86215000D01*
X180250000Y-86215000D01*
X180250000Y-85520000D01*
X179535000Y-85520000D01*
X179535000Y-85762844D01*
X178872776Y-85762844D01*
X178919576Y-85681784D01*
X178960499Y-85529057D01*
X178960499Y-85370943D01*
X178919576Y-85218216D01*
X178867679Y-85128327D01*
X178856230Y-85101738D01*
X178853213Y-85091613D01*
X178849973Y-85064631D01*
X178830336Y-85014835D01*
X178828814Y-85009726D01*
X178828695Y-84979911D01*
X178826015Y-84950220D01*
X178828542Y-84941610D01*
X178828536Y-84939857D01*
X178829503Y-84938337D01*
X178832297Y-84928825D01*
X178849482Y-84885249D01*
X178860000Y-84797667D01*
X178860000Y-84750000D01*
X178672673Y-84750000D01*
X178605634Y-84730315D01*
X178597748Y-84724804D01*
X178584871Y-84715039D01*
X178584869Y-84715038D01*
X178445369Y-84660027D01*
X178445368Y-84660026D01*
X178357711Y-84649500D01*
X178357710Y-84649500D01*
X177809000Y-84649500D01*
X177800314Y-84646949D01*
X177791353Y-84648238D01*
X177767312Y-84637259D01*
X177741961Y-84629815D01*
X177736033Y-84622974D01*
X177727797Y-84619213D01*
X177713507Y-84596978D01*
X177696206Y-84577011D01*
X177693918Y-84566496D01*
X177690023Y-84560435D01*
X177685000Y-84525500D01*
X177685000Y-84474500D01*
X177704685Y-84407461D01*
X177757489Y-84361706D01*
X177809000Y-84350500D01*
X178357711Y-84350500D01*
X178401539Y-84345236D01*
X178445369Y-84339973D01*
X178584869Y-84284962D01*
X178590577Y-84280633D01*
X178597748Y-84275196D01*
X178663060Y-84250373D01*
X178672673Y-84250000D01*
X178859999Y-84250000D01*
X178870183Y-84239815D01*
X178879684Y-84207461D01*
X178932488Y-84161706D01*
X178983999Y-84150500D01*
X179415336Y-84150500D01*
X179482375Y-84170185D01*
X179528130Y-84222989D01*
X179531701Y-84231661D01*
X179536990Y-84246028D01*
X179540909Y-84282483D01*
X179591204Y-84417331D01*
X179608618Y-84440594D01*
X179614871Y-84457577D01*
X179616049Y-84475108D01*
X179622190Y-84491571D01*
X179618345Y-84509243D01*
X179619559Y-84527289D01*
X179611072Y-84542674D01*
X179607338Y-84559843D01*
X179597775Y-84574725D01*
X179591646Y-84582912D01*
X179591645Y-84582913D01*
X179541403Y-84717620D01*
X179541401Y-84717627D01*
X179535000Y-84777155D01*
X179535000Y-85020000D01*
X181465000Y-85020000D01*
X181465000Y-84777172D01*
X181464999Y-84777155D01*
X181458598Y-84717627D01*
X181458597Y-84717623D01*
X181408350Y-84582907D01*
X181402228Y-84574729D01*
X181377809Y-84509265D01*
X181388615Y-84449088D01*
X181394173Y-84436864D01*
X181408796Y-84417331D01*
X181434988Y-84347105D01*
X181436777Y-84343172D01*
X181456895Y-84319877D01*
X181475344Y-84295233D01*
X181479528Y-84293672D01*
X181482446Y-84290294D01*
X181511964Y-84281574D01*
X181540808Y-84270816D01*
X181549425Y-84270508D01*
X181549453Y-84270500D01*
X181549475Y-84270506D01*
X181549655Y-84270500D01*
X181573920Y-84270500D01*
X181676976Y-84250000D01*
X181718913Y-84241658D01*
X181855495Y-84185084D01*
X181978416Y-84102951D01*
X182082951Y-83998416D01*
X182165084Y-83875495D01*
X182165088Y-83875484D01*
X182166137Y-83873524D01*
X182166964Y-83872681D01*
X182168469Y-83870430D01*
X182168895Y-83870715D01*
X182215096Y-83823676D01*
X182283232Y-83808210D01*
X182348914Y-83832037D01*
X182391287Y-83887591D01*
X182399500Y-83931969D01*
X182399500Y-85102044D01*
X182379815Y-85169083D01*
X182327011Y-85214838D01*
X182299691Y-85223661D01*
X182266510Y-85230261D01*
X182266498Y-85230264D01*
X182120827Y-85290602D01*
X182120814Y-85290609D01*
X181989711Y-85378210D01*
X181989707Y-85378213D01*
X181878213Y-85489707D01*
X181878210Y-85489711D01*
X181790609Y-85620814D01*
X181790602Y-85620827D01*
X181730264Y-85766498D01*
X181730261Y-85766510D01*
X181699501Y-85921149D01*
X181699500Y-85921153D01*
X181699500Y-86078846D01*
X181730261Y-86233489D01*
X181730264Y-86233501D01*
X181790602Y-86379172D01*
X181790609Y-86379185D01*
X181878210Y-86510288D01*
X181878213Y-86510292D01*
X181989707Y-86621786D01*
X181989711Y-86621789D01*
X182120814Y-86709390D01*
X182120827Y-86709397D01*
X182266498Y-86769735D01*
X182266503Y-86769737D01*
X182421153Y-86800499D01*
X182421156Y-86800500D01*
X182421158Y-86800500D01*
X182578844Y-86800500D01*
X182578845Y-86800499D01*
X182733497Y-86769737D01*
X182879179Y-86709394D01*
X183010289Y-86621789D01*
X183121789Y-86510289D01*
X183209394Y-86379179D01*
X183213197Y-86369999D01*
X183241171Y-86302462D01*
X183269737Y-86233497D01*
X183293886Y-86112093D01*
X183300638Y-86078151D01*
X183333023Y-86016240D01*
X183334510Y-86014724D01*
X183480520Y-85868716D01*
X183559577Y-85731784D01*
X183600501Y-85579057D01*
X183600501Y-85420942D01*
X183600501Y-85413347D01*
X183600500Y-85413329D01*
X183600500Y-85321917D01*
X183917850Y-85321917D01*
X183917850Y-85518082D01*
X183956116Y-85710456D01*
X183956118Y-85710464D01*
X184031182Y-85891684D01*
X184031187Y-85891694D01*
X184140161Y-86054784D01*
X184140164Y-86054788D01*
X184278861Y-86193485D01*
X184278865Y-86193488D01*
X184441955Y-86302462D01*
X184441959Y-86302464D01*
X184441962Y-86302466D01*
X184623186Y-86377532D01*
X184740454Y-86400858D01*
X184815567Y-86415799D01*
X184815570Y-86415800D01*
X184815572Y-86415800D01*
X185824530Y-86415800D01*
X185824531Y-86415799D01*
X186016914Y-86377532D01*
X186198138Y-86302466D01*
X186361235Y-86193488D01*
X186499938Y-86054785D01*
X186608916Y-85891688D01*
X186683982Y-85710464D01*
X186722250Y-85518078D01*
X186722250Y-85321922D01*
X186722250Y-85321919D01*
X186722249Y-85321917D01*
X187714651Y-85321917D01*
X187714651Y-85518082D01*
X187752917Y-85710456D01*
X187752919Y-85710464D01*
X187827983Y-85891684D01*
X187827988Y-85891694D01*
X187936962Y-86054784D01*
X187936965Y-86054788D01*
X188075662Y-86193485D01*
X188075666Y-86193488D01*
X188238756Y-86302462D01*
X188238760Y-86302464D01*
X188238763Y-86302466D01*
X188419987Y-86377532D01*
X188537255Y-86400858D01*
X188612368Y-86415799D01*
X188612371Y-86415800D01*
X188612373Y-86415800D01*
X190027731Y-86415800D01*
X190027732Y-86415799D01*
X190220115Y-86377532D01*
X190401339Y-86302466D01*
X190564436Y-86193488D01*
X190703139Y-86054785D01*
X190812117Y-85891688D01*
X190887183Y-85710464D01*
X190925451Y-85518078D01*
X190925451Y-85321922D01*
X190925451Y-85321919D01*
X190925450Y-85321917D01*
X190907218Y-85230261D01*
X190887183Y-85129536D01*
X190812117Y-84948312D01*
X190812115Y-84948309D01*
X190812113Y-84948305D01*
X190703139Y-84785215D01*
X190703136Y-84785211D01*
X190564439Y-84646514D01*
X190564435Y-84646511D01*
X190401345Y-84537537D01*
X190401335Y-84537532D01*
X190220115Y-84462468D01*
X190220107Y-84462466D01*
X190027732Y-84424200D01*
X190027729Y-84424200D01*
X188612373Y-84424200D01*
X188612370Y-84424200D01*
X188419994Y-84462466D01*
X188419986Y-84462468D01*
X188238766Y-84537532D01*
X188238756Y-84537537D01*
X188075666Y-84646511D01*
X188075662Y-84646514D01*
X187936965Y-84785211D01*
X187936962Y-84785215D01*
X187827988Y-84948305D01*
X187827983Y-84948315D01*
X187752919Y-85129535D01*
X187752917Y-85129543D01*
X187714651Y-85321917D01*
X186722249Y-85321917D01*
X186704017Y-85230261D01*
X186683982Y-85129536D01*
X186608916Y-84948312D01*
X186608914Y-84948309D01*
X186608912Y-84948305D01*
X186499938Y-84785215D01*
X186499935Y-84785211D01*
X186361238Y-84646514D01*
X186361234Y-84646511D01*
X186198144Y-84537537D01*
X186198134Y-84537532D01*
X186016914Y-84462468D01*
X186016906Y-84462466D01*
X185824531Y-84424200D01*
X185824528Y-84424200D01*
X184815572Y-84424200D01*
X184815569Y-84424200D01*
X184623193Y-84462466D01*
X184623185Y-84462468D01*
X184441965Y-84537532D01*
X184441955Y-84537537D01*
X184278865Y-84646511D01*
X184278861Y-84646514D01*
X184140164Y-84785211D01*
X184140161Y-84785215D01*
X184031187Y-84948305D01*
X184031182Y-84948315D01*
X183956118Y-85129535D01*
X183956116Y-85129543D01*
X183917850Y-85321917D01*
X183600500Y-85321917D01*
X183600500Y-82083755D01*
X183600501Y-82083742D01*
X183600501Y-81915639D01*
X183586467Y-81863265D01*
X183559577Y-81762911D01*
X183499212Y-81658354D01*
X183480524Y-81625985D01*
X183480518Y-81625977D01*
X183274068Y-81419527D01*
X183240583Y-81358204D01*
X183240158Y-81356167D01*
X183224792Y-81278916D01*
X183168218Y-81142334D01*
X183124530Y-81076950D01*
X183103654Y-81010273D01*
X183103634Y-81008061D01*
X183103634Y-80485076D01*
X183123319Y-80418037D01*
X183124497Y-80416237D01*
X183165084Y-80355495D01*
X183221658Y-80218913D01*
X183241573Y-80118796D01*
X183250500Y-80073920D01*
X183250500Y-79926079D01*
X183221659Y-79781092D01*
X183221658Y-79781091D01*
X183221658Y-79781087D01*
X183221656Y-79781082D01*
X183165087Y-79644511D01*
X183165080Y-79644498D01*
X183082951Y-79521584D01*
X183082948Y-79521580D01*
X182978419Y-79417051D01*
X182978415Y-79417048D01*
X182855501Y-79334919D01*
X182855488Y-79334912D01*
X182804546Y-79313812D01*
X182779820Y-79293887D01*
X182754072Y-79275320D01*
X182752815Y-79272126D01*
X182750142Y-79269972D01*
X182740115Y-79239846D01*
X182728491Y-79210302D01*
X182728739Y-79205668D01*
X182728077Y-79203678D01*
X182730380Y-79175062D01*
X182746782Y-79092610D01*
X182779168Y-79030700D01*
X182794082Y-79017540D01*
X182867546Y-78962546D01*
X182953796Y-78847331D01*
X183004091Y-78712483D01*
X183010500Y-78652873D01*
X183010499Y-77517128D01*
X183004091Y-77457517D01*
X182979884Y-77392616D01*
X182974901Y-77322927D01*
X182979886Y-77305950D01*
X183003597Y-77242379D01*
X183003597Y-77242377D01*
X183009999Y-77182844D01*
X183010000Y-77182827D01*
X183010000Y-76865000D01*
X180990000Y-76865000D01*
X180990000Y-77182844D01*
X180996401Y-77242372D01*
X180996403Y-77242379D01*
X181020114Y-77305952D01*
X181025098Y-77375644D01*
X181020114Y-77392617D01*
X180995909Y-77457514D01*
X180995908Y-77457516D01*
X180989501Y-77517116D01*
X180989501Y-77517123D01*
X180989500Y-77517135D01*
X180989500Y-78652870D01*
X180989501Y-78652876D01*
X180995908Y-78712483D01*
X181046202Y-78847328D01*
X181046206Y-78847335D01*
X181132452Y-78962544D01*
X181132453Y-78962544D01*
X181132454Y-78962546D01*
X181168742Y-78989711D01*
X181205912Y-79017537D01*
X181222379Y-79039536D01*
X181241466Y-79059310D01*
X181245288Y-79070139D01*
X181247782Y-79073471D01*
X181253213Y-79092592D01*
X181253949Y-79096289D01*
X181247733Y-79165882D01*
X181204879Y-79221066D01*
X181138993Y-79244321D01*
X181132337Y-79244500D01*
X180942130Y-79244500D01*
X180942123Y-79244501D01*
X180882516Y-79250908D01*
X180747671Y-79301202D01*
X180747664Y-79301206D01*
X180632455Y-79387452D01*
X180632452Y-79387455D01*
X180546206Y-79502664D01*
X180546202Y-79502671D01*
X180495908Y-79637517D01*
X180489501Y-79697116D01*
X180489500Y-79697135D01*
X180489500Y-80180612D01*
X180480854Y-80210054D01*
X180474332Y-80240038D01*
X180470577Y-80245053D01*
X180469815Y-80247651D01*
X180453185Y-80268288D01*
X180308292Y-80413182D01*
X180246972Y-80446666D01*
X180220613Y-80449500D01*
X180062230Y-80449500D01*
X179995191Y-80429815D01*
X179983531Y-80420419D01*
X179983126Y-80420914D01*
X179978415Y-80417048D01*
X179855501Y-80334919D01*
X179855488Y-80334912D01*
X179718917Y-80278343D01*
X179718907Y-80278340D01*
X179573920Y-80249500D01*
X179573918Y-80249500D01*
X179426082Y-80249500D01*
X179426080Y-80249500D01*
X179281092Y-80278340D01*
X179281082Y-80278343D01*
X179144511Y-80334912D01*
X179144498Y-80334919D01*
X179021584Y-80417048D01*
X179021580Y-80417051D01*
X178917051Y-80521580D01*
X178917048Y-80521584D01*
X178834919Y-80644498D01*
X178834912Y-80644511D01*
X178778343Y-80781082D01*
X178778340Y-80781092D01*
X178749500Y-80926079D01*
X178749500Y-80926082D01*
X178749500Y-81073918D01*
X178749500Y-81073920D01*
X178749499Y-81073920D01*
X178778340Y-81218907D01*
X178778342Y-81218913D01*
X178782125Y-81228045D01*
X178785632Y-81260667D01*
X178790303Y-81293147D01*
X178789349Y-81295234D01*
X178789595Y-81297514D01*
X178774910Y-81326852D01*
X178761278Y-81356703D01*
X178759348Y-81357942D01*
X178758322Y-81359994D01*
X178730096Y-81376742D01*
X178702500Y-81394477D01*
X178699474Y-81394912D01*
X178698234Y-81395648D01*
X178667565Y-81399500D01*
X178529766Y-81399500D01*
X178462727Y-81379815D01*
X178460875Y-81378602D01*
X178329185Y-81290609D01*
X178329172Y-81290602D01*
X178183501Y-81230264D01*
X178183489Y-81230261D01*
X178028845Y-81199500D01*
X178028842Y-81199500D01*
X177871158Y-81199500D01*
X177871155Y-81199500D01*
X177716510Y-81230261D01*
X177716498Y-81230264D01*
X177570827Y-81290602D01*
X177570814Y-81290609D01*
X177439711Y-81378210D01*
X177439707Y-81378213D01*
X177328213Y-81489707D01*
X177328210Y-81489711D01*
X177240609Y-81620814D01*
X177240602Y-81620827D01*
X177180264Y-81766498D01*
X177180261Y-81766508D01*
X177154117Y-81897944D01*
X177121732Y-81959855D01*
X177061016Y-81994429D01*
X176991247Y-81990689D01*
X176934575Y-81949822D01*
X176908993Y-81884804D01*
X176908500Y-81873752D01*
X176908500Y-79212096D01*
X176928185Y-79145057D01*
X176944814Y-79124420D01*
X177347220Y-78722013D01*
X177408540Y-78688531D01*
X177478231Y-78693515D01*
X177534165Y-78735386D01*
X177549459Y-78762245D01*
X177612007Y-78913251D01*
X177709584Y-79040415D01*
X177836748Y-79137992D01*
X177836747Y-79137992D01*
X177984830Y-79199329D01*
X177984834Y-79199330D01*
X178103842Y-79214999D01*
X178103857Y-79215000D01*
X178250000Y-79215000D01*
X178750000Y-79215000D01*
X178896143Y-79215000D01*
X178896157Y-79214999D01*
X179015165Y-79199330D01*
X179015169Y-79199329D01*
X179163251Y-79137992D01*
X179290415Y-79040415D01*
X179387992Y-78913251D01*
X179449329Y-78765169D01*
X179449330Y-78765165D01*
X179464999Y-78646157D01*
X179465000Y-78646143D01*
X179465000Y-78530000D01*
X178750000Y-78530000D01*
X178750000Y-79215000D01*
X178250000Y-79215000D01*
X178250000Y-78404000D01*
X178269685Y-78336961D01*
X178322489Y-78291206D01*
X178374000Y-78280000D01*
X178500000Y-78280000D01*
X178500000Y-78154000D01*
X178519685Y-78086961D01*
X178572489Y-78041206D01*
X178624000Y-78030000D01*
X179465000Y-78030000D01*
X179465000Y-77913856D01*
X179464999Y-77913842D01*
X179449330Y-77794834D01*
X179449329Y-77794830D01*
X179387992Y-77646747D01*
X179336647Y-77579834D01*
X179311452Y-77514665D01*
X179325490Y-77446220D01*
X179337050Y-77428337D01*
X179341471Y-77422637D01*
X179341478Y-77422631D01*
X179419836Y-77290135D01*
X179462782Y-77142315D01*
X179465500Y-77107777D01*
X179465499Y-76681917D01*
X183917850Y-76681917D01*
X183917850Y-76878082D01*
X183956116Y-77070456D01*
X183956118Y-77070464D01*
X184031182Y-77251684D01*
X184031187Y-77251694D01*
X184140161Y-77414784D01*
X184140164Y-77414788D01*
X184278861Y-77553485D01*
X184278865Y-77553488D01*
X184441955Y-77662462D01*
X184441959Y-77662464D01*
X184441962Y-77662466D01*
X184623186Y-77737532D01*
X184815567Y-77775799D01*
X184815570Y-77775800D01*
X184815572Y-77775800D01*
X185824530Y-77775800D01*
X185824531Y-77775799D01*
X186016914Y-77737532D01*
X186198138Y-77662466D01*
X186361235Y-77553488D01*
X186499938Y-77414785D01*
X186608916Y-77251688D01*
X186683982Y-77070464D01*
X186722250Y-76878078D01*
X186722250Y-76681922D01*
X186722250Y-76681919D01*
X186722249Y-76681917D01*
X187714651Y-76681917D01*
X187714651Y-76878082D01*
X187752917Y-77070456D01*
X187752919Y-77070464D01*
X187827983Y-77251684D01*
X187827988Y-77251694D01*
X187936962Y-77414784D01*
X187936965Y-77414788D01*
X188075662Y-77553485D01*
X188075666Y-77553488D01*
X188238756Y-77662462D01*
X188238760Y-77662464D01*
X188238763Y-77662466D01*
X188419987Y-77737532D01*
X188612368Y-77775799D01*
X188612371Y-77775800D01*
X188612373Y-77775800D01*
X190027731Y-77775800D01*
X190027732Y-77775799D01*
X190220115Y-77737532D01*
X190401339Y-77662466D01*
X190564436Y-77553488D01*
X190703139Y-77414785D01*
X190812117Y-77251688D01*
X190887183Y-77070464D01*
X190925451Y-76878078D01*
X190925451Y-76681922D01*
X190925451Y-76681919D01*
X190925450Y-76681917D01*
X190887184Y-76489543D01*
X190887183Y-76489536D01*
X190812117Y-76308312D01*
X190812115Y-76308309D01*
X190812113Y-76308305D01*
X190703139Y-76145215D01*
X190703136Y-76145211D01*
X190564439Y-76006514D01*
X190564435Y-76006511D01*
X190401345Y-75897537D01*
X190401335Y-75897532D01*
X190220115Y-75822468D01*
X190220107Y-75822466D01*
X190027732Y-75784200D01*
X190027729Y-75784200D01*
X188612373Y-75784200D01*
X188612370Y-75784200D01*
X188419994Y-75822466D01*
X188419986Y-75822468D01*
X188238766Y-75897532D01*
X188238756Y-75897537D01*
X188075666Y-76006511D01*
X188075662Y-76006514D01*
X187936965Y-76145211D01*
X187936962Y-76145215D01*
X187827988Y-76308305D01*
X187827983Y-76308315D01*
X187752919Y-76489535D01*
X187752917Y-76489543D01*
X187714651Y-76681917D01*
X186722249Y-76681917D01*
X186683983Y-76489543D01*
X186683982Y-76489536D01*
X186608916Y-76308312D01*
X186608914Y-76308309D01*
X186608912Y-76308305D01*
X186499938Y-76145215D01*
X186499935Y-76145211D01*
X186361238Y-76006514D01*
X186361234Y-76006511D01*
X186198144Y-75897537D01*
X186198134Y-75897532D01*
X186016914Y-75822468D01*
X186016906Y-75822466D01*
X185824531Y-75784200D01*
X185824528Y-75784200D01*
X184815572Y-75784200D01*
X184815569Y-75784200D01*
X184623193Y-75822466D01*
X184623185Y-75822468D01*
X184441965Y-75897532D01*
X184441955Y-75897537D01*
X184278865Y-76006511D01*
X184278861Y-76006514D01*
X184140164Y-76145211D01*
X184140161Y-76145215D01*
X184031187Y-76308305D01*
X184031182Y-76308315D01*
X183956118Y-76489535D01*
X183956116Y-76489543D01*
X183917850Y-76681917D01*
X179465499Y-76681917D01*
X179465499Y-76332224D01*
X179462782Y-76297685D01*
X179419836Y-76149865D01*
X179365874Y-76058620D01*
X179359094Y-76047155D01*
X180990000Y-76047155D01*
X180990000Y-76365000D01*
X181750000Y-76365000D01*
X182250000Y-76365000D01*
X183010000Y-76365000D01*
X183010000Y-76047172D01*
X183009999Y-76047155D01*
X183003598Y-75987627D01*
X183003596Y-75987620D01*
X182953354Y-75852913D01*
X182953350Y-75852906D01*
X182867190Y-75737812D01*
X182867187Y-75737809D01*
X182752093Y-75651649D01*
X182752086Y-75651645D01*
X182617379Y-75601403D01*
X182617372Y-75601401D01*
X182557844Y-75595000D01*
X182250000Y-75595000D01*
X182250000Y-76365000D01*
X181750000Y-76365000D01*
X181750000Y-75595000D01*
X181442155Y-75595000D01*
X181382627Y-75601401D01*
X181382620Y-75601403D01*
X181247913Y-75651645D01*
X181247906Y-75651649D01*
X181132812Y-75737809D01*
X181132809Y-75737812D01*
X181046649Y-75852906D01*
X181046645Y-75852913D01*
X180996403Y-75987620D01*
X180996401Y-75987627D01*
X180990000Y-76047155D01*
X179359094Y-76047155D01*
X179341480Y-76017372D01*
X179341473Y-76017363D01*
X179232636Y-75908526D01*
X179232627Y-75908519D01*
X179100133Y-75830163D01*
X179100130Y-75830162D01*
X178952319Y-75787218D01*
X178952313Y-75787217D01*
X178917777Y-75784500D01*
X178082235Y-75784500D01*
X178082210Y-75784501D01*
X178047684Y-75787218D01*
X177899869Y-75830162D01*
X177899866Y-75830163D01*
X177767372Y-75908519D01*
X177767363Y-75908526D01*
X177658526Y-76017363D01*
X177658521Y-76017369D01*
X177644428Y-76041200D01*
X177634125Y-76058621D01*
X177583058Y-76106304D01*
X177527394Y-76119500D01*
X176529500Y-76119500D01*
X176462461Y-76099815D01*
X176416706Y-76047011D01*
X176405500Y-75995500D01*
X176405500Y-75971152D01*
X176399809Y-75908519D01*
X176399258Y-75902459D01*
X176350004Y-75744396D01*
X176264354Y-75602714D01*
X176264352Y-75602712D01*
X176264351Y-75602710D01*
X176147289Y-75485648D01*
X176147286Y-75485646D01*
X176086582Y-75448949D01*
X176039397Y-75397423D01*
X176027558Y-75328564D01*
X176054827Y-75264235D01*
X176112545Y-75224861D01*
X176150734Y-75218834D01*
X191159542Y-75218834D01*
X191226581Y-75238519D01*
G37*
%TD.AperFunction*%
%TA.AperFunction,Conductor*%
G36*
X172555650Y-77190185D02*
G01*
X172601405Y-77242989D01*
X172606989Y-77257591D01*
X172649996Y-77395604D01*
X172723459Y-77517127D01*
X172735648Y-77537289D01*
X172852710Y-77654351D01*
X172852712Y-77654352D01*
X172852714Y-77654354D01*
X172994396Y-77740004D01*
X173152459Y-77789258D01*
X173221150Y-77795500D01*
X173221153Y-77795500D01*
X175778847Y-77795500D01*
X175778850Y-77795500D01*
X175847541Y-77789258D01*
X176005604Y-77740004D01*
X176147286Y-77654354D01*
X176264354Y-77537286D01*
X176350004Y-77395604D01*
X176350006Y-77395596D01*
X176350900Y-77393612D01*
X176351945Y-77392392D01*
X176353884Y-77389185D01*
X176354417Y-77389507D01*
X176396363Y-77340556D01*
X176463292Y-77320502D01*
X176463977Y-77320500D01*
X176750903Y-77320500D01*
X176817942Y-77340185D01*
X176863697Y-77392989D01*
X176873641Y-77462147D01*
X176844616Y-77525703D01*
X176838584Y-77532181D01*
X176138268Y-78232494D01*
X176076945Y-78265979D01*
X176012957Y-78261402D01*
X176012558Y-78262686D01*
X175847451Y-78211237D01*
X175847453Y-78211237D01*
X175778813Y-78205000D01*
X174750000Y-78205000D01*
X174750000Y-80655000D01*
X175583500Y-80655000D01*
X175650539Y-80674685D01*
X175696294Y-80727489D01*
X175707500Y-80779000D01*
X175707500Y-82625500D01*
X175687815Y-82692539D01*
X175635011Y-82738294D01*
X175583500Y-82749500D01*
X174642289Y-82749500D01*
X174554631Y-82760026D01*
X174554630Y-82760027D01*
X174415130Y-82815038D01*
X174415128Y-82815039D01*
X174295647Y-82905647D01*
X174205039Y-83025128D01*
X174205038Y-83025130D01*
X174150027Y-83164630D01*
X174150026Y-83164631D01*
X174139500Y-83252289D01*
X174139500Y-83387500D01*
X174119815Y-83454539D01*
X174067011Y-83500294D01*
X174015500Y-83511500D01*
X173331740Y-83511500D01*
X173264701Y-83491815D01*
X173257429Y-83486766D01*
X173142335Y-83400606D01*
X173142328Y-83400602D01*
X173007482Y-83350308D01*
X173007483Y-83350308D01*
X172947883Y-83343901D01*
X172947881Y-83343900D01*
X172947873Y-83343900D01*
X172947865Y-83343900D01*
X172632497Y-83343900D01*
X172565458Y-83324215D01*
X172544816Y-83307581D01*
X171136819Y-81899584D01*
X171103334Y-81838261D01*
X171100500Y-81811903D01*
X171100500Y-80789060D01*
X171100501Y-80789047D01*
X171100501Y-80620944D01*
X171100501Y-80620943D01*
X171059577Y-80468216D01*
X171059573Y-80468209D01*
X170980524Y-80331289D01*
X170975924Y-80325295D01*
X170970537Y-80313249D01*
X170963856Y-80306186D01*
X170958367Y-80286032D01*
X170952445Y-80272788D01*
X170950500Y-80262475D01*
X170950500Y-80256898D01*
X170939877Y-80168436D01*
X170926240Y-80133857D01*
X170924061Y-80122300D01*
X170926402Y-80098768D01*
X170924277Y-80075221D01*
X170930560Y-80053823D01*
X170939386Y-80031443D01*
X170939702Y-80028813D01*
X172595000Y-80028813D01*
X172601237Y-80097452D01*
X172650453Y-80255394D01*
X172650455Y-80255398D01*
X172736038Y-80396971D01*
X172736041Y-80396975D01*
X172853024Y-80513958D01*
X172853028Y-80513961D01*
X172994601Y-80599544D01*
X172994605Y-80599546D01*
X173152548Y-80648762D01*
X173152546Y-80648762D01*
X173221187Y-80655000D01*
X174250000Y-80655000D01*
X174250000Y-79680000D01*
X172595000Y-79680000D01*
X172595000Y-80028813D01*
X170939702Y-80028813D01*
X170950000Y-79943053D01*
X170950000Y-79756946D01*
X170939386Y-79668556D01*
X170930290Y-79645492D01*
X170924007Y-79575906D01*
X170930290Y-79554508D01*
X170939386Y-79531443D01*
X170950000Y-79443053D01*
X170950000Y-79256946D01*
X170939386Y-79168556D01*
X170930290Y-79145492D01*
X170924007Y-79075906D01*
X170930290Y-79054508D01*
X170939386Y-79031443D01*
X170950000Y-78943053D01*
X170950000Y-78831186D01*
X172595000Y-78831186D01*
X172595000Y-79180000D01*
X174250000Y-79180000D01*
X174250000Y-78205000D01*
X173221187Y-78205000D01*
X173152547Y-78211237D01*
X172994605Y-78260453D01*
X172994601Y-78260455D01*
X172853028Y-78346038D01*
X172853024Y-78346041D01*
X172736041Y-78463024D01*
X172736038Y-78463028D01*
X172650455Y-78604601D01*
X172650453Y-78604605D01*
X172601237Y-78762547D01*
X172595000Y-78831186D01*
X170950000Y-78831186D01*
X170950000Y-78824216D01*
X170969685Y-78757177D01*
X171022489Y-78711422D01*
X171091647Y-78701478D01*
X171121447Y-78709653D01*
X171266503Y-78769737D01*
X171421153Y-78800499D01*
X171421156Y-78800500D01*
X171421158Y-78800500D01*
X171578844Y-78800500D01*
X171578845Y-78800499D01*
X171733497Y-78769737D01*
X171871722Y-78712483D01*
X171874283Y-78711422D01*
X171879179Y-78709394D01*
X172010289Y-78621789D01*
X172121789Y-78510289D01*
X172209394Y-78379179D01*
X172269737Y-78233497D01*
X172300500Y-78078842D01*
X172300500Y-77921158D01*
X172300500Y-77921155D01*
X172300499Y-77921153D01*
X172275372Y-77794834D01*
X172269737Y-77766503D01*
X172258761Y-77740004D01*
X172209397Y-77620827D01*
X172209390Y-77620814D01*
X172121789Y-77489711D01*
X172121786Y-77489707D01*
X172014260Y-77382181D01*
X171980775Y-77320858D01*
X171985759Y-77251166D01*
X172027631Y-77195233D01*
X172093095Y-77170816D01*
X172101941Y-77170500D01*
X172488611Y-77170500D01*
X172555650Y-77190185D01*
G37*
%TD.AperFunction*%
%TA.AperFunction,Conductor*%
G36*
X182305775Y-82702938D02*
G01*
X182310240Y-82702931D01*
X182336166Y-82719532D01*
X182363181Y-82734284D01*
X182365320Y-82738201D01*
X182369080Y-82740609D01*
X182381916Y-82768594D01*
X182396666Y-82795607D01*
X182397388Y-82802328D01*
X182398209Y-82804117D01*
X182397851Y-82806632D01*
X182399500Y-82821965D01*
X182399500Y-83108030D01*
X182379815Y-83175069D01*
X182327011Y-83220824D01*
X182257853Y-83230768D01*
X182194297Y-83201743D01*
X182168559Y-83169509D01*
X182168469Y-83169570D01*
X182167758Y-83168507D01*
X182166141Y-83166481D01*
X182165085Y-83164506D01*
X182082951Y-83041584D01*
X182082948Y-83041580D01*
X182005015Y-82963647D01*
X181971530Y-82902324D01*
X181976514Y-82832632D01*
X182018386Y-82776699D01*
X182057567Y-82757046D01*
X182240371Y-82703045D01*
X182271154Y-82702994D01*
X182301858Y-82700799D01*
X182305775Y-82702938D01*
G37*
%TD.AperFunction*%
%TD*%
M02*
